<svg version="1.2" xmlns="http://www.w3.org/2000/svg" viewBox="0 0 1334 887" width="835" height="555">
	<title>801-svg</title>
	<style>
		.s0 { fill: #d65f30 } 
		.s1 { fill: #a32721 } 
		.s2 { fill: #fd9407 } 
		.s3 { fill: #17162b } 
		.s4 { fill: #fff9b5 } 
		.s5 { fill: #000000 } 
		.s6 { fill: #ffe600 } 
	</style>
	<g id="g12">
		<path id="path53164" class="s0" d="m478.4 578.5q0.2 0.3 0.4 0.5-1.2-0.3-2.5-0.6 1.1 0 2.1 0.1z"/>
		<path id="path53166" class="s0" d="m475.1 575.5c-0.3-0.8-0.7-1.9-1.1-3.2q1.4 2.1 2.9 4.1-0.9-0.4-1.8-0.9z"/>
		<path id="path53168" fill-rule="evenodd" class="s0" d="m429.4 648.3v-0.2 0.2c-1.9-2.1-3.4-4.5-4.7-6.9-5.5-10.1-8.7-21.3-9.4-32.7q-2.4 18.4-4.9 36.9c-1 7.8-3 16.9-10.2 20-5.6 2.5-12.5 0-16.8-4.4l-0.4-0.4c-1.7-5.6-5.2-10.7-8.6-15.6 2.2 5.6 4.5 11.3 8.6 15.6q0.3 0.9 0.6 1.9c1.5 6.4 0.2 13.9-4.9 18.1-5.1 4.1-12.6 4-18.6 1.3-5.3-2.4-9.7-6.5-13.9-10.7 4.8 4.8 11.2 11.3 14 16.7 0.3 0.4 0.4 0.9 0.6 1.3h-12q-2.3-1.6-4.6-3c-13.3-8.2-26-16.1-39-23.1l0.5 0.1-7.2-6.8-0.3-0.3c-2.3-2.5-6.2-10-6-16.8 0.1-3.6 1.3-6.5 3.6-8.5 8.4-7.2 14.8-6.5 30.8-0.5l4 1.5-0.2 0.4q-0.2 0.2-0.4 0.4c-1.9 2.9-3.1 6.1-3.5 9.3-1 6.5 1 13 4.6 18-1.8-5.9-2.4-11.9-1-17.3 0.8-2.7 1.9-5.2 3.5-7.3 1.5-1.9 4-3.6 6.4-5 4.8-2.8 10.4-4.1 16-3.8 5.7 0.5 11.3 2.6 16.6 5.6-4.1-4.6-9.7-8-16.1-9.3-3.2-0.6-6.5-0.5-9.7 0.1-3.2 0.5-6.3 1.8-9.2 3.3-1.4 0.9-2.7 1.7-4 2.8-0.6 0.5-1.3 1-1.9 1.7l-2.2-3.8c-1.4-2.5-2.7-4.9-3.9-7.2-10-19.6-9.9-31.2-0.3-42.5 4.4-5.2 9.5-8.2 15.8-9.4 5.4-1 11.6-0.8 19 0.3 3.6 0.5 7.6 1.3 11.8 2.3 1.1 0.2 2.1 0.4 3.1 0.7 0.2 4.5 0.8 9.1 2.1 13.4 1.5 5 3.8 9.7 6.8 14 5.8 8.4 14 15 23 19.3-8.6-5-16.1-12.1-21-20.6-2.5-4.3-4.3-8.8-5.3-13.6-1-4.6-1.3-9.4-0.9-14.2q0.2-1.3 0.4-2.6c1.3-6.9 5-12.6 10.9-17.1 6.2-4.7 14.6-7.6 23.2-9 8.4-1.3 17.1-1.3 24.1 0l11.9 2.1-10.2-6.5c-4.5-2.8-12.5-13.5-8.9-20.2 2.4-4.4 9.9-6.8 21.6-2.5l4.6 1.7v0.1c-1.2 2.8-1.5 5.6-1.5 8.4 0 5.5 1.2 10.7 2.7 15.7 1.1 3.9 2.5 7.7 4.1 11.3q-0.6-0.2-1.3-0.3c-4.1 15.7-5.1 29.6-13.9 44q0.9-1.3 1.9-2.6-0.2 0.3-0.4 0.7c-1.8 3.1-3.1 6.4-4.1 9.7-1 3.4-1.8 6.8-2.3 10.2-2.1 13.7-1.3 27.5 1.5 40.9-2.2 0.7-4.7 0.8-6.9 0.1-3-1-5.5-3-7.7-5.4zm18-53.4q0-0.1 0-0.2 0 0.1 0 0.2zm-102.5 75.1q0.6 0.7 1.3 1.4-0.7-0.7-1.3-1.4zm-1.6-36.1c-12.8-2.9-10.1 23-4.6 28.1-7-6.4 13-26.2 4.6-28.1zm-37.8-0.8l1.2 1.2c-2.4-1.7-6.1-0.9-7.7 1.6-1.7 2.4-0.9 6.1 1.6 7.7q0.9 0.6 2 0.8c2.9 0.6 6.1-1.4 6.8-4.2 0.8-2.9-1-6.2-3.9-7.1zm36.6-60.9c-6.7-0.4-14 10.5-15.5 15.9-2.1 7.2-0.2 15.5 4.8 21.1-0.3-9.1 3.9-18.3 11-24 4.6-3.7 10.1-12.3-0.3-13zm97.3 9.2c4.9-3.5 10.4-8.2 10-14.3-0.4-6.4-7.3-10.3-13.5-12.2-15.4-4.5-41.3-6.3-42.1 16.6-0.3 9.9 7.6 19.4 17.4 20.8 10.2 1.5 19.8-4.9 28.2-10.9z"/>
		<path id="path53170" class="s0" d="m430.6 510q0.5-0.4 1-0.7c-0.4 0.1-0.7 0.3-1 0.7z"/>
		<path id="path53172" class="s1" d="m344.2 686.4q2.3 1.4 4.6 3h-61.5-91.4c15.6-23.5 59.7-16.1 60.2-16l14.2 2.5-12.7-6.9c-6.8-3.8-18-11.4-18.9-16-0.1-0.6 0-1.1 0.4-1.5 3-3.7 32 1.8 57.1 9.1l1.7 0.5 7.3 2.2c13 7 25.7 14.9 39 23.1z"/>
		<path id="path53174" fill-rule="evenodd" class="s0" d="m971.1 650.5q0-3.9-0.2-7.7-0.2 4.1-0.6 8.1-1.2 0.6-2.4 1c-3 0.9-8.9-0.2-8.6-4.2q-0.3 2.2-0.6 4.4c-1-11.6-4.3-22.7-10.4-31.1q1.6-7.3 3.1-14.6c-5.2 3.2-12.7 1.9-16.5-2.9-3.9-4.8-3.6-12.4 0.7-16.8-4.3 3.7-11.1 4.4-16 1.5-3.6-2.2-4.8-5.3-6.3-8.9-0.4-0.8-0.4-1.3-0.5-1.8l18-12-5.5-1.2c-6.1-1.3-9.9-3.6-11.6-6.9-3-5.7 0.2-14.9 3.7-23l3.1-7.2-6.6 4.2c-15.2 9.9-25.9 11.1-32.6 3.7-5.6-6.2-2.6-30.4 3.5-57.2 14.4 1.5 25.7 9 29.7 13.6 1.4 1.9 2.8 3.9 3.7 6.2 1 2.3 1.7 4.8 2.1 7.4 0.8 5.1 0.7 10.5-0.4 15.8 1.8-5.1 2.8-10.5 2.8-16 0-2.8-0.4-5.6-1.1-8.3-0.5-2.2-1.4-4.3-2.5-6.4 3.7-5.2 20-25.3 39.9-13.1 23 14 3.2 65.7-10.4 91l-5.2 9.6 8.7-6.6c5.7-4.3 22.1-14.1 29.1-7.8 8.3 7.5 2.6 24.7-15.4 46l-11.3 13.5 14.5-10c21.2-14.6 37.2-15.2 46.9-13.2 8.3 1.8 13.4 5.8 14.7 7.9 2.7 4.3 3.9 8.5-5.7 21.1l-4.3 5.7 6.9-1.9c1.2-0.4 3.2-0.8 5.5-1.1 3.2 11.4-1.9 24.3-11.2 31.4-3.1 2.4-6.3 3.5-9 5.5-0.4-4.9-0.8-9.8 0.3-13.7-2.5 5.5-4.9 8.8-10.3 9.9-5.4 1.1-8.7 0.6-12.6-3.3-4.1-4-4.5-6.6-5.9-13.3-1.1-5.6-1.3-13.9-1.1-21.7-2.3 6.5-2.8 9.5-5.2 16.5-1.2 3.3-3.8 6.1-6.9 7.9zm-73.9-161.3c-13.2 2.6 3.2 23.8 6.6 29.8 1.2 2.2 3.1 4.8 5.6 4.4 2.5-0.5 3.5-3.4 3.7-5.9 0.9-8.4-2.5-31-15.9-28.3zm65.8 113.3c6.5-2.3 25-20.6 14-27.3-12.1-7.4-10.1 25.9-14 27.3zm21.1 16.6q12 2.3 23.9 4.6c12.9 2.5 23.6-11.9 9.2-17.6-10.8-4.3-27.4 4.1-33.1 13zm-39.8-87.9c6-7.9 23.4-56.2-1.6-49.5-4.6 1.2-8 5.1-10 9.4-1.9 4.2-2.5 9-3.2 13.7q-1.3 10-2.6 20.1c-0.5 4.2-0.8 9.1 2.5 11.7 2.3 1.9 5.7 1.8 8.4 0.6 2.7-1.3 4.7-3.6 6.5-6z"/>
		<path id="path53176" class="s0" d="m818.3 513.5c0.8-14.4 7.5-27.1 14.2-33.6 2.7-2.7 4.8-3.6 5.7-3.6h0.1c0.5 0 1 0.5 1.3 0.9 1.4 1.8 2.3 6.2 0.7 13.2l-1.7 7.5 5.7-5.2q6.6-6.2 13.8-9.8l-19.7 31.8q-3.3-0.9-6.7-1.3c-4.5-0.4-9-0.4-13.4 0.1z"/>
		<path id="path53178" fill-rule="evenodd" class="s0" d="m941.1 619.7c13.8 14 17.4 44.3 8.7 69.7h-13q0-1.4 0-2.8c-10.3 2.4-21.9-3-26.7-12.5-4.9-9.4-1.5-19.8 5.4-29-6 7.7-13.5 10.7-20.3 6.3-5.6-3.6-7.9-11-7.3-17.7q0.2-2 0.5-4.3c0.7-6 1.7-13.1 2-20.4-1.7 7.8-3.1 14.4-5.4 19.7-2.2 5.2-4.3 10.7-8.3 14.8-3.9 4.1-10.1 6.4-15.2 4.1 1.5-3.5 2.9-7 4.1-10.6-1.5 3.5-3.1 6.8-4.8 10.2-3.9-2.2-6-6.7-6.3-11.2 0-0.9 0.1-1.8 0.2-2.8 5.5-13.7 10.1-27.9 14.5-42.1-7.3 23.2-24.1 43.3-45.7 54.5-8.7 4.5-20.5 7.2-27.6 0.5-6.3-6-5.5-16-4.3-24.6q4.3-30.8 8.7-61.7c-4.4 23.9-14.3 46.7-28.6 66.2-5.5 7.6-12.9 15.2-22.2 15.1-8.6-0.1-15.9-7.3-18.8-15.4-2.9-8.2-2.4-17.1-1.6-25.6 0.7-8.6 1.6-17.4-0.6-25.8-3.1 16.4-6.2 33-12.6 48.4-1.7 4-3.6 7.9-5.7 11.7-4.4 6-9 11.8-14.7 16.6-8.1 6.9-18.6 11.6-29.2 10.5-15.3-1.7-27.3-15.5-31-30.5-2.1-8.3-2.1-16.9-0.9-25.4 3-2.2 6.3-3.9 9.9-4.9 7.3-2 15.4-0.8 23.1 1.8-6.8-4.3-15.4-7-24-5.4-2.8 0.5-5.5 1.5-8 2.8 0.9-4.8 2.2-9.5 3.6-14.2-3.1 9.9-12.8 17.2-23.2 18-10.4 0.9-20.9-4.5-27-13-4.5-6.1-6.6-13.7-6.6-21.3q0.5-4.3 0.9-8.7c-0.6 2.9-0.9 5.8-0.9 8.7-1.2 10-2.8 20-6.4 29.3-3.5 9.2-9.8 19.7-18.6 24.8-4.1 2.3-6 0.7-10.2 0.2-0.8-0.1-1.7 0-2.5 0-11.7-4.6-20.9-15.2-23.7-27.5-0.8 15.7-3 32.1-12.1 44.9-9.2 12.8-27.3 20.4-41.2 13.1-12.8-8.5-18.2-20.8-21.1-35.1q0.3-2.8 0.8-5.6c1-6.5 2.6-12.9 5.6-18.6 1.5-2.8 3.3-5.4 5.5-7.6 1.1-1 2.4-1.9 3.7-2.7 1.3-0.8 2.8-1.3 4.2-2 5.9-2 12.6-1.6 18.4 1.5 5.9 2.9 10.9 7.7 15 12.9-1.6-2.9-3.6-5.7-5.9-8.2-2.3-2.6-5-4.8-8-6.7-1.9-1.3-4.2-2.3-6.5-3q-0.2-0.3-0.4-0.6 1.3 0.1 2.5 0.3-1.7-0.9-3.4-1.8-3.6-6-6.5-12.3c-1-2.7-2.2-5.4-3.4-7.7q-0.8-1.8-1.5-3.6c-1.8-4.8-3.4-9.7-4.6-14.6-1.3-4.9-2.1-9.9-2-14.8 0-2.4 0.4-4.7 1.3-6.7q0.7-1.4 1.8-2.4c0.6-0.6 1.8-1.4 2.8-1.9 2-1.1 4.1-1.8 6.1-1.7 2 0.1 4 1 5.8 2.4 3.7 2.8 6.6 7 9.4 11.1 2.7 4.3 5.2 8.8 7.6 13.3l3.8 7.4 0.5-8.3c0.4-7.1 1-14.3 2.2-21.4 0.6-3.5 1.2-7 2.1-10.4 0.9-3.4 2-6.8 3.8-9.6 0.9-1.4 1.8-2.5 3.2-3.2 1.5-0.7 3.1-1.2 4.7-1.4 3.3-0.4 6.5 0.9 9.3 3.1 2.7 2.1 5.2 4.8 7.4 7.6q3.4 4.2 6.6 8.7c-1.8-3.2-3.6-6.3-5.7-9.3-2.1-3-4.3-6-7.2-8.5-1.4-1.2-2.9-2.3-4.7-3.1-1.8-0.9-3.9-1.2-5.9-1.1-2 0.1-3.9 0.6-5.7 1.4-2 0.8-3.6 2.4-4.7 4-2.2 3.3-3.5 6.8-4.6 10.4q-1.7 5.3-2.6 10.7-1.3 7-2.1 14.1-1.9-3.5-4-6.9c-2.9-4.4-6-8.9-10.6-12.4-2.3-1.7-5.2-3.1-8.4-3.2-3.2-0.1-6.2 0.9-8.6 2.4-1.2 0.8-2.3 1.4-3.5 2.6l-0.2 0.2-0.1 0.1q-1.1 1.2-1.8 2.5l-2.2-3.8-0.1-0.3c-12.8-22.2-12.7-53.1 16.2-72 33.1-21.6 69.7-9.7 93.5 8.9q-0.3 0.7-0.5 1.4c-1.6 4.5-2.7 9.1-3.5 13.7q-0.7 4.3-0.9 8.6c0 2.9-0.1 5.8 0.7 8.6-0.4-2.8 0.1-5.7 0.5-8.5 0.5-2.8 1.2-5.5 2-8.2 1.7-5.3 3.9-10.5 6.6-15.2v-0.1q0.4-0.8 0.9-1.6c5.1-8.5 8.2-9.6 9.7-9.5 2.6 0.3 5.1 4.8 6.9 9 1 2.5 1.8 4.8 2.3 6.1l1 2.9c-2.7 1.6-5 3.7-7 6-1.7 1.8-3.1 3.9-4.2 6.1-1.1 2.2-2 4.7-1.7 7.1 0.8-2.3 2.1-4.1 3.6-5.8 1.5-1.8 3.2-3.3 4.9-4.8 3.4-2.9 7.2-5.3 11.2-6.6 4-1.4 8.1-1.3 11.6 1 3.4 2.4 6 6.4 8.4 10.5-0.6-4.7-2.2-9.7-6.1-13.4-2-1.8-4.6-3-7.4-3.5-2.3-0.3-4.6-0.1-6.8 0.5q-0.6 0.2-1.1 0.3l-0.3 0.1q-1.1 0.4-2.2 0.9l0.5-1q0.3-0.6 0.7-1.3c16.5-31.8 54.1-64.9 66.6-62.8 2.4 0.3 4.1 1.4 5.3 3.3 5.5 8.4 0.7 31.6-5.3 55.5l-3.4 13.2 7.7-11.3c7.9-11.8 16.4-18 19.2-18.7 0.4 3.2-2.4 14.1-5.7 22.8v0.1l-1.5 3.7q-1.7 0.6-3.3 1.3c-6.4 3-12.1 7.1-16.9 12.2-4.7 5-8.7 11.1-10.2 17.7 3.4-5.9 7.8-10.8 12.8-15 2.5-2.1 5.1-4.1 7.8-5.9 2.7-1.8 5.6-3.4 8.5-4.7 5.8-2.7 12.1-4.3 18-2.5 5.9 1.7 10.7 6.6 13.4 12.8-0.7-6.7-5.2-13.5-12.2-16.3-3.4-1.5-7.3-1.8-10.9-1.4q-0.5 0.1-1.1 0.2 3.2-2.5 6.3-4.8c36.4-25.7 72.7-23.7 85-16.2 11.4 6.9 14.7 17.4 11.2 35.7-7.1-1.3-14.4-0.2-20.9 2.5q-3.1 1.4-5.9 3.1c-4.8 2.8-9 6.4-12.6 10.5-5.1 5.8-9.1 12.3-11.9 19.3-2.8 7-4.5 14.3-5.5 21.6 2-7.1 4.4-14.1 7.7-20.6 3.4-6.4 7.6-12.4 12.7-17.4 4.5-4.4 9.7-8.2 15.3-10.7q1.1-0.5 2.2-1c6.4-2.5 13.4-3.4 20.1-2.1 6.5 2.2 10.9 6.1 13.3 11.4 4.5 10.5 0.3 24.4-4 34.3l-1.1 2.5-2 4.5 6.6-4.1q1.1-0.7 2.4-1.2c5.5-2.5 12.8-3.6 13.3-3.6 5.1-0.4 10.1-0.5 15 0.2 4.9 0.6 9.7 1.9 13.8 4.3 4.1 2.3 7.6 5.6 10.2 9.7 2.5 4 4.3 8.8 5.1 13.5 1.6 9.4-1.2 19.4-5.6 28.3q-0.3 0.2-0.6 0.3 0.3 0 0.5 0l-0.1 0.2q-0.5 1.1-1.1 2.2-3 5.7-6.7 11c-3 4.3-6.2 8.4-9.6 12.2 7.8-6.8 14.7-14.8 20.1-23.9q0.2-0.4 0.4-0.8 2.4-0.6 4.9-0.7c3.3 0.4 6.6 1 9.9 1q2.3 0.7 4.3 1.8-1.6 2-2.9 4.3 1.9-2 3.9-3.7c1.7-1.5 3.5-2.9 5.4-4.1 3.3-2.1 7.1-3.6 10.6-3.3 3.5 0.4 6.3 2.5 8.2 5.7 1.9 3.2 3 7 3.7 10.8 0.8 3.8 0.9 7.7 0.7 11.7-0.2 3.9-0.9 7.8-1.8 11.7-1.9 7.8-4.8 15.5-8.5 22.9 4.8-5.8 8.5-12.4 11.2-19.5 0.9-0.3 1.9-0.6 3.1-0.9 7-2.3 18.9-6 30.9 6.3zm-87.1-44.9q0 0 0 0 0 0 0 0zm-214.9 10.6q-0.1 0.2-0.1 0.3 0-0.1 0.1-0.3zm230.4 4.6q-0.1 0.6-0.3 1.1 0.2-0.5 0.3-1.1zm-21.6-38.5c4.2-9.3 0-20.4-8.8-24.9-9-4.5-22.4-3-31.3 1.1-20.3 9.5-1.8 19.8 9 27 10 6.7 24.9 10.8 31.1-3.2zm-60.9-35.4c-2.9-11.7-9.2-25.3-21.3-26.5-8.3-0.9-16.1 4.8-20.5 11.9-4.5 7-6.4 15.3-9.1 23.2-1 3.1-2.3 6.4-4.7 8.6-2.5 2.2-6.4 3.1-9.1 1.2-3-2.2-3.1-6.5-3.4-10.2-1.5-16.7-15-31.6-31.4-34.6-16.5-3.1-34.4 5.9-41.7 21-1.5-17.9-16-34.6-33.9-36.4-17.8-1.8-36.2 13.4-35.9 31.4-1.8-9.1-11.4-16.7-20.3-14.1-7.5 2.2-11.8 10.5-12 18.3-0.1 7.9 3.1 15.3 6.2 22.5-6.4-8.6-15.8-17.3-26.4-15.6-8.2 1.3-14.3 8.6-16.7 16.5-2.4 7.9-1.9 16.3-1.3 24.5-8.8-9.7-17.9-19.3-26.4-29.4-2.3-2.8-4.1-7.8-8.5-6.7-6.6 1.6-3.8 11-2.1 14.9q3.2 7.7 6.5 15.4c3 7.4 6.2 14.8 11.7 20.7 5.4 5.8 13.7 9.6 21.4 7.7 7.2-1.8 12.8-10 10.6-16.9 3.6 7.9 14.6 10.9 23 7.9 8.9-3.1 15.3-10.9 20.3-18.9 5.1-7.9 9.5-16.5 16.4-22.8 5.5 12.5 17.4 22 30.9 24.5 13.4 2.6 27.9-1.8 37.7-11.4-0.4 9.4-0.7 18.8 1.4 27.9 0.6 2.5 1.5 4.9 2.5 7.3-3.2 0.2-6.4 0.7-9.3 1.7 5.2 0.3 10.3 0.8 15.1 2.1 4.9 1.2 9.4 3.1 13.5 5.7 4.2 2.6 7.8 6 11.2 9.7 3.4 3.7 6.4 7.8 9.6 12.1-1.2-4.4-3.1-8.7-5.5-12.6 6.7-1.5 13.2-4.7 18.5-9 11.2-9.4 18-22.8 24.5-35.8-0.3 8.7 3.7 17.5 10.5 23 6.8 5.5 16.2 7.6 24.7 5.5 12.3-3.1 21.3-14.4 24.5-26.7 3.3-12.2 1.7-25.2-1.2-37.6zm-268.9 46q0.4 0.7 0.6 1.4-0.3-0.7-0.6-1.4zm102.6-119.1c1.6 0.1 3.2-0.4 4.8-1q8.5-3.2 16.9-6.3c4.9-1.8 9.8-3.7 13.5-7.3q1.2-1.3 2.2-2.8v0.1q-0.2 2.6-0.5 5.2c0.8-1.7 0.9-3.5 0.5-5.2v-0.2c4.5-6.7 4.6-16 4.3-24.4q-0.7-0.5-1.5-0.8 0-0.3 0-0.5-0.3 0.1-0.7 0.2c-2.3-0.9-5.1-0.7-7.6 0-3.2 1-6 3-8.8 4.9-4.9 3.5-9.9 6.9-14.3 11-2.8 2-5.3 4.5-6.8 6.4-1 1.2-1.9 2.6-2.5 4.2-2.6 3.8-4.8 8.2-4.1 11.6 0.1 0.7 0.3 1.2 0.6 1.7 0.2 1.7 1.4 2.9 4 3.2zm99.5 40.2c0.4 2.5 1.2 5.5 3.7 6.2 2 0.6 4.1-0.7 5.8-2q16.5-12.5 33-25c19.6-14.8-0.2-25.3-17.4-24.4-8 0.5-16.1 3.6-21.1 9.9-7.6 9.6-6 23.2-4 35.3zm-241.5 107.6c-12.7-8.4-30.4 9.3-21.2 22.1 1.6 2.1 3.8 3.8 6.3 4.9 15.8 6.5 29-17.6 14.9-27zm27.5-149.5c-13.5-0.3-27 4.5-35.9 14.8-9.9 11.7-12.7 29-6.8 43.2 4-9 17.1-12.1 24.8-6 7.6-9.4 17.3-17.2 28.1-22.6 5.2-2.6 11.2-5.3 12.9-10.8 3.9-13-13.8-18.3-23.1-18.6zm441.2 216.8c-0.9-8.2-1.1-29.3-6.8-35.8-2.9-3.3-7.9-3.9-10.9-0.1-3.5 4.4 0.5 13.3 2.1 17.6q3.6 9.9 7.2 19.7c1 2.8 3.2 6.1 5.9 5.3 2.5-0.8 2.8-4.2 2.5-6.7z"/>
		<path id="path53180" class="s2" d="m874.2 576.1q2.2-0.2 4.4-0.7-1.1 1.2-2 2.4-2-1.1-4.3-1.8 1 0.1 1.9 0.1z"/>
		<path id="path53182" class="s2" d="m862.4 575q-2.5 0.1-4.9 0.7 0.3-0.5 0.6-1.1 2.1 0.1 4.3 0.4z"/>
		<path id="path53184" class="s2" d="m862 507.9c-3.1 3.9-8 9.5-8.3 14.9-1.9-1.8-3.9-3.3-6.2-4.5-1.4-0.9-2.9-1.5-4.4-2.1l46.5-75.4c-8.7 29.7-22.9 85.3-11.8 97.5 7.4 8.2 18.4 8.4 32.7 0.7-2.7 7.5-4 14.8-1 20.6 1.8 3.5 5 6.1 9.7 7.9l-12.7 8.5c-0.3-0.6-0.6-1.1-0.9-1.7-0.8-0.9-1.4-1.8-2.2-2.7l-1.3-1.2c-0.5-0.4-0.9-0.7-1.5-1l-1.6-0.9c-0.5-0.3-1.1-0.4-1.7-0.6-1.1-0.5-2.4-0.4-3.5-0.6q-1.6 0.1-3.1 0.4c-2.7-2.9-1.4-8.7 2.5-9.7-11.2 2.4-22.5-6.1-27.1-16.6-4.8-10.7-3.8-22.1-4.1-33.5z"/>
		<path id="path53186" class="s2" d="m291.1 654l-22.7-30.1c5.8 1.3 13.5 0.7 20.9-7.3 10.7-11.6 6.3-36.5 3.7-47.6 2.2 0.5 5.2 0.6 9.1-0.4 6.9-1.8 7.2-12.6 6.1-21.7l15.8 24.9q-1.2 1.2-2.4 2.5-1.2 1.5-2.3 3-3.2-3.5-6.3-6.9c1.7 3.3 1.1 7.8-1.4 10.6-2.5 2.8-6.9 3.9-10.4 2.5 3 9.1 4.1 18.8 3.1 28.3-0.5 3.8-1.7 7-3.8 10.1q0.4 0.1 0.9 0.3c-2.9 1-5.7 2.7-8.7 5.2-3.3 2.9-5.2 7-5.3 12-0.1 5.1 1.7 10.5 3.7 14.6z"/>
		<path id="path53188" class="s2" d="m355.6 553.7c-4.6-8.8-9.4-16.5-13-21.9 2.1 0.6 4.3 0.7 6.1-0.2 2.9-1.5 4.2-4.9 3.9-10.3-1-14.8-13.3-35.4-27.6-59.2q-4.1-6.7-8.1-13.6c6.7 8.1 14.3 17.9 21.7 27.4 22.2 28.6 36.1 46 43.4 48 11.7 3.2 13.5-2.9 16.3-12.2q0.5-1.6 1.1-3.5c1 3.4 2.3 7.2 3.9 11.3 2 5.6 4.4 11.5 6.9 17.3-4.2 0.9-8.4 2.1-12.2 3.8q-3.1-5-6.2-9.9c-4.3 2.8-10 3.4-14.9 1.7-3.8-1.3-7-4.1-9.1-7.6q-0.6-1.5-1.4-3 0.6 1.6 1.4 3c1.9 4.6 3 9.5 3 14.4 0 2.6-0.2 5.2-1.4 7.5-1.2 2.3-3.5 4.1-6.1 4.2-1 0-2-0.3-2.9-0.9q-1.1-1.9-2.1-3.8c-0.1 1.5 0.8 2.9 2.1 3.8q3.1 5.6 6.3 11.3c1 1.8 1.9 3 3 3.9-3.2-0.7-6.3-1.3-9.3-1.7-1.6-3.4-3.2-6.7-4.8-9.8z"/>
		<path id="path53190" class="s2" d="m766.4 425.5q-2.9-0.7-6.2-1.1l26.8-59.8c-0.3 9.1 0.3 20 4.4 23.9 1.4 1.4 3.2 1.9 5.2 1.6 6.7-1.1 28.4-22.8 43.7-38.9l-51.9 89.2c-1.3-2.4-3.1-4.6-5.4-6.7 3.8-10.5 9.6-20.3 17-28.7 2-1.6 3.9-3.5 5.4-5.6-1.9 1.8-3.6 3.7-5.4 5.6-1.3 1.1-2.7 2.1-4.1 2.9-3.4 1.9-7.5 3.2-11.2 1.9-3.7-1.2-6.4-5.7-4.7-9.1q-4.1 6.4-8.3 12.7c-1.6 2.4-6.7 7.8-5.9 10.9 0.1 0.4 0.3 0.8 0.6 1.2z"/>
		<path id="path53192" class="s2" d="m545.7 430c-7-26.7-9.9-48.8-11.1-63.6 6.3 20.6 17.6 48.9 30.9 48.3 4-0.2 13.2-0.7 37.4-90.2 2.4-8.7 4.6-17.5 6.8-25.9 4.2-16.7 7.8-32 10.4-43.3 0.1 9.4 0.1 19.4 0 29.1q0 6.3 0 12.5c-0.1 37.8 0.6 71.4 9.4 80.3q2.6 2.5 5.8 2.5c9.9 0 33-40.8 47.7-68.8-5.4 19.9-13.7 49.8-21.2 72.1-4-0.4-9.4 1.5-15.4 5 1.2-1.3 2.2-2.8 2.8-4.5-8.6 5.7-18.4 9.6-28.6 11.3-5 0.8-10.5 1-14.8-1.6-3.4-2.1-5.7-5.8-6.9-9.6-1.1-3.9-1.3-8-1.5-12-2.9 14.2-8.3 27.9-15.9 40.2-3.9 6.4-9.2 12.9-16.6 13.9-5.3 0.7-10.7-1.6-14.8-5.2-0.7-0.7-1.4-1.4-2.1-2.1 1.1 4.2 1.3 8.7 0.7 13-1-0.5-2-1-3-1.4z"/>
		<path id="path53194" class="s2" d="m430.6 510c-1.5 1-2.8 2.4-3.7 4q-0.6 1.1-0.9 2.3c-0.9-1.5-2-3.2-3.1-5-12.7-20.6-38.4-63-57.7-99.8q-2-3.8-3.8-7.4 1.4 2.4 2.9 4.7c18.1 29.9 35.2 58 55.3 57.1 2.6-0.2 4.7-1.4 6.3-3.5 5.1-7.1 3.4-23.6-0.2-38.5 9.2 5.5 16 7.9 21.7 5.7 4.2-1.7 7.5-5.9 10.2-13.2 1.6 5.9 4 14 6.8 21.4-6.4 5-11.2 10.6-14.7 16.6-2.9-0.1-5.7-1.5-7.5-3.7 3.2 11.5 0.6 24.6-6.8 34-1.5 1.9-3.2 3.7-5.4 4.4-2.3 0.7-5.2-0.2-6.1-2.3 2.6 5.7 5.1 16.3 9.7 20.6q0.4 0.3 0.8 0.6-1.5 0.5-2.8 1.3c-0.4 0.1-0.7 0.3-1 0.7z"/>
		<path id="path53196" class="s2" d="m986.5 562.1l38.5-32.9c-12.6 17.7-27.7 41.6-23.2 49.1 2 3.4 8.2 4.7 40-8.8 7.3-3.2 14.5-6.5 20.4-9.2-11.7 12.1-28 32-24.4 45.1 4.2 15.3 41.7 22.7 59.9 25.4l-46.3 18c3.1-8.2 2.2-14.6-2.7-19.1-4.2-3.9-11.3-3.8-16.5-3.1 5.9-9.1 6.5-15.1 2.5-21.6-2.3-3.6-8.6-8.1-17.8-10-8.8-1.9-22.3-1.7-39.5 7.2 12.2-17.4 15.5-31.5 9.1-40.1z"/>
		<path id="path53198" class="s1" d="m383 660.8c-1.7-5.6-5.2-10.7-8.6-15.6 2.2 5.6 4.5 11.3 8.6 15.6z"/>
		<path id="path53200" class="s1" d="m582.2 569.4q0.5-4.3 0.9-8.7c-0.6 2.9-0.9 5.8-0.9 8.7z"/>
		<path id="path53202" class="s1" d="m639.1 585.4c-1.5 4.8-2.7 9.6-3.7 14.5q-2 1-3.8 2.2c-3.6 2.4-6.6 5.4-9.3 8.6-5.3 6.6-9.2 14-12.2 21.6q-2.1 5.2-3.7 10.6c-0.5-4.1-1.6-8.2-3.4-12.1-2.4-4.6-5.7-9.1-11-11.4-2.6-1.1-5.6-1.4-8.5-0.9-2.8 0.6-5.4 1.7-7.7 3.4-4.4 3.2-7.7 7.3-10.7 11.5-3 4.3-5.4 8.8-7.5 13.5-2 4.7-3.7 9.6-4.8 14.7-1.2 5-1.6 10.1-1.6 15.3 0.2 4.2 0.9 8.5 2.2 12.5h-14c-2.4-9.5-3.2-19.5-2.9-29.5q0.2-8 1.4-16c0.4-2.6 0.8-5.3 1.4-7.9 0.6-2.6 1.3-5.2 2.3-7.7-1.2 2.4-2.1 5-2.9 7.6-0.7 2.5-1.4 5.2-2 7.8q-1.8 7.9-2.6 16c-1 9.8-1 19.8 0.6 29.7h-12c-1.2-3.6-1.9-7.5-2.3-11.4-0.5-4.5-0.6-9.1-0.6-13.7 0.1-4.6 0.3-9.2 0.8-13.8 0.5-4.6 1.2-9.2 2.6-13.6-1.8 4.3-2.9 8.9-3.8 13.4q-1.3 6.9-2 13.9c-0.4 4.6-0.6 9.3-0.5 14 0 3.7 0.3 7.5 1.1 11.2h-60.6c-4.6-11.8-7.8-24-9.8-36.3-1.6-11.3-2.3-22.7-1.2-34 2.9 14.3 8.3 26.6 21.1 35.1 13.9 7.3 32-0.3 41.2-13.1 9.1-12.8 11.3-29.2 12.1-44.9 2.8 12.3 12 22.9 23.7 27.5 0.8 0 1.7-0.1 2.5 0 4.2 0.5 6.1 2.1 10.2-0.2 8.8-5.1 15.1-15.6 18.6-24.8 3.6-9.3 5.2-19.3 6.4-29.3 0 7.6 2.1 15.2 6.6 21.3 6.1 8.5 16.6 13.9 27 13 10.5-0.8 20.3-8.2 23.3-18.3z"/>
		<path id="path53204" fill-rule="evenodd" class="s1" d="m860.8 647.2q-1.2 2.2-2.3 4.5c-2.6 4.8-5.2 9.5-8.1 14.1-2.9 4.5-6 9-9.4 13.1-3.2 3.9-6.6 7.6-10.5 10.5h-276.7c-0.5-4.2-0.6-8.3-0.2-12.5 0.1-1.2 0.3-2.4 0.4-3.6q0.2-1.9 0.7-3.7l0.7-3.6 1-3.5c1.5-4.7 3.1-9.3 5.3-13.7 2.1-4.5 4.5-8.8 7.3-12.7 2.7-4 5.8-7.8 9.5-10.6 1.7-1.4 3.8-2.4 5.8-3 2.1-0.4 4.3-0.3 6.4 0.4 4.1 1.4 7.6 5 10.2 9.1 2.3 3.5 4 7.6 5.2 11.7q-1.7 6-2.9 12c3.4-7.4 6.7-14.8 10.2-21.9 3.7-7.1 7.6-14.1 12.5-20.1 2.5-3 5.4-5.9 8.5-8.1-1.2 8.5-1.2 17.1 0.9 25.4 3.7 15 15.7 28.8 31 30.5 10.6 1.1 21.1-3.6 29.2-10.5 5.7-4.8 10.3-10.6 14.7-16.6 2.1-3.8 4-7.7 5.7-11.7 6.4-15.4 9.5-32 12.6-48.4 2.2 8.4 1.3 17.2 0.6 25.8-0.8 8.5-1.3 17.4 1.6 25.6 2.9 8.1 10.2 15.3 18.8 15.4 9.3 0.1 16.7-7.5 22.2-15.1 14.3-19.5 24.2-42.3 28.6-66.2q-4.4 30.9-8.7 61.7c-1.2 8.6-2 18.6 4.3 24.6 7.1 6.7 18.9 4 27.6-0.5 21.6-11.2 38.4-31.3 45.7-54.5-4.4 14.2-9 28.4-14.5 42.1-0.1 1-0.2 1.9-0.2 2.8 0.3 4.5 2.4 9 6.3 11.2zm8.7-57.2q-0.1 0.6-0.3 1.1 0.2-0.5 0.3-1.1zm-284 42.6c-8.6 1.7-17.7 20.4-14.3 27.9 1.6 3.4 6 4.9 9.6 4 3.7-1 6.6-4 8.3-7.3 3.3-6.6 9.3-27.1-3.6-24.6z"/>
		<path id="path53206" class="s1" d="m424.7 641.4c1.3 2.4 2.8 4.8 4.7 6.9 0.6 7.7 1.6 15.5 3.7 23.1 1.1 3.8 2.4 7.6 4 11.2 1 2.4 2.2 4.6 3.5 6.8h-13.1c-1.9-2.4-3.6-5.1-5-8-1.7-3.2-3.1-6.5-4.4-10-1.2-3.4-2.3-6.9-3.2-10.5-0.8-3.6-1.5-7.2-1.5-10.9-0.4 3.7-0.1 7.4 0.4 11.1q0.7 5.6 2.1 11c0.9 3.6 2 7.2 3.3 10.8 0.9 2.2 1.8 4.4 3 6.5h-61.4c-0.2-0.4-0.3-0.9-0.6-1.3-3.1-6-10.5-13.2-15.3-18.1 4.5 4.7 9.3 9.4 15.2 12.1 6 2.7 13.5 2.8 18.6-1.3 5.1-4.2 6.4-11.7 4.9-18.1q-0.3-1-0.6-1.9l0.4 0.4c4.3 4.4 11.2 6.9 16.8 4.4 7.2-3.1 9.2-12.2 10.2-20q2.5-18.5 4.9-36.9c0.7 11.4 3.9 22.6 9.4 32.7z"/>
		<path id="path53208" class="s1" d="m936.8 686.6q0 1.4 0 2.8h-75.9c3.3-3.8 5.9-7.9 8.2-12.2 3.3-5.9 5.9-12 8.2-18.3 2.3-6.2 4.2-12.5 6-18.9 1.7-6.4 3.2-12.9 4.4-19.4-1.6 6.4-3.5 12.8-5.6 19-2.1 6.3-4.4 12.4-7 18.4-2.7 6.1-5.6 12-9.1 17.4-3.3 5.2-7 10.2-11.6 14h-17.2c2.4-2.6 4.6-5.5 6.7-8.3 3.2-4.6 5.9-9.3 8.5-14.2 2.6-4.8 4.9-9.7 7.1-14.7q1-2.3 2-4.6c5.1 2.3 11.3 0 15.2-4.1 4-4.1 6.1-9.6 8.3-14.8 2.3-5.3 3.7-11.9 5.4-19.7-0.3 7.3-1.3 14.4-2 20.4q-0.3 2.3-0.5 4.3c-0.6 6.7 1.7 14.1 7.3 17.7 6.8 4.4 14.3 1.4 20.3-6.3-6.9 9.2-10.3 19.6-5.4 29 4.8 9.5 16.4 14.9 26.7 12.5z"/>
		<path id="path53210" class="s1" d="m444 653.7c2.5 12.5 6.9 24.6 13.1 35.7h-11.1c-2.1-2.6-4-5.4-5.7-8.4-1.9-3.3-3.5-6.8-4.9-10.4-2.8-7.1-4.6-14.6-6-22.3 2.2 2.4 4.7 4.4 7.7 5.4 2.2 0.7 4.7 0.6 6.9-0.1z"/>
		<path id="path53212" class="s1" d="m984.8 676.3c0.8-5.6 1.1-11.1 0.9-16.7-0.6 5.5-1.7 11-3.2 16.2-1.4 4.8-3.2 9.4-5.5 13.6h-11.6c2.4-7 3.9-14.2 4.8-21.4 0.6-5.9 0.9-11.7 0.9-17.5 3.1-1.8 5.7-4.6 6.9-7.9 2.4-7 2.9-10 5.2-16.5-0.2 7.8 0 16.1 1.1 21.7 1.4 6.7 1.8 9.3 5.9 13.3 3.9 3.9 7.2 4.4 12.6 3.3 5.4-1.1 7.8-4.4 10.3-9.9-1.1 3.9-0.7 8.8-0.3 13.7-0.9 0.7-1.8 1.5-2.6 2.5-4.3 5.2-6.2 11.2-11.9 16.2q-1.3 1.2-2.7 2.5h-13.8c1.5-4.3 2.4-8.7 3-13.1z"/>
		<path id="path53214" class="s1" d="m967.9 651.9q1.2-0.4 2.4-1c-0.5 5.6-1.3 11.2-2.5 16.7-1.6 7.6-4 15-7.2 21.8h-5.8c3.6-11.3 5.1-24.6 3.9-37.3q0.3-2.2 0.6-4.4c-0.3 4 5.6 5.1 8.6 4.2z"/>
		<path id="path53216" class="s3" d="m306.3 477.3c4.3 5.7 8.5 11.4 12.6 17.3 4 5.8 8 11.8 11.5 18-5.1-5-9.8-10.4-14.5-15.8-4.6-5.4-9-11-13.4-16.6-3.8-5-7.6-10.1-11.2-15.3q-0.7-1-1.4-1.9c-4-5.9-8-11.8-11.5-18.1 5.1 5.1 9.9 10.4 14.5 15.8q0.5 0.7 1.1 1.4c4.2 5 8.3 10.1 12.3 15.2z"/>
		<path id="path53218" class="s3" d="m278 417.3c-5.9-9.5-11.6-19-16.9-28.8 6.9 8.7 13.5 17.7 20 26.7 6.5 9.1 12.7 18.3 18.9 27.6q2.6 4 5.3 8.1c4.3 6.6 8.5 13.3 12.7 20 5.7 9.6 11.6 19.1 16.5 29.1-6.6-9-13.3-17.9-19.6-27-4.4-6.2-8.7-12.5-13-18.8q-2.9-4.4-5.9-8.8c-6.1-9.3-12.1-18.6-18-28.1z"/>
		<path id="path53220" class="s3" d="m303.1 317.6c-2.4-9-4.2-18.2-5.3-27.5 2.3 9.3 5.2 18.5 8.3 27.5q2.4 7.1 5 14.2 7.6 20.5 16.1 40.6c5.7 13.5 11.7 26.7 17.8 40q0.7 1.3 1.3 2.6c2.7 5.7 5.5 11.4 8.3 17 3.4 6.5 6.7 13 10.8 19l-3.5-4.2-3.2-4.4c-2.1-3-4.1-6.1-6.1-9.2q-4.8-7.9-9.1-16c-0.6-1-1.2-2.1-1.8-3.2-6.9-12.9-13.1-26.2-18.8-39.7-5.7-13.6-10.9-27.3-15.3-41.3q-2.5-7.6-4.5-15.4z"/>
		<path id="path53222" class="s3" d="m287.5 317.6q-0.3-1.7-0.5-3.5c0.3 1.2 0.8 2.4 1.1 3.5 3.2 10.2 7.4 19.9 11.8 29.5 5 10.7 10.4 21.2 16.1 31.6 5.5 10.4 11.4 20.7 17.3 31l6.1 10.8 11.5 20.1c-4.8-5.9-9.3-12.1-13.6-18.3q-3.7-5.3-7.2-10.7c-3.3-4.9-6.4-10-9.5-15.1-3-5.1-6-10.3-8.8-15.6-2.8-5.2-5.5-10.5-8.1-15.9-2.5-5.4-5.1-10.8-7.2-16.4-3.9-10-7.3-20.3-9-31z"/>
		<path id="path53224" class="s3" d="m411.8 297.5c-2-12-3.7-24.2-3.7-36.4 2 12 4.6 23.9 7.4 35.7q2.4 10.4 5 20.8 1.8 7.3 3.6 14.6l6.8 27.1 2.1 8.3c3 11.8 5.8 23.6 9.1 35.4-2.7-5.5-4.8-11.3-6.9-17-2-5.8-4-11.6-5.8-17.4q-1.1-3.6-2.2-7.3-4.2-13.9-7.7-27.9-1.9-7.9-3.7-15.8c-1.4-6.6-2.8-13.3-4-20.1z"/>
		<path id="path53226" class="s3" d="m420.4 263.3c-1.9-13.5-3.4-27.1-3.7-40.8 2.1 13.5 4.8 26.8 7.4 40.1q4 20 8.1 39.9l3.1 15.1 5.1 24.9c0.7 3.6 1.4 7.1 2.1 10.7q2.9 14.7 5.5 29.4-4.5-13.9-8.3-27.9-1.5-5.7-2.9-11.4c-2.2-8.5-4.2-17.1-6.2-25.7q-1.5-7-3-14.1-2-10-3.9-20.1c-1.1-6.7-2.3-13.4-3.3-20.1z"/>
		<path id="path53228" class="s3" d="m490.1 221.2c-0.6-19.8-0.6-39.6 0.5-59.4 0.7 19.8 2 39.5 3.2 59.2 1.4 19.8 2.7 39.5 4.2 59.2l2.8 37.4 0.7 9.8 0.9 11.9 2.3 29.6c0.7 9.9 1.5 19.7 2.7 29.6-4.1-19.5-6.4-39.2-8.7-58.8q-0.6-5.4-1.2-10.8c-0.4-3.7-0.7-7.5-1-11.3q-1.8-18.5-3.3-37.1c-1.3-19.7-2.5-39.5-3.1-59.3z"/>
		<path id="path53230" class="s3" d="m569.7 334.4q-2.2 21.5-5.3 43 0.3-21.7 1.6-43.3 0.4-8.2 1-16.5 0.3-5.2 0.7-10.4 0.6-8.1 1.2-16.3c1.2-14.3 2.4-28.7 3.9-43.1q2.2-21.5 5.3-42.9-0.4 21.6-1.6 43.2c-0.8 14.4-1.8 28.8-2.9 43.2q-0.6 7.4-1.2 14.8-0.5 5.8-1.1 11.5-0.7 8.4-1.6 16.8z"/>
		<path id="path53232" class="s3" d="m578.1 339.5c0.6-7.3 1.3-14.6 2.1-21.9q0.7-6.8 1.5-13.6c0.4-4 0.8-8.1 1.3-12.1 1.9-15.9 4.1-31.7 6.3-47.5 2.3-15.8 4.7-31.5 7.4-47.3q3.8-23.6 8.6-47.1-2.1 23.9-5 47.6c-1.9 15.9-4 31.7-6.3 47.5-2.3 15.8-4.6 31.6-7.3 47.3-0.6 3.6-1.2 7.3-1.9 10.9q-1.2 7.2-2.5 14.3-2 11-4.2 21.9z"/>
		<path id="path53234" class="s3" d="m696.5 343.7c2.4-8.8 5-17.4 7.7-26.1q1.1-3.6 2.2-7.2 3.4-10.4 6.8-20.8c1.4-4.1 2.8-8.2 4.2-12.2 3.8-11 7.8-21.9 12.2-32.6-2.5 11.3-5.5 22.5-8.7 33.7-1 3.7-2.1 7.4-3.2 11.2q-3.3 11-6.7 22.1-1 2.9-1.9 5.8c-2.9 9.1-5.9 18.2-9.1 27.2-3.8 10.9-7.8 21.8-12.2 32.6 2.5-11.4 5.5-22.6 8.7-33.7z"/>
		<path id="path53236" class="s3" d="m728.7 289.8q2.6-7.1 5.4-14.2c3.8-9.6 7.7-19.1 11.8-28.6 4.1-9.4 8.3-18.8 13-28.1-2.8 10-6.1 19.8-9.6 29.5-3.4 9.7-7.1 19.3-10.8 29q-2.5 6.2-5.1 12.5-3.2 8.1-6.7 16.1-2.5 5.8-5.2 11.6c-2.5 5.6-5.1 11-7.9 16.5 1.6-5.6 3.4-11 5.2-16.5q2.1-6.5 4.4-13 2.7-7.5 5.5-14.8z"/>
		<path id="path53238" class="s3" d="m757.2 374.2c2.5-9.8 5.5-19.4 8.7-28.9 3-9.3 6.3-18.5 9.6-27.7q0.1-0.4 0.3-0.8 4.4-11.8 9.1-23.6c0.6-1.5 1.2-3 1.8-4.5 3.8-9.3 7.8-18.5 12.2-27.6-2.6 9.7-5.6 19.4-8.7 28.9q-0.6 1.8-1.3 3.7c-2.6 8-5.5 16-8.4 23.9q-0.1 0.4-0.2 0.9c-3.6 9.4-7.1 18.8-11 28.1-3.8 9.3-7.7 18.5-12.1 27.6z"/>
		<path id="path53240" class="s3" d="m798.9 294.8c2.9-6.1 5.9-12.3 9-18.3-2 6.3-4.2 12.5-6.4 18.7q-2.6 7.1-5.3 14.2c-1.1 2.8-2.2 5.5-3.3 8.2q-4.8 12.2-9.7 24.2c-4.6 10.7-9.2 21.4-14 32-4.8 10.6-9.8 21.1-15.2 31.5 3.6-11.2 7.6-22.1 11.8-33 4.1-10.8 8.5-21.6 13-32.3q4.7-11.2 9.6-22.4c1.5-3.2 2.9-6.4 4.4-9.6q3-6.6 6.1-13.2z"/>
		<path id="path53242" class="s3" d="m857.6 389.7c5.1-9.3 10.4-18.5 16.1-27.5-3.9 9.9-8.3 19.6-12.8 29.2-4.5 9.6-9.2 19.1-14 28.5-4.9 9.5-9.8 18.9-14.9 28.1-5.2 9.3-10.4 18.5-16.1 27.5 3.9-9.9 8.3-19.5 12.8-29.1 4.5-9.7 9.2-19.2 14-28.6 4.8-9.4 9.7-18.8 14.9-28.1z"/>
		<path id="path53244" class="s3" d="m867.2 413.1c4.1-8 8.4-15.9 12.8-23.7 4.5-7.9 9-15.6 13.7-23.3 4.8-7.6 9.6-15.2 14.9-22.5-3.5 8.3-7.5 16.4-11.6 24.4-4.1 8-8.5 15.8-12.8 23.7-4.5 7.8-9 15.6-13.8 23.2-4.7 7.6-9.6 15.2-14.8 22.5 3.5-8.3 7.5-16.3 11.6-24.3z"/>
		<path id="path53246" class="s3" d="m903.3 388.9c5.3-7.5 10.8-15 16.6-22.2-4.2 8.3-8.8 16.3-13.5 24.3-4.7 7.9-9.6 15.7-14.6 23.5-5.1 7.7-10.2 15.4-15.5 22.9-5.4 7.6-10.8 15.1-16.7 22.3 4.2-8.3 8.8-16.3 13.6-24.3 4.7-7.9 9.6-15.7 14.6-23.5 5-7.7 10.2-15.4 15.5-23z"/>
		<path id="path53248" class="s3" d="m1002 467.4c3.7-4.1 7.4-8.1 11.3-12 3.9-3.9 7.9-7.7 12.3-11.2-2.9 4.8-6.1 9.3-9.5 13.6-3.3 4.4-6.9 8.5-10.5 12.7-3.6 4.1-7.3 8.1-11.2 12-3.9 3.9-8 7.7-12.4 11.2 2.9-4.8 6.1-9.2 9.5-13.6 3.3-4.3 6.9-8.5 10.5-12.7z"/>
		<path id="path53250" class="s3" d="m1014.2 499c5.8-7.1 12.1-13.7 18.5-20.2 6.3-6.6 12.9-12.9 19.5-19.2 6.6-6.2 13.3-12.4 20.2-18.4 6.9-6 13.9-11.8 21.2-17.4-6 7-12.3 13.6-18.6 20.1-6.4 6.5-13 12.9-19.6 19.1-6.6 6.3-13.3 12.4-20.2 18.4-6.8 6.1-13.8 11.9-21 17.6z"/>
		<path id="path53252" class="s3" d="m1051.1 479.8c7.6-6.3 15.4-12.5 23.4-18.4-6.7 7.3-13.8 14.3-20.9 21.1-7.2 6.9-14.5 13.6-21.9 20.2-7.5 6.5-14.9 13-22.6 19.3-7.6 6.3-15.4 12.5-23.4 18.4 6.7-7.3 13.8-14.3 21-21.2 7.1-6.8 14.5-13.5 21.8-20.1 7.5-6.5 14.9-13 22.6-19.3z"/>
		<path id="path53254" class="s3" d="m1118.9 578.5c-5.6 1.7-11.3 3.3-17.2 4.5 5.2-3 10.5-5.6 15.9-8 5.4-2.4 10.9-4.6 16.4-6.7 5.5-2 11.1-4 16.7-5.8 3.9-1.1 7.8-2.3 11.7-3.2q2.7-0.7 5.5-1.2-2.7 1.5-5.5 3-5.1 2.6-10.4 4.9c-5.3 2.4-10.8 4.6-16.3 6.7-5.6 2.1-11.1 4.1-16.8 5.8z"/>
		<path id="path53256" class="s3" d="m1082.2 604.8c5-2.7 10.1-5.1 15.2-7.2 5.1-2.2 10.3-4.1 15.6-6 5.2-1.7 10.5-3.5 15.9-4.9 5.4-1.5 10.8-2.8 16.4-3.7-5 2.7-10 5-15.2 7.2-5.1 2.2-10.3 4.1-15.6 5.9-5.2 1.8-10.5 3.5-15.9 5-5.4 1.5-10.8 2.8-16.4 3.7z"/>
		<path id="path53258" fill-rule="evenodd" class="s2" d="m439.4 581.4c-8.4 6-18 12.4-28.2 10.9-9.8-1.4-17.7-10.9-17.4-20.8 0.8-22.9 26.7-21.1 42.1-16.6 6.2 1.9 13.1 5.8 13.5 12.2 0.4 6.1-5.1 10.8-10 14.3zm-32.7-23.3c-1.2-0.4-2.5-0.1-3.5 0.6l0.3-0.6c-2.8 2.1-5.7 4.4-6.7 7.7-1.1 3.3 0.6 7.7 4.1 8 2.3 0.2 4.4-1.4 5.9-3.2 1.6-1.9 3.1-4.1 3.3-6.5 0.2-2.5-1.1-5.2-3.4-6z"/>
		<path id="path53260" class="s2" d="m342.4 585.2c-7.1 5.7-11.3 14.9-11 24-5-5.6-6.9-13.9-4.8-21.1 1.5-5.4 8.8-16.3 15.5-15.9 10.4 0.7 4.9 9.3 0.3 13z"/>
		<path id="path53262" class="s2" d="m309.4 640.2c-0.7 2.8-3.9 4.8-6.8 4.2q-1.1-0.2-2-0.8c-2.5-1.6-3.3-5.3-1.6-7.7 1.6-2.5 5.3-3.3 7.7-1.6l-1.2-1.2c2.9 0.9 4.7 4.2 3.9 7.1z"/>
		<path id="path53264" class="s2" d="m343.3 633.9c-12.8-2.9-10.1 23-4.6 28.1-7-6.4 13-26.2 4.6-28.1z"/>
		<path id="path53266" class="s2" d="m463.8 617.8c-2.5-1.1-4.7-2.8-6.3-4.9-9.2-12.8 8.5-30.5 21.2-22.1 14.1 9.4 0.9 33.5-14.9 27z"/>
		<path id="path53268" fill-rule="evenodd" class="s2" d="m529.3 459.9c-1.7 5.5-7.7 8.2-12.9 10.8-10.8 5.4-20.5 13.2-28.1 22.6-7.7-6.1-20.8-3-24.8 6-5.9-14.2-3.1-31.5 6.8-43.2 8.9-10.3 22.4-15.1 35.9-14.8 9.3 0.3 27 5.6 23.1 18.6zm-51.1-6c-7.9 3.3-13.6 15.7-15.9 23.3-0.8 2.3-1.3 4.8-0.7 7.2 0.7 2.4 3.1 4.4 5.5 4 2-0.3 3.4-2.1 4.5-3.8q5.5-7.9 11-15.8c4.5-6.5 7.4-20-4.4-14.9z"/>
		<path id="path53270" class="s2" d="m620.7 443c-2.6-0.3-3.8-1.5-4-3.2-0.3-0.5-0.5-1-0.6-1.7-0.7-3.4 1.5-7.8 4.1-11.6q-0.2 0.6-0.3 1.2c-0.3 2 0.3 4.3 2.1 5.4 2.6 1.7 6 0.1 8.6-1.6 5.3-3.2 22.4-10.2 14-17.6-4.4-3.8-10.3-1.5-15.1 2 4.4-4.1 9.4-7.5 14.3-11 2.8-1.9 5.6-3.9 8.8-4.9 2.5-0.7 5.3-0.9 7.6 0q0.4-0.1 0.7-0.2 0 0.2 0 0.5 0.8 0.3 1.5 0.8c0.3 8.4 0.2 17.7-4.3 24.4v0.2-0.1q-1 1.5-2.2 2.8c-3.7 3.6-8.6 5.5-13.5 7.3q-8.4 3.1-16.9 6.3c-1.6 0.6-3.2 1.1-4.8 1z"/>
		<path id="path53272" class="s2" d="m658.1 425.7q-0.2 2.6-0.5 5.2c0.8-1.7 0.9-3.5 0.5-5.2z"/>
		<path id="path53274" fill-rule="evenodd" class="s2" d="m720.2 483.2c-2-12.1-3.6-25.7 4-35.3 5-6.3 13.1-9.4 21.1-9.9 17.2-0.9 37 9.6 17.4 24.4q-16.5 12.5-33 25c-1.7 1.3-3.8 2.6-5.8 2-2.5-0.7-3.3-3.7-3.7-6.2zm7.4-17.7q6.8-3.6 13.7-7.2c2.4-1.3 4.8-2.6 6.7-4.6 1.8-2 3-4.8 2.3-7.5-0.8-2.6-3.8-4.6-6.3-3.5l1.8-1.7c-11.4 1.3-20.2 13.3-18.2 24.5z"/>
		<path id="path53276" fill-rule="evenodd" class="s2" d="m816.8 554.7c-10.8-7.2-29.3-17.5-9-27 8.9-4.1 22.3-5.6 31.3-1.1 8.8 4.5 13 15.6 8.8 24.9-6.2 14-21.1 9.9-31.1 3.2zm25.8-13.7c-2.6-4.9-10.7-5.3-13.7-0.7l4.8-1.2c-3.7 1.1-5.6 6-3.8 9.5 1.8 3.4 6.7 4.7 10.1 2.6 3.3-2 4.5-6.8 2.6-10.2z"/>
		<path id="path53278" fill-rule="evenodd" class="s2" d="m944.3 531.2c-1.8 2.4-3.8 4.7-6.5 6-2.7 1.2-6.1 1.3-8.4-0.6-3.3-2.6-3-7.5-2.5-11.7q1.3-10.1 2.6-20.1c0.7-4.7 1.3-9.5 3.2-13.7 2-4.3 5.4-8.2 10-9.4 25-6.7 7.6 41.6 1.6 49.5zm6.6-31c1.8-4.5-0.9-10.2-5.3-12.1l-0.3-0.1q-0.8-0.3-1.7-0.4l1.7 0.4 0.3 0.1c-6.9 1.6-11.2 9.9-8.6 16.4 4.6 3.1 11.8 0.9 13.9-4.3z"/>
		<path id="path53280" fill-rule="evenodd" class="s0" d="m589.1 657.2c-1.7 3.3-4.6 6.3-8.3 7.3-3.6 0.9-8-0.6-9.6-4-3.4-7.5 5.7-26.2 14.3-27.9 12.9-2.5 6.9 18 3.6 24.6zm-2.5-21.7c-3.9-2-9.3 1.4-9.3 5.7l0.8-0.3c-0.7 1.1-1 2.5-0.5 3.8 1.2 3.3 5.6 4.6 8.7 2.9 4.4-2.3 4.7-9.8 0.3-12.1z"/>
		<path id="path53282" class="s2" d="m940.6 622.3c5.7 6.5 5.9 27.6 6.8 35.8 0.3 2.5 0 5.9-2.5 6.7-2.7 0.8-4.9-2.5-5.9-5.3q-3.6-9.8-7.2-19.7c-1.6-4.3-5.6-13.2-2.1-17.6 3-3.8 8-3.2 10.9 0.1z"/>
		<path id="path53284" class="s2" d="m1008 623.7q-11.9-2.3-23.9-4.6c5.7-8.9 22.3-17.3 33.1-13 14.4 5.7 3.7 20.1-9.2 17.6z"/>
		<path id="path53286" class="s2" d="m977 575.2c-12.1-7.4-10.1 25.9-14 27.3 6.5-2.3 25-20.6 14-27.3z"/>
		<path id="path53288" class="s2" d="m913.1 517.5c-0.2 2.5-1.2 5.4-3.7 5.9-2.5 0.4-4.4-2.2-5.6-4.4-3.4-6-19.8-27.2-6.6-29.8 13.4-2.7 16.8 19.9 15.9 28.3z"/>
		<path id="path53290" class="s2" d="m586.3 647.6c-3.1 1.7-7.5 0.4-8.7-2.9-0.5-1.3-0.2-2.7 0.5-3.8l-0.8 0.3c0-4.3 5.4-7.7 9.3-5.7 4.4 2.3 4.1 9.8-0.3 12.1z"/>
		<path id="path53292" class="s4" d="m945.6 488.1l-0.3-0.1z"/>
		<path id="path53294" class="s4" d="m945.3 488q-0.8-0.3-1.7-0.4z"/>
		<path id="path53296" class="s4" d="m937 504.5c-2.6-6.5 1.7-14.8 8.6-16.4 4.4 1.9 7.1 7.6 5.3 12.1-2.1 5.2-9.3 7.4-13.9 4.3z"/>
		<path id="path53298" class="s4" d="m410.1 564.1c-0.2 2.4-1.7 4.6-3.3 6.5-1.5 1.8-3.6 3.4-5.9 3.2-3.5-0.3-5.2-4.7-4.1-8 1-3.3 3.9-5.6 6.7-7.7l-0.3 0.6c1-0.7 2.3-1 3.5-0.6 2.3 0.8 3.6 3.5 3.4 6z"/>
		<path id="path53300" fill-rule="evenodd" class="s2" d="m787 516.1c2.9 12.4 4.5 25.4 1.2 37.6-3.2 12.3-12.2 23.6-24.5 26.7-8.5 2.1-17.9 0-24.7-5.5-6.8-5.5-10.8-14.3-10.5-23-6.5 13-13.3 26.4-24.5 35.8-5.3 4.3-11.8 7.5-18.5 9-0.4-0.6-0.8-1.2-1.2-1.8-3-4.5-6.9-8.4-11.5-11.4-4.7-2.9-10-4.8-15.4-5.4-2.2-0.2-4.4-0.2-6.5-0.1-1-2.4-1.9-4.8-2.5-7.3-2.1-9.1-1.8-18.5-1.4-27.9-9.8 9.6-24.3 14-37.7 11.4-13.5-2.5-25.4-12-30.9-24.5-6.9 6.3-11.3 14.9-16.4 22.8-5 8-11.4 15.8-20.3 18.9-8.4 3-19.4 0-23-7.9 2.2 6.9-3.4 15.1-10.6 16.9-7.7 1.9-16-1.9-21.4-7.7-5.5-5.9-8.7-13.3-11.7-20.7q-3.3-7.7-6.5-15.4c-1.7-3.9-4.5-13.3 2.1-14.9 4.4-1.1 6.2 3.9 8.5 6.7 8.5 10.1 17.6 19.7 26.4 29.4-0.6-8.2-1.1-16.6 1.3-24.5 2.4-7.9 8.5-15.2 16.7-16.5 10.6-1.7 20 7 26.4 15.6-3.1-7.2-6.3-14.6-6.2-22.5 0.2-7.8 4.5-16.1 12-18.3 8.9-2.6 18.5 5 20.3 14.1-0.3-18 18.1-33.2 35.9-31.4 17.9 1.8 32.4 18.5 33.9 36.4 7.3-15.1 25.2-24.1 41.7-21 16.4 3 29.9 17.9 31.4 34.6 0.3 3.7 0.4 8 3.4 10.2 2.7 1.9 6.6 1 9.1-1.2 2.4-2.2 3.7-5.5 4.7-8.6 2.7-7.9 4.6-16.2 9.1-23.2 4.4-7.1 12.2-12.8 20.5-11.9 12.1 1.2 18.4 14.8 21.3 26.5zm-268.9 46q0.3 0.7 0.6 1.4-0.2-0.7-0.6-1.4zm151.8-64.3c-6.6 2.1-12.3 7.3-14.9 13.7-1.5 3.9-1.3 9.5 2.6 11 2.3 0.9 4.8-0.1 7-1q7.8-3.3 15.7-6.5c2.9-1.3 6-2.6 8-5.1 9.5-11.6-11.6-14.2-18.4-12.1zm-82.9-5.7c-3.2 4.9-3.8 12.6 1.2 15.8 4.7 3.1 10.9 0 15.5-3.3 22-16.2-3.6-33.1-16.7-12.5zm-31.2 6.6c-0.8-0.2-1.6-0.1-2.3 0.1l0.1-0.2c-1.8 0.3-3.1 1.8-3.7 3.5q-0.1 0.3-0.2 0.6l-0.1 0.4q-0.1 0.4-0.1 0.8 0 0.3 0 0.6v0.2h0.1c0.1 0.7 0.2 1.3 0.6 1.9 1.9 2.9 6.7 3 8.7 0.2 2-2.8 0.2-7.4-3.1-8.1zm-2.4 46.8c-2.5-9.9-13-17-23.1-15.7l5.9-0.8c-8-1.2-16 6.4-15.6 14.5 0.5 8.2 9 14.8 17 13.4 6.6-1.1 11.6-6.3 15.8-11.4zm198.4-41.1c-3.5 5-4.9 11.1-6.2 17-0.8 3.3-1.1 7.6 1.9 9.3 2.8 1.5 6.2-0.7 8.6-2.9 4.5-4 9.1-8.1 11.7-13.5 7-14.5-6.3-23.5-16-9.9z"/>
		<path id="path53302" class="s1" d="m684.3 594.9c0.4 0.6 0.8 1.2 1.2 1.8 2.4 3.9 4.3 8.2 5.5 12.6-3.2-4.3-6.2-8.4-9.6-12.1-3.4-3.7-7-7.1-11.2-9.7-4.1-2.6-8.6-4.5-13.5-5.7-4.8-1.3-9.9-1.8-15.1-2.1 2.9-1 6.1-1.5 9.3-1.7 2.1-0.1 4.3-0.1 6.5 0.1 5.4 0.6 10.7 2.5 15.4 5.4 4.6 3 8.5 6.9 11.5 11.4z"/>
		<path id="path53304" class="s4" d="m482.6 468.8q-5.5 7.9-11 15.8c-1.1 1.7-2.5 3.5-4.5 3.8-2.4 0.4-4.8-1.6-5.5-4-0.6-2.4-0.1-4.9 0.7-7.2 2.3-7.6 8-20 15.9-23.3 11.8-5.1 8.9 8.4 4.4 14.9z"/>
		<path id="path53306" class="s4" d="m553.4 545.5c-4.2 5.1-9.2 10.3-15.8 11.4-8 1.4-16.5-5.2-17-13.4-0.4-8.1 7.6-15.7 15.6-14.5l-5.9 0.8c10.1-1.3 20.6 5.8 23.1 15.7z"/>
		<path id="path53308" class="s4" d="m649.2 383.5c-0.6 1.7-1.6 3.2-2.8 4.5-17.5 10.2-40.8 34.1-53.7 57.1-2.9-7.1-6.3-12.8-11.5-13.3-4.4-0.4-8.9 3.1-13.8 11.1-5.6-4.3-11.9-8.2-18.7-11.5 0.6-4.3 0.4-8.8-0.7-13 0.7 0.7 1.4 1.4 2.1 2.1 4.1 3.6 9.5 5.9 14.8 5.2 7.4-1 12.7-7.5 16.6-13.9 7.6-12.3 13-26 15.9-40.2 0.2 4 0.4 8.1 1.5 12 1.2 3.8 3.5 7.5 6.9 9.6 4.3 2.6 9.8 2.4 14.8 1.6 10.2-1.7 20-5.6 28.6-11.3z"/>
		<path id="path53310" class="s4" d="m603.7 504.6c-4.6 3.3-10.8 6.4-15.5 3.3-5-3.2-4.4-10.9-1.2-15.8 13.1-20.6 38.7-3.7 16.7 12.5z"/>
		<path id="path53312" class="s4" d="m688.3 509.9c-2 2.5-5.1 3.8-8 5.1q-7.9 3.2-15.7 6.5c-2.2 0.9-4.7 1.9-7 1-3.9-1.5-4.1-7.1-2.6-11 2.6-6.4 8.3-11.6 14.9-13.7 6.8-2.1 27.9 0.5 18.4 12.1z"/>
		<path id="path53314" class="s4" d="m767.8 514.3c-2.6 5.4-7.2 9.5-11.7 13.5-2.4 2.2-5.8 4.4-8.6 2.9-3-1.7-2.7-6-1.9-9.3 1.3-5.9 2.7-12 6.2-17 9.7-13.6 23-4.6 16 9.9z"/>
		<path id="path53316" class="s4" d="m727.6 465.5c-2-11.2 6.8-23.2 18.2-24.5l-1.8 1.7c2.5-1.1 5.5 0.9 6.3 3.5 0.7 2.7-0.5 5.5-2.3 7.5-1.9 2-4.3 3.3-6.7 4.6q-6.9 3.6-13.7 7.2z"/>
		<path id="path53318" class="s4" d="m619.9 427.7q0.1-0.6 0.3-1.2c0.6-1.6 1.5-3 2.5-4.2 1.5-1.9 4-4.4 6.8-6.4 4.8-3.5 10.7-5.8 15.1-2 8.4 7.4-8.7 14.4-14 17.6-2.6 1.7-6 3.3-8.6 1.6-1.8-1.1-2.4-3.4-2.1-5.4z"/>
		<path id="path53320" class="s4" d="m842.6 541c1.9 3.4 0.7 8.2-2.6 10.2-3.4 2.1-8.3 0.8-10.1-2.6-1.8-3.5 0.1-8.4 3.8-9.5l-4.8 1.2c3-4.6 11.1-4.2 13.7 0.7z"/>
		<path id="path53322" class="s4" d="m558.9 506.8c-2 2.8-6.8 2.7-8.7-0.2-0.4-0.6-0.5-1.2-0.6-1.9h-0.1v-0.2q0-0.3 0-0.6 0-0.4 0.1-0.8l0.1-0.4q0.1-0.3 0.2-0.6c0.6-1.7 1.9-3.2 3.7-3.5l-0.1 0.2c0.7-0.2 1.5-0.3 2.3-0.1 3.3 0.7 5.1 5.3 3.1 8.1z"/>
		<path id="path53324" class="s4" d="m805.4 399.4c-1.9 1.8-3.6 3.7-5.4 5.6 2-1.6 3.9-3.5 5.4-5.6z"/>
		<path id="path53326" class="s4" d="m800 405c-7.4 8.4-13.2 18.2-17 28.7q-2.3-2.1-5.3-4c-3-1.8-6.8-3.2-11.3-4.2-0.3-0.4-0.5-0.8-0.6-1.2-0.8-3.1 4.3-8.5 5.9-10.9q4.2-6.3 8.3-12.7c-1.7 3.4 1 7.9 4.7 9.1 3.7 1.3 7.8 0 11.2-1.9 1.4-0.8 2.8-1.8 4.1-2.9z"/>
		<path id="path53328" class="s4" d="m862.4 575q-2.2-0.3-4.3-0.4c2.2-4 4.1-8.3 5.3-12.8 0.8-2.6 1.3-5.3 1.5-8 0.3-2.7 0.3-5.5 0-8.3-0.4-2.7-1.1-5.4-2-8-0.9-2.6-2-5.1-3.4-7.5-1.6-2.7-3.6-5.1-5.8-7.2 0.3-5.4 5.2-11 8.3-14.9 0.3 11.4-0.7 22.8 4.1 33.5 4.6 10.5 15.9 19 27.1 16.6-3.9 1-5.2 6.8-2.5 9.7-3.5 0.7-6.5 2.6-9.1 4.7-1.1 0.9-2.1 2-3 3q-2.2 0.5-4.4 0.7-0.9 0-1.9-0.1c-3.3 0-6.6-0.6-9.9-1z"/>
		<path id="path53330" class="s4" d="m854 574.8q0.3-0.1 0.6-0.3l-0.1 0.3q-0.2 0-0.5 0z"/>
		<path id="path53332" class="s4" d="m449.7 454.4c-9.9 17-8.6 36.8-0.9 53.3-5.5-1.3-10.5-1.1-14.4 0.3q-0.4-0.3-0.8-0.6c-4.6-4.3-7.1-14.9-9.7-20.6 0.9 2.1 3.8 3 6.1 2.3 2.2-0.7 3.9-2.5 5.4-4.4 7.4-9.4 10-22.5 6.8-34 1.8 2.2 4.6 3.6 7.5 3.7z"/>
		<path id="path53334" class="s4" d="m360.4 550q-1.1-1.9-2.1-3.8c-0.1 1.5 0.8 2.9 2.1 3.8z"/>
		<path id="path53336" class="s4" d="m391.8 530.7q3.1 4.9 6.2 9.9c-3.6 1.5-6.9 3.3-9.9 5.5-7 5.3-11.3 12.1-12.7 20.4-2-0.5-3.8-0.9-5.7-1.3-1.1-0.9-2-2.1-3-3.9q-3.2-5.7-6.3-11.3c0.9 0.6 1.9 0.9 2.9 0.9 2.6-0.1 4.9-1.9 6.1-4.2 1.2-2.3 1.4-4.9 1.4-7.5 0-4.9-1.1-9.8-3-14.4 2.1 3.5 5.3 6.3 9.1 7.6 4.9 1.7 10.6 1.1 14.9-1.7z"/>
		<path id="path53338" class="s4" d="m367.8 524.8q-0.6-1.5-1.4-3 0.6 1.6 1.4 3z"/>
		<path id="path53340" class="s4" d="m313 570.4q3.1 3.4 6.3 6.9c-9.9 14-6.5 28.6 3 46.6-8.5-2.8-14.8-3.9-20.9-1.7q-0.5-0.2-0.9-0.3c2.1-3.1 3.3-6.3 3.8-10.1 1-9.5-0.1-19.2-3.1-28.3 3.5 1.4 7.9 0.3 10.4-2.5 2.5-2.8 3.1-7.3 1.4-10.6z"/>
		<path id="path53342" class="s1" d="m1033 631.3c4.4-0.6 9.8-0.6 12.4 1.9 5.7 5.2 3.3 14.9-7.2 28.9l-3.1 4.1 5.1-0.3c26.4-1.5 43.9 7.5 51.4 16.5 2.6 3 8.2 5.3 14.8 7h-96.7-14.1q1.4-1.3 2.7-2.5c5.7-5 7.6-11 11.9-16.2 0.8-1 1.7-1.8 2.6-2.5 2.7-2 5.9-3.1 9-5.5 9.3-7.1 14.4-20 11.2-31.4z"/>
		<path id="path53344" class="s1" d="m951.4 606.4q-1.5 7.3-3.1 14.6c-1.2-1.7-2.4-3.2-3.8-4.7-14-14.2-27.9-9.9-35.6-7.5 0.8-3 1.4-6.1 1.8-9.3 0.3-4.3 0.3-8.6-0.5-12.9-0.5-2.1-1-4.2-1.7-6.2l4.3-2.9c0.1 0.5 0.1 1 0.5 1.8 1.5 3.6 2.7 6.7 6.3 8.9 4.9 2.9 11.7 2.2 16-1.5-4.3 4.4-4.6 12-0.7 16.8 3.8 4.8 11.3 6.1 16.5 2.9z"/>
		<path id="path53346" class="s0" d="m461.3 550.7q0.7 0.1 1.3 0.3 0.7 1.7 1.5 3.4c2.1 4.8 4.6 9.4 7.3 13.8q1.2 2.1 2.6 4.1c0.4 1.3 0.8 2.4 1.1 3.2q0.9 0.5 1.8 0.9c0.5 0.7 1 1.4 1.5 2.1q-1-0.1-2.1-0.1-0.2 0-0.5-0.1c-3.5-0.7-7.2-0.1-10.7 0.8-1.7 0.6-3.4 1.2-5 2-1.7 0.9-3.2 1.9-4.6 3.2-2.5 2.2-4.5 4.9-6.2 7.8q-1 1.3-1.9 2.8c8.8-14.5 9.8-28.4 13.9-44.2z"/>
		<path id="path53348" class="s1" d="m471.4 564.7c-1-2.7-2.2-5.4-3.4-7.7q1.6 3.9 3.4 7.7z"/>
		<path id="path53350" class="s1" d="m481.3 578.8q-1.2-0.2-2.5-0.3-0.4-0.8-0.9-1.5 1.7 0.9 3.4 1.8z"/>
		<path id="path53352" fill-rule="evenodd" class="s3" d="m188 694.2l1.7-3.4c10.9-22.6 40.7-24.2 56.7-23.2-5.4-3.8-11.5-9-12.4-13.7-0.3-2 0.1-3.9 1.4-5.5 4.6-5.5 26.8-1.4 44.1 2.8q2.3 0.6 4.4 1.1l-36.1-47.9 14.7 11.8c0.5 0.3 12.1 9.2 23.3-2.9 11.9-12.7 1.3-48 1.2-48.3l-4.4-14.6 8.6 12.5c0.1 0.1 2.5 3 9.7 1.1 4.5-1.1 3.2-17 0.6-28.1l-3.4-14 29.6 46.8q2.3-1.7 4.9-2.9-5.4-8.3-10.7-16.7c-5.7-9.4-11.4-18.7-16.9-28.3-5.4-9.5-10.8-19.1-15.7-28.9 6.6 8.8 12.8 17.8 18.9 27 6.1 9.1 12 18.4 17.8 27.7q5.4 8.8 10.7 17.7c2.9-0.9 6.1-1.4 9.3-1.6q4.2-0.3 8.8 0.1-1.4-3-2.9-5.8c-9.1-17.7-19.1-30.9-19.3-31.1l-12.8-16.7 16.2 13.5c3.2 2.6 8.6 5.7 10.6 4.7 1-0.5 1.4-2.7 1.2-5.8-0.8-13.6-12.9-33.8-26.9-57.1-3.6-5.9-7.2-12-10.8-18.2-2.6-4.5-5.1-8.9-7.6-13.5l-6.4-11.8 10 8.9c3 2.6 6.4 6.2 10.2 10.6 7.6 8.7 16.6 20.4 26.1 32.5 15.4 19.9 34.6 44.6 40.9 46.3 7.2 2 7.6 0.5 10.4-8.9 1-3.2 2.1-7.1 3.9-11.6l3.3-8.7 1.2 9.3c0.6 4 2.6 10.5 5.4 18 2.2 5.9 4.8 12.3 7.5 18.6 5.8-0.8 11.5-1 16.8-0.7-2.1-2.6-4.1-5.8-5.2-9.1-0.7-1-3.8-5.9-8.4-13.4-13.7-22.4-41.5-68.4-60.9-106.3-5.9-11.5-11.1-22.3-14.8-31.4l-7.3-18 11.4 15.7c6.3 8.6 12.4 18.3 18.3 28q1.7 2.8 3.4 5.6c16.4 26.9 33.3 54.7 50.4 54.7q0.3 0 0.7 0c1.1 0 1.9-0.5 2.6-1.5 3.8-5.3 2.9-21.9-2.4-40.2l-1.7-6.1 5.3 3.4c10.3 6.6 17.6 10.4 22.5 8.5 4-1.6 7.1-7.4 9.8-18.2l2.4-9.4 2.2 9.5c1.4 5.8 4.6 17.6 8.4 27.9q0.3-0.3 0.7-0.6c18.2-11.9 37.4-14.2 55.2-11.1q-1.5-6.5-2.8-13c-3.7-17.9-6.5-35.9-8.9-54q-2-15.8-3.5-31.7-0.3-3.5-0.6-7c-0.5-5.2-0.9-10.5-1.2-15.8-1.1-18.2-1.5-36.6 0-54.8l0.2 6.9c0.1 2.2 0.1 4.5 0.2 6.8 0.3 4.5 0.5 9.1 0.9 13.6 0.7 9.1 1.5 18.1 2.4 27.2q0.8 8.1 1.7 16.1 0.3 2.8 0.6 5.6 1.9 16.2 4 32.5 3.5 27 7.8 54l2.3 13.4 0.2 0.9q6.4 1.4 12.5 3.7c-12.3-48.9-11.2-81.8-11.2-82.2l0.7-17.6 4 17.2c5.8 25.2 19.4 64.8 31.3 64.8h0.3c1.6-0.1 10.8-4.6 33-86.6q0.8-2.8 1.5-5.7c1.6-6.1 3.2-12.2 4.7-18.1 8.8-34.3 15.2-63.5 15.2-63.9l3.9-17.8 0.8 18.2c0.7 14.4 0.6 31.7 0.5 48.4q0 5.9-0.1 11.8c0 7.2 0 14.4 0.1 21.4 0.4 26.8 2 50.3 8 56.2 1 1.1 1.9 1.2 2.4 1.2 5.1 0 21.9-26.4 38.7-57.4 4.8-8.9 9.7-18.2 14.2-27.3q0.3-0.7 0.6-1.3l10.1-20.1-5.5 21.2-0.1 0.6c-0.3 1.2-3.1 12.1-7.2 26.9-5.3 19.7-12.8 46.2-19.7 66.8 1.8 0.9 3.4 2.2 4.6 4.1 5.4 8.2 3.5 24.7-2.1 48.4 6.3-7 12.9-11.9 16.8-11.9 1.4-0.1 2.6 0.5 3.4 1.6 2.2 3.1-0.3 13.1-2.6 20.2 24.6-17.8 49.9-23.6 68.6-22.8l39.7-88.4-2 15.8c-1.4 11.8-1.8 30 1.9 33.6 0.3 0.4 0.7 0.5 1.2 0.4 5.5-0.9 32.6-27.9 55.4-52.9l13.5-14.9 1.6-1.7-1 1.7-74.6 128.1c2.6 7.9 1.8 16.7 0.2 25.2q3.3 1.3 5.9 3.2 4.5-9.6 9.1-19.2c5.8-11.8 11.6-23.5 17.6-35.1q9-17.4 18.8-34.5-7.3 18.3-15.4 36.1c-5.4 12-11 23.8-16.7 35.6q-4.9 10-9.9 20 3 3.2 4.8 7.2c4.4 10.1 2 22.4-1.7 32.5 3.8-1.4 7.7-2.2 10-2.6 0.6-16 8.2-30.3 15.7-37.6 2.3-2.3 5.8-4.9 9-4.9h0.2c1.9 0 3.6 1 4.9 2.6 1.9 2.5 2.8 6.3 2.5 10.9 5.3-4.1 10.8-7.1 16.5-9.1l43.3-70.2-6.1 18.8c-4.6 14.3-9.6 31.8-13.6 48.6 13.6 1.6 24.6 8 30.2 13.2 5.5-7.1 23.6-26.7 45.4-13.4 5.9 3.6 9.5 8.9 11.3 15.2q2-2.7 3.9-5.4c5.7-7.8 11.4-15.5 17.3-23.1 5.9-7.6 12-15.1 18.4-22.3-4.8 8.4-10 16.5-15.4 24.5-5.3 8-10.8 15.8-16.4 23.6q-3.3 4.4-6.5 8.8c2.9 22.5-10.2 53.4-17.4 68.2 7.5-4.2 18.9-8.8 26.4-3.7l72.8-62.2-14.4 18.5c-19.4 24.9-38.4 54.9-35.7 60.6 4.8 2.4 38.7-11.6 67.7-26.1l16.1-8.1-13.5 12c-10.7 9.4-37.5 37-33.7 50.7 3.7 13.5 48.2 21.3 65 23.1l9.7 1.1-56.6 22-12 4.6q-1.6 2.9-3.7 6c25.5-0.3 42.7 9.1 50.5 18.4 4.7 5.6 29.6 9.1 44.2 10l-0.1 4.8zm753.1-74.5c-12.1-12.3-23.9-8.6-31-6.3-1.1 0.3-2.1 0.6-3.1 0.9-2.6 7.1-6.3 13.7-11.1 19.5 3.6-7.4 6.5-15.1 8.5-22.9 0.8-3.9 1.5-7.8 1.8-11.7 0.1-4 0.1-7.9-0.7-11.7-0.8-3.8-1.9-7.6-3.7-10.8-1.9-3.2-4.8-5.3-8.2-5.7-3.5-0.3-7.3 1.2-10.6 3.3-1.9 1.2-3.7 2.6-5.4 4.1q-2 1.7-3.9 3.7 1.3-2.3 2.9-4.3 0.9-1.2 2-2.4c0.9-1 1.9-2.1 3-3 2.6-2.1 5.6-4 9.1-4.7q1.5-0.3 3-0.4c1.2 0.2 2.4 0.1 3.6 0.6 0.6 0.2 1.2 0.3 1.7 0.6l1.6 0.9c0.5 0.3 1 0.6 1.4 1l1.4 1.2c0.8 0.9 1.4 1.8 2.1 2.7 0.4 0.6 0.7 1.1 1 1.7l12.7-8.5c-4.7-1.8-8-4.4-9.8-7.9-3-5.8-1.6-13.1 1-20.6-14.2 7.7-25.2 7.5-32.6-0.7-11.1-12.2 3.1-67.8 11.7-97.5l-46.4 75.4c1.5 0.6 3 1.2 4.4 2.1 2.2 1.2 4.3 2.7 6.1 4.5 2.3 2.1 4.3 4.5 5.8 7.2 1.5 2.4 2.6 4.9 3.5 7.5 0.9 2.6 1.6 5.3 1.9 8 0.4 2.8 0.4 5.6 0.1 8.3-0.2 2.7-0.8 5.4-1.5 8-1.3 4.5-3.1 8.8-5.3 12.8q-0.3 0.6-0.6 1.1-0.2 0.4-0.4 0.8c-5.4 9.1-12.3 17.1-20.2 23.9 3.5-3.8 6.7-7.9 9.6-12.2q3.8-5.3 6.8-11 0.5-1.1 1.1-2.2l0.1-0.2 0.1-0.3c4.3-8.9 7.2-18.9 5.5-28.3-0.7-4.7-2.6-9.5-5.1-13.5-2.5-4.1-6-7.4-10.1-9.7-4.2-2.4-8.9-3.7-13.8-4.3-4.9-0.7-9.9-0.6-15-0.2-0.5 0-7.8 1.1-13.3 3.6q-1.3 0.5-2.5 1.2l-6.5 4.1 2-4.5 1.1-2.5c4.3-9.9 8.5-23.8 3.9-34.3-2.3-5.3-6.8-9.2-13.3-11.4-6.6-1.3-13.6-0.4-20.1 2.1q-1 0.5-2.1 1c-5.7 2.5-10.8 6.3-15.4 10.7-5.1 5-9.3 11-12.7 17.4-3.2 6.5-5.7 13.5-7.6 20.6 0.9-7.3 2.6-14.6 5.4-21.6 2.9-7 6.9-13.5 11.9-19.3 3.6-4.1 7.9-7.7 12.7-10.5q2.8-1.7 5.9-3.1c6.4-2.7 13.8-3.8 20.8-2.5 3.5-18.3 0.3-28.8-11.1-35.7-12.3-7.5-48.7-9.5-85 16.2q-3.2 2.3-6.3 4.8 0.5-0.1 1.1-0.2c3.6-0.4 7.5-0.1 10.9 1.4 7 2.8 11.5 9.6 12.2 16.3-2.7-6.2-7.6-11.1-13.5-12.8-5.9-1.8-12.1-0.2-17.9 2.5-3 1.3-5.8 2.9-8.5 4.7-2.8 1.8-5.4 3.8-7.8 5.9-5 4.2-9.5 9.1-12.9 15 1.6-6.6 5.5-12.7 10.3-17.7 4.8-5.1 10.5-9.2 16.9-12.2q1.6-0.7 3.3-1.3l1.4-3.7 0.1-0.1c3.3-8.7 6-19.6 5.7-22.8-2.8 0.7-11.3 6.9-19.3 18.7l-7.6 11.3 3.4-13.2c6-23.9 10.8-47.1 5.3-55.5-1.2-1.9-3-3-5.3-3.3-12.6-2.1-50.1 31-66.7 62.8q-0.3 0.7-0.7 1.3l-0.5 1q1.1-0.5 2.3-0.9l0.2-0.1q0.6-0.1 1.2-0.3c2.2-0.6 4.5-0.8 6.8-0.5 2.7 0.5 5.4 1.7 7.3 3.5 4 3.7 5.6 8.7 6.1 13.4-2.4-4.1-4.9-8.1-8.4-10.5-3.4-2.3-7.5-2.4-11.5-1-4 1.3-7.8 3.7-11.3 6.6-1.7 1.5-3.3 3-4.8 4.8-1.5 1.7-2.9 3.5-3.7 5.8-0.2-2.4 0.7-4.9 1.8-7.1 1.1-2.2 2.5-4.3 4.1-6.1 2.1-2.3 4.4-4.4 7-6l-0.9-2.9c-0.5-1.3-1.3-3.6-2.3-6.1-1.8-4.2-4.3-8.7-7-9-1.5-0.1-4.5 1-9.6 9.5q-0.5 0.8-1 1.6v0.1c-2.7 4.7-4.9 9.9-6.5 15.2-0.8 2.7-1.5 5.4-2 8.2-0.5 2.8-0.9 5.7-0.6 8.5-0.7-2.8-0.7-5.7-0.6-8.6q0.2-4.3 0.9-8.6c0.7-4.6 1.9-9.2 3.5-13.7q0.2-0.7 0.5-1.4c-23.8-18.6-60.4-30.5-93.5-8.9-28.9 18.9-29 49.8-16.3 72l0.2 0.3 2.2 3.8q0.7-1.3 1.7-2.5l0.2-0.1 0.1-0.2c1.3-1.2 2.3-1.8 3.6-2.6 2.4-1.5 5.4-2.5 8.6-2.4 3.2 0.1 6.1 1.5 8.4 3.2 4.6 3.5 7.7 8 10.5 12.4q2.2 3.4 4.1 6.9 0.7-7.1 2-14.1 1-5.4 2.6-10.7c1.2-3.6 2.4-7.1 4.7-10.4 1.1-1.6 2.7-3.2 4.7-4 1.8-0.8 3.7-1.3 5.7-1.4 2-0.1 4 0.2 5.8 1.1 1.8 0.8 3.4 1.9 4.8 3.1 2.8 2.5 5.1 5.5 7.1 8.5 2.1 3 4 6.1 5.8 9.3q-3.2-4.5-6.6-8.7c-2.3-2.8-4.7-5.5-7.5-7.6-2.7-2.2-6-3.5-9.2-3.1-1.6 0.2-3.2 0.7-4.7 1.4-1.4 0.7-2.4 1.8-3.3 3.2-1.7 2.8-2.8 6.2-3.7 9.6-0.9 3.4-1.6 6.9-2.2 10.4-1.1 7.1-1.8 14.3-2.2 21.4l-0.4 8.3-3.9-7.4c-2.3-4.5-4.8-9-7.5-13.3-2.8-4.1-5.8-8.3-9.4-11.1-1.8-1.4-3.8-2.3-5.8-2.4-2.1-0.1-4.1 0.6-6.2 1.7-0.9 0.5-2.1 1.3-2.7 1.9q-1.1 1-1.8 2.4c-0.9 2-1.3 4.3-1.3 6.7-0.1 4.9 0.7 9.9 1.9 14.8 1.3 4.9 2.9 9.8 4.7 14.6q0.7 1.8 1.4 3.6 1.6 3.9 3.4 7.7 3 6.3 6.6 12.3 0.4 0.7 0.9 1.5 0.2 0.3 0.4 0.6c2.3 0.7 4.5 1.7 6.5 3 3 1.9 5.6 4.1 7.9 6.7 2.3 2.5 4.4 5.3 6 8.2-4.2-5.2-9.1-10-15-12.9-5.8-3.1-12.5-3.5-18.4-1.5-1.4 0.7-2.9 1.2-4.3 2-1.3 0.8-2.5 1.7-3.6 2.7-2.2 2.2-4 4.8-5.5 7.6-3 5.7-4.7 12.1-5.7 18.6q-0.4 2.8-0.7 5.6c-1.1 11.3-0.5 22.7 1.2 34 1.9 12.3 5.2 24.5 9.8 36.3h60.5c-0.7-3.7-1-7.5-1.1-11.2-0.1-4.7 0.2-9.4 0.6-14q0.7-7 2-13.9c0.9-4.5 2-9.1 3.8-13.4-1.5 4.4-2.1 9-2.6 13.6-0.5 4.6-0.8 9.2-0.8 13.8-0.1 4.6 0.1 9.2 0.6 13.7 0.4 3.9 1.1 7.8 2.3 11.4h12c-1.6-9.9-1.6-19.9-0.6-29.7q0.8-8.1 2.6-16c0.6-2.6 1.2-5.3 2-7.8 0.8-2.6 1.6-5.2 2.9-7.6-1.1 2.5-1.7 5.1-2.3 7.7-0.6 2.6-1 5.3-1.5 7.9q-1.1 8-1.3 16c-0.4 10 0.5 20 2.8 29.5h14c-1.2-4-2-8.3-2.1-12.5 0-5.2 0.4-10.3 1.6-15.3 1.1-5.1 2.7-10 4.8-14.7 2-4.7 4.5-9.2 7.4-13.5 3.1-4.2 6.3-8.3 10.8-11.5 2.2-1.7 4.9-2.8 7.7-3.4 2.8-0.5 5.8-0.2 8.4 0.9 5.3 2.3 8.7 6.8 11 11.4 1.8 3.9 3 8 3.5 12.1q1.6-5.4 3.6-10.6c3.1-7.6 6.9-15 12.2-21.6 2.7-3.2 5.8-6.2 9.4-8.6q1.8-1.2 3.8-2.2c2.5-1.3 5.2-2.3 8-2.8 8.6-1.6 17.1 1.1 24 5.4-7.7-2.6-15.8-3.8-23.2-1.8-3.5 1-6.8 2.7-9.8 4.9-3.2 2.2-6 5.1-8.5 8.1-5 6-8.9 13-12.5 20.1-3.6 7.1-6.8 14.5-10.2 21.9q1.2-6 2.9-12c-1.3-4.1-2.9-8.2-5.2-11.7-2.6-4.1-6.1-7.7-10.3-9.1-2.1-0.7-4.2-0.8-6.3-0.4-2.1 0.6-4.1 1.6-5.9 3-3.6 2.8-6.7 6.6-9.4 10.6-2.9 3.9-5.3 8.2-7.3 12.7-2.2 4.4-3.8 9-5.3 13.7l-1 3.5-0.8 3.6q-0.4 1.8-0.6 3.7c-0.2 1.2-0.4 2.4-0.5 3.6-0.4 4.2-0.2 8.3 0.3 12.5h276.6c3.9-2.9 7.4-6.6 10.6-10.5 3.4-4.1 6.4-8.6 9.3-13.1 2.9-4.6 5.6-9.3 8.1-14.1q1.2-2.3 2.3-4.5c1.7-3.4 3.4-6.7 4.9-10.2-1.3 3.6-2.7 7.1-4.1 10.6q-1 2.3-2 4.6c-2.2 5-4.5 9.9-7.1 14.7-2.6 4.9-5.3 9.6-8.5 14.2-2.1 2.8-4.3 5.7-6.8 8.3h17.3c4.5-3.8 8.3-8.8 11.6-14 3.5-5.4 6.4-11.3 9-17.4 2.7-6 5-12.1 7.1-18.4 2.1-6.2 4-12.6 5.6-19-1.2 6.5-2.7 13-4.5 19.4-1.7 6.4-3.7 12.7-6 18.9-2.3 6.3-4.9 12.4-8.1 18.3-2.4 4.3-5 8.4-8.2 12.2h88.9c8.7-25.4 5-55.7-8.7-69.7zm-484.1 69.7c-6.1-11.1-10.5-23.2-13-35.7l-0.1-0.1c-2.7-13.4-3.5-27.2-1.5-40.9 0.6-3.4 1.4-6.8 2.4-10.2 1-3.3 2.3-6.6 4-9.7q0.2-0.4 0.4-0.7c1.7-2.9 3.8-5.6 6.3-7.8 1.3-1.3 2.9-2.3 4.5-3.2 1.7-0.8 3.4-1.4 5-2 3.6-0.9 7.2-1.5 10.8-0.8q0.2 0.1 0.5 0.1 1.2 0.3 2.5 0.6-0.2-0.2-0.4-0.5c-0.6-0.7-1.1-1.4-1.6-2.1q-1.5-2-2.9-4.1-1.3-2-2.6-4.1c-2.6-4.4-5.1-9-7.3-13.8q-0.7-1.7-1.4-3.4c-1.6-3.6-3-7.4-4.1-11.3-1.5-5-2.7-10.2-2.7-15.7 0-2.8 0.3-5.6 1.5-8.4v-0.1l-4.6-1.7c-11.7-4.3-19.3-1.9-21.6 2.5-3.7 6.7 4.4 17.4 8.9 20.2l10.1 6.5-11.8-2.1c-7-1.3-15.7-1.3-24.1 0-8.6 1.4-17 4.3-23.2 9-6 4.5-9.6 10.2-10.9 17.1q-0.3 1.3-0.4 2.6c-0.4 4.8-0.2 9.6 0.9 14.2 1 4.8 2.8 9.3 5.2 13.6 5 8.5 12.4 15.6 21.1 20.6-9-4.3-17.2-10.9-23.1-19.3-2.9-4.3-5.2-9-6.7-14-1.3-4.3-2-8.9-2.1-13.4-1.1-0.3-2.1-0.5-3.1-0.7-4.2-1-8.2-1.8-11.8-2.3-7.4-1.1-13.6-1.3-19-0.3-6.3 1.2-11.4 4.2-15.9 9.4-9.5 11.3-9.6 22.9 0.4 42.5 1.2 2.3 2.4 4.7 3.9 7.2l2.1 3.8c0.7-0.7 1.3-1.2 2-1.7 1.2-1.1 2.6-1.9 4-2.8 2.8-1.5 5.9-2.8 9.1-3.3 3.3-0.6 6.6-0.7 9.8-0.1 6.4 1.3 12 4.7 16.1 9.3-5.4-3-11-5.1-16.6-5.6-5.6-0.3-11.2 1-16.1 3.8-2.4 1.4-4.8 3.1-6.3 5-1.7 2.1-2.8 4.6-3.5 7.3-1.5 5.4-0.9 11.4 1 17.3-3.6-5-5.6-11.5-4.6-18 0.4-3.2 1.6-6.4 3.5-9.3q0.2-0.2 0.3-0.4l0.3-0.4-4-1.5c-16-6-22.4-6.7-30.8 0.5-2.3 2-3.6 4.9-3.7 8.5-0.1 6.8 3.8 14.3 6 16.8l0.4 0.3 7.2 6.8-0.6-0.1-7.2-2.2-1.7-0.5c-25.2-7.3-54.1-12.8-57.2-9.1-0.3 0.4-0.4 0.9-0.3 1.5 0.9 4.6 12 12.2 18.9 16l12.7 6.9-14.3-2.5c-0.4-0.1-44.5-7.5-60.1 16h226.2c-1.1-2.1-2-4.3-2.9-6.5-1.4-3.6-2.5-7.2-3.4-10.8q-1.3-5.4-2.1-11c-0.4-3.7-0.7-7.4-0.3-11.1 0 3.7 0.7 7.3 1.5 10.9 0.9 3.6 2 7.1 3.2 10.5 1.3 3.5 2.7 6.8 4.3 10 1.5 2.9 3.2 5.6 5 8h13.2c-1.3-2.2-2.5-4.4-3.5-6.8-1.6-3.6-2.9-7.4-4-11.2-2.1-7.6-3.2-15.4-3.7-23.1l-0.1-0.2 0.1 0.2c1.3 7.7 3.2 15.2 6 22.3 1.4 3.6 3 7.1 4.8 10.4 1.8 3 3.7 5.8 5.8 8.4zm-166-35.4c-2-4.1-3.8-9.5-3.6-14.6 0.1-5 1.9-9.1 5.2-12 3-2.5 5.8-4.2 8.7-5.2 6.1-2.2 12.5-1.1 21 1.7-9.6-18-13-32.6-3.1-46.6q1.1-1.5 2.4-3 1.1-1.3 2.3-2.5l-15.7-24.9c1 9.1 0.7 19.9-6.2 21.7-3.8 1-6.8 0.9-9.1 0.4 2.7 11.1 7.1 36-3.7 47.6-7.4 8-15.1 8.6-20.8 7.3zm64.4-100.3c1.7 3.1 3.3 6.4 4.8 9.7 3 0.5 6.2 1.1 9.3 1.8 1.9 0.4 3.8 0.8 5.7 1.2 1.5-8.2 5.8-15 12.8-20.3 2.9-2.2 6.3-4 9.8-5.5 3.9-1.7 8-2.9 12.2-3.8-2.4-5.8-4.8-11.7-6.9-17.3-1.5-4.1-2.9-8-3.9-11.3q-0.6 1.9-1.1 3.5c-2.7 9.2-4.6 15.3-16.2 12.2-7.3-2-21.3-19.4-43.4-48-7.5-9.6-15.1-19.3-21.7-27.4q4 6.9 8 13.6c14.3 23.8 26.7 44.4 27.6 59.2 0.4 5.3-0.9 8.8-3.8 10.3-1.9 0.9-4 0.8-6.2 0.2 3.7 5.4 8.4 13.1 13 21.9zm75-43.8q0.5-0.3 1-0.6 1.3-0.8 2.9-1.3c3.9-1.4 8.8-1.6 14.4-0.3-7.8-16.5-9-36.4 0.9-53.3 3.4-6 8.3-11.6 14.7-16.6-2.8-7.4-5.2-15.5-6.8-21.4-2.7 7.3-6 11.5-10.2 13.2-5.8 2.2-12.5-0.3-21.7-5.7 3.6 14.9 5.2 31.4 0.1 38.4-1.5 2.2-3.7 3.4-6.2 3.6-20.1 0.9-37.3-27.3-55.4-57.1q-1.4-2.3-2.9-4.7 1.9 3.6 3.8 7.4c19.4 36.8 45 79.2 57.7 99.8 1.2 1.8 2.2 3.5 3.1 5q0.4-1.2 1-2.3c0.9-1.6 2.1-3 3.6-4.1zm115.2-80c1 0.5 2 1 3 1.5 6.7 3.3 13.1 7.2 18.7 11.5 4.9-8 9.3-11.5 13.7-11.1 5.2 0.4 8.7 6.2 11.5 13.3 12.9-23 36.2-46.9 53.7-57.1 6.1-3.5 11.4-5.4 15.4-5 7.5-22.3 15.9-52.2 21.3-72.1-14.7 28-37.8 68.8-47.7 68.8q-3.3 0-5.8-2.5c-8.9-8.9-9.6-42.5-9.5-80.3q0.1-6.2 0.1-12.5c0-9.7 0.1-19.7 0-29.1-2.6 11.3-6.3 26.6-10.5 43.3-2.1 8.4-4.4 17.1-6.7 25.9-24.2 89.5-33.5 89.9-37.4 90.1-13.3 0.7-24.6-27.6-31-48.2 1.2 14.8 4.2 36.9 11.2 63.5zm214.4-5.5q3.3 0.4 6.3 1.1c4.4 1 8.3 2.4 11.2 4.2q3.1 1.9 5.4 4c2.2 2.1 4 4.3 5.4 6.7l51.9-89.2c-15.3 16.1-37 37.8-43.7 38.9-2 0.3-3.8-0.3-5.3-1.7-4-3.9-4.6-14.7-4.3-23.9zm58.2 89.1c4.4-0.5 8.9-0.5 13.4-0.1q3.3 0.4 6.7 1.3l19.6-31.8q-7.2 3.6-13.8 9.8l-5.6 5.2 1.7-7.5c1.5-7 0.6-11.4-0.8-13.2-0.3-0.4-0.8-0.9-1.3-0.9-1 0-3 1-5.7 3.6-6.7 6.5-13.5 19.2-14.2 33.6zm166.5 162.8c-0.6 4.4-1.6 8.8-3.1 13.1h124.6c-6.5-1.7-12.2-4-14.7-7-7.6-9-25-18-51.4-16.4l-5.2 0.3 3.1-4.1c10.5-14 13-23.8 7.3-29-2.7-2.5-8.1-2.5-12.5-1.9-2.3 0.3-4.3 0.7-5.5 1.1l-6.8 1.9 4.3-5.7c9.6-12.6 8.3-16.8 5.7-21.1-1.3-2.1-6.5-6.1-14.7-7.8-9.7-2.1-25.8-1.5-47 13.1l-14.5 10 11.4-13.5c17.9-21.3 23.7-38.5 15.3-46-7-6.3-23.4 3.5-29.1 7.8l-8.7 6.6 5.2-9.6c13.7-25.3 33.4-77 10.5-91-19.9-12.2-36.2 7.9-40 13.1 1.1 2.1 2 4.2 2.6 6.4 0.6 2.8 1 5.5 1 8.3 0 5.5-0.9 10.9-2.7 16 1-5.3 1.1-10.7 0.4-15.8-0.4-2.6-1.2-5-2.1-7.4-1-2.3-2.3-4.3-3.8-6.1-3.9-4.7-15.3-12.2-29.7-13.7-6 26.8-9.1 51-3.4 57.2 6.7 7.4 17.3 6.2 32.6-3.7l6.5-4.2-3.1 7.2c-3.5 8.2-6.6 17.3-3.7 23 1.7 3.3 5.5 5.6 11.7 6.9l5.4 1.2-17.9 12-4.4 2.9c0.7 2.1 1.3 4.1 1.7 6.2 0.8 4.3 0.8 8.7 0.5 12.9-0.4 3.2-0.9 6.3-1.7 9.3 7.6-2.4 21.6-6.7 35.6 7.6 1.3 1.4 2.6 2.9 3.8 4.6 6 8.4 9.3 19.5 10.4 31.2 1.1 12.6-0.4 25.9-4 37.2h5.8c3.3-6.8 5.6-14.2 7.3-21.8 1.1-5.5 1.9-11.1 2.5-16.7q0.4-4 0.6-8.1 0.1 3.9 0.1 7.7c0.1 5.8-0.2 11.7-0.9 17.5-0.8 7.2-2.4 14.4-4.7 21.4h11.5c2.4-4.2 4.2-8.8 5.5-13.6 1.5-5.2 2.6-10.7 3.2-16.2 0.2 5.6-0.1 11.2-0.8 16.7zm1.6-114.2c6.4 8.6 3.2 22.7-9.1 40.1 17.2-8.9 30.7-9 39.5-7.2 9.2 1.9 15.6 6.4 17.8 10 4 6.5 3.5 12.5-2.4 21.6 5.1-0.7 12.2-0.8 16.4 3.1 4.9 4.5 5.8 10.9 2.8 19.1l46.2-18c-18.2-2.7-55.7-10.1-59.9-25.4-3.6-13.1 12.8-33 24.5-45.1-5.9 2.7-13.1 6.1-20.5 9.2-31.7 13.5-38 12.2-40 8.8-4.4-7.5 10.6-31.4 23.3-49.1z"/>
		<path id="path53354" class="s0" d="m786.2 616.7h-305.3c-4.8-7-13-12-24.7-12.2-6.5-0.1-8.4 0-11.6-0.8-3.2-0.6-6.2-1.4-9.2-2.2q-0.7-0.3-1.4-0.5-0.1-0.1-1.3-0.6c-1.9-1-3.7-1.9-5.6-2.9-0.4-0.4-2.5-1.9-3.2-2.5-0.7-0.6-3.4-3.1-3.3-2.9-0.2-0.3-0.4-0.6-0.7-0.9 2.4-3.7 5.4-7.4 8.9-11 3.9-4 8.3-7.9 13-11.5 5.1-3.8 10.4-7.1 16.1-10 5.9-3.1 12.1-5.6 18.3-7.3 6.7-1.9 13.5-2.9 20.4-2.9q12.6 0 23 5l0.2 0.1q5.4 2.7 10.2 6 0.1-0.5 0.2-1c1.3-6.3 4.1-12 8.2-16.8 6-7 15.4-11.2 26.4-11.9 4.6-0.5 9-0.6 13-0.5 3.8 0.1 7.6 0.4 11 0.9 3.4 0.4 6.6 1 9.6 1.8q2.8 0.6 5.5 1.2 1.2 0.3 2.5 0.6 0.4 0.2 0.9 0.3c1.8-1.5 3.7-2.6 5.4-3.5 5.3-2.6 14-5 25.7-1.7q0.5 0.1 1.1 0.3c3.5 1.1 7.1 2.4 10.6 3.7 4.4 1.6 8.9 3.8 13.3 6.3q1.3 0.7 2.5 1.5c4.2-4.9 9.1-7.5 13.1-8.8 5.5-1.8 14.3-2.9 25.2 1.7l0.3 0.1c1.3 0.6 2.4 1.1 3.3 1.5 2.5 1.1 4.9 2.4 7.2 4q2.4 1.7 4.9 3.7 0.7 0.7 1.6 1.5 1.4-0.8 2.9-1.4c4.3-2 8.8-3.3 13.4-4 4.4-0.6 8.7-0.7 12.8-0.3 3.4 0.4 6.7 1 9.9 1.8 3.2 0.9 6.2 1.9 8.9 3.2 3.3 1.4 6.5 3.1 9.6 5 3 1.9 5.8 3.9 8.4 6.1q4.5 3.8 7.9 8 2.1 2.6 3.7 5.2 1.2-0.9 2.4-1.9c7.4-6.1 15.5-9 24-8.5 5.5 0.3 13.8 2.2 21.8 9.8 2.9 2.5 5.7 5.5 8.4 8.8 3.3 4 5.9 8.1 7.7 12.3l0.1 0.1c1.1 2.9 1.8 5.5 2.2 8-15.3 1.1-27.6 8-42.2 12.2-12.2 3.4-24.7 5.7-37.2 7.8z"/>
		<path id="path53356" class="s5" d="m855.3 615.3c-1.5 3.1-4.2 5.7-8.4 8.1-6.8 3.7-13.5 7.8-20.1 12.1-6.5 4.1-12.9 8.6-19 13.2-5.8 4.3-11.5 8.9-17.1 13.6-4.9 4.2-9.8 8.5-14.4 12.9-2.7 2.6-5 4.1-7.5 4.8q-0.3 0.1-0.7 0.2-0.3 1.8-1 3.6c-0.8 1.9-1.8 3.8-3.3 5.6q-1.7 2.2-3.6 4c-0.9 0.8-2 1.8-3.5 2.9q-2.1 1.7-4.4 3.1c-1.6 1-3.4 1.9-5.1 2.6q-3.8 1.6-7.5 1.7h-0.4c-5.3 0-9.5-2.4-11.7-6.3q-0.2-0.3-0.4-0.7-0.3-0.3-0.5-0.6-0.2-0.4-0.4-0.7-0.2-0.3-0.4-0.7-0.2-0.3-0.4-0.6-0.2-0.4-0.4-0.7l-0.1-0.1c-1.6 1.3-3.2 2.5-4.7 3.5-3.8 2.5-7.2 4-10.5 4.9q-3.1 0.7-6 0.7-2.9 0-5.8-0.8c-5.2-1.3-9.9-4.2-14.1-8.6q-0.4-0.4-0.7-0.9-0.7-0.9-1.3-1.9-0.2-0.4-0.4-0.7-0.2-0.3-0.4-0.7l-0.2-0.2q-0.1 0.4-0.3 0.9c-1.2 4.8-3.8 8.1-7.7 9.7-3.3 1.4-7.1 1.3-10.6-0.2-3-1.2-5.8-2.9-8.8-5.1l-0.4-0.2q-2.4-1.9-4-4.7-0.2-0.3-0.4-0.6-0.2-0.3-0.3-0.5 0 0.6-0.1 1.2v0.4c-0.3 2.5-0.9 5.7-3.4 8.1-0.6 0.7-3.3 3.1-7.6 3.1-1.9 0-4-0.5-6.5-1.7q-1.4-0.7-2.8-1.4c-2.2 2.2-5.4 3.5-9.2 3.5h-0.1q-2.6 0-4.9-0.3-3.7-0.5-7.3-2.5c-2.7-1.4-4.9-3.3-6.4-5.6q-0.1-0.3-0.2-0.5l-0.2-0.2q-0.1-0.3-0.3-0.5l-0.1-0.2q-0.1-0.2-0.3-0.5l-0.1-0.2q-0.2-0.2-0.3-0.5l-0.1-0.1q-0.2-0.3-0.3-0.5l-0.1-0.2q-0.2-0.3-0.3-0.5l-0.2-0.2c-0.1-0.1-0.1-0.3-0.2-0.5l-0.2-0.2q-0.1-0.2-0.3-0.5l-0.1-0.1q-0.1-0.3-0.3-0.5l-0.1-0.2q-0.2-0.3-0.3-0.5l-0.1-0.2q-0.2-0.2-0.3-0.5l-0.1-0.2q-0.2-0.2-0.3-0.5l-0.2-0.1c-0.1-0.2-0.1-0.4-0.2-0.5l-0.2-0.2c-0.1-0.2-0.2-0.3-0.3-0.5l-0.1-0.2c-1.2-1.8-2.2-4.3-3.2-8-0.1-0.4-0.2-0.9-0.3-1.3q-2 0.6-3.7 1.3 0.1 2.3 0.3 4.5 0.4 4.6 1 9c0.5 5.1-1.1 8.7-4.8 10.9-3.5 2-7.7 1.9-12.3-0.3l-0.3-0.2q-1.4-0.7-3-1.6-1.8-0.9-3.7-2.1-0.4-0.2-0.7-0.5-1.3-0.9-2.2-1.5-2.1-1.4-3.8-3.4-0.7-0.9-1.4-1.9c-0.9 1.4-1.8 2.8-2.8 4-1.6 1.9-3.3 3.5-5.1 5-1.9 1.5-3.7 2.7-5.6 3.7q-1.9 1.1-3.9 1.6-2 0.5-4 0.5-0.8 0-1.6 0c-1.5-0.2-2.9-0.5-4.5-1-1.1-0.4-2.4-0.9-4-1.7-2.5-0.9-4.8-1.8-6.9-2.8l-3.3-1.5q-2.1-0.9-4.5-2.1-0.4-0.1-0.7-0.3-1.8-1-3.2-1.7-2.1-1.1-3.8-2.2-1.8-1.2-3.6-2.7-1.8-1.5-3.8-3.7c-4.3-4.4-8.7-9.1-13-14-4.8-5.4-9.6-11-14.3-16.6q-5.2-6.3-10.6-12.8l-3.9-4.7c-5.3-6.3-9.9-11.7-14.2-16.5q-0.6-0.7-1.1-1.5-0.2-0.3-0.4-0.7-0.2-0.3-0.4-0.6-0.2-0.4-0.4-0.7-0.3-0.3-0.5-0.7-0.2-0.3-0.4-0.7-0.2-0.3-0.4-0.6-0.2-0.4-0.4-0.7-0.2-0.3-0.4-0.7-0.2-0.3-0.4-0.7-0.3-0.3-0.4-0.6-0.3-0.4-0.5-0.7-0.2-0.3-0.4-0.7-0.2-0.3-0.4-0.6c-1.8-2.6-2-5.9-0.3-8.7 2-3.4 4.7-6.9 8.1-10.4 3.4-3.5 7.2-6.8 11.3-9.9 4.4-3.3 9-6.2 13.9-8.7 5-2.6 10.2-4.7 15.3-6.1 5.5-1.6 10.8-2.3 16-2.3 5.7 0 11.1 1.2 15.8 3.5q7.9 3.9 14.1 9.4c4.1 3.6 7.9 8.1 11.2 13.4l0.1 0.2 0.1 0.2 0.2 0.3 0.2 0.2 0.1 0.2 0.2 0.3 0.1 0.2 0.1 0.2 0.2 0.3 0.1 0.2 0.1 0.1 0.2 0.3 0.1 0.2 0.1 0.2 0.2 0.3 0.1 0.2 0.1 0.2 0.2 0.3 0.1 0.2 0.1 0.2 0.2 0.3 0.1 0.1 0.1 0.2q0.2-2.5 0.4-5c0.7-9.7 2-19 3.8-27.5 0.9-4.2 2.7-7.8 5.3-10.9 2.4-2.8 7-6.1 15.7-6.7 4-0.3 7.8-0.5 11.2-0.4 3.3 0.1 6.4 0.4 9.3 0.7q4.2 0.6 7.9 1.5 3 0.8 6.1 1.4 0.4 0.1 0.9 0.2c6 1.9 9.1 5 10.7 7.6q1.5-8.6 7.8-11.7c3.9-2 8.6-2.2 13.9-0.7l0.4 0.1c3.4 1.1 6.8 2.3 10.1 3.5 3.6 1.4 7.3 3.1 11 5.3 3.4 1.8 6 4.2 7.9 6.9 0.1 0.2 0.2 0.5 0.4 0.7 0.1 0.2 0.2 0.5 0.4 0.7 0.2 0.2 0.3 0.4 0.4 0.6 0.2 0.3 0.3 0.5 0.4 0.7 0.2 0.2 0.3 0.5 0.4 0.7 0.2 0.2 0.3 0.4 0.5 0.7 0.1 0.2 0.2 0.4 0.4 0.6 0.1 0.3 0.2 0.5 0.4 0.7 0.1 0.2 0.3 0.5 0.4 0.7 0.2 0.2 0.3 0.4 0.4 0.7 0.2 0.2 0.3 0.4 0.4 0.6 0.2 0.3 0.3 0.5 0.5 0.7 0.1 0.2 0.2 0.5 0.4 0.7 0.3 0.4 0.5 0.8 0.7 1.2 1.6-4.4 3.3-8.8 5-12.9 2.2-5.3 5.5-8.6 9.8-10.1 4-1.3 8.6-0.9 13.6 1.3 1.4 0.6 2.5 1.1 3.5 1.5q2.4 1 4.5 2.5 1.8 1.2 3.6 2.8 1.9 1.6 4.1 3.9 1.7 1.8 2.9 3.7 0.2 0.4 0.4 0.7 0.2 0.3 0.4 0.6 0.2 0.4 0.4 0.7 0.2 0.2 0.3 0.5c4.2-3.1 8.7-5.7 13.3-7.7 2.9-1.4 5.9-2.3 9-2.7 2.9-0.4 5.9-0.5 8.7-0.2 2.5 0.2 5 0.7 7.4 1.3 2.3 0.6 4.5 1.4 6.5 2.3 2.6 1.1 5.1 2.5 7.6 4 2.4 1.5 4.7 3.2 6.8 4.9q3.3 2.8 5.9 6c0.6 0.7 1 1.4 1.5 2.2l0.3 0.3q0.4 0.6 0.8 1.2 0.2 0.4 0.4 0.7 0.2 0.4 0.4 0.7 0.2 0.3 0.4 0.7 0.3 0.3 0.5 0.6 0.2 0.4 0.4 0.7 0.2 0.3 0.4 0.7 0.2 0.3 0.4 0.7 0.2 0.3 0.4 0.6 0.2 0.4 0.4 0.7 0.3 0.3 0.5 0.7 0.2 0.3 0.4 0.6 0.2 0.4 0.4 0.7 0.2 0.4 0.4 0.7 0.3 0.6 0.6 1.1 0.2 0.2 0.3 0.5c0.4 0.7 0.8 1.4 1.2 2.1q0.9 1.9 1.5 3.8c5.7-5.3 11.4-10.2 16.8-14.6 4.4-3.6 8.6-5.2 13-5 4.2 0.2 8.2 2.1 11.9 5.8 2.4 2 4.8 4.5 7 7.2q2 2.5 3.5 5 0.3 0.3 0.5 0.7 0.2 0.4 0.4 0.7 0.3 0.3 0.5 0.7 0.2 0.3 0.4 0.6 0.2 0.4 0.4 0.7 0.2 0.4 0.4 0.7 0.2 0.3 0.4 0.7 0.2 0.3 0.4 0.6 0.2 0.4 0.4 0.7 0.3 0.3 0.5 0.7 0.2 0.3 0.4 0.7 0.2 0.3 0.4 0.6 0.2 0.4 0.5 0.8 1.5 2.4 2.5 4.7 2.8 6.8 0.3 12.2z"/>
		<path id="path53358" fill-rule="evenodd" class="s6" d="m534.7 638.7c3.1 2.9 5.8 5.9 7.9 9.2 2.2 3.9 3.4 7.3 3.7 10.2 0.4 2.8 0.1 5.6-0.7 8.4q-0.7 3.1-2.1 5.9-1.5 2.9-3.3 5.1-1.9 2.2-4 3.8-2 1.7-4 2.7-1.1 0.6-1.9 0.8-0.9 0.3-1.9 0.2-1.1-0.1-2.4-0.6-1.2-0.4-3.3-1.3-3.5-1.4-6.6-2.8c-2.1-0.9-4.7-2.1-7.8-3.5q-2-1.1-3.5-1.9-1.6-0.8-2.9-1.6-1.3-0.9-2.7-2-1.3-1.2-3-3c-3.9-4.1-8.2-8.6-12.8-13.8q-6.9-7.9-14.1-16.5-7.2-8.6-14.6-17.5c-4.9-5.9-9.7-11.5-14.4-16.7q2.5-4.2 7-8.9 4.5-4.6 10.2-9c3.8-2.9 8-5.5 12.5-7.8 4.4-2.3 9-4.1 13.5-5.4 4.5-1.3 8.9-1.9 13.2-1.9q6.3 0.1 11.4 2.5 6.7 3.4 12 8 5.3 4.7 9.6 11.6 2.2 3.8 3.1 7.6 0.9 3.8 0.9 7.4 0 3.7-0.8 7-0.7 3.3-1.9 6.2-1.4 2.9-2.8 5.8-1.4 2.9-3.6 5.7 5.3 1.8 10.1 6.1zm-26.7 20.4q2.6 4.4 5.5 8.8 3.3-1.9 5.5-4.5 2.3-2.6 3.3-5.5 1.1-2.8 0.9-5.5-0.2-2.7-1.9-4.7-1.2-1.1-3.2-1.8-2.1-0.7-4.7-0.6-2.7 0.1-5.5 1.3-2.7 1.1-5.4 3.4 2.9 4.8 5.5 9.1zm-7.9-37.7q3.1-5 4.8-9.7c1.2-3.1 1.8-6 1.8-8.5 0-2.6-0.5-4.5-1.6-5.8q-1.4-1.5-4-1.7-2.6-0.2-5.8 1-3.3 1.2-6.9 3.8c-2.4 1.8-4.7 4-6.9 6.6q1.9 5.6 4.7 11.3 2.8 5.7 5.9 12.1 4.8-4.2 8-9.1z"/>
		<path id="path53360" fill-rule="evenodd" class="s6" d="m582.3 656.3q-6.3 1.9-10.6 4.4 0.1 5.6 0.6 10.3 0.4 4.7 0.9 9.2 0.3 2.3-0.4 2.8-0.8 0.4-3-0.7-1.3-0.7-2.9-1.5-1.5-0.9-3.3-1.9-1.4-1.1-2.5-1.8-1-0.7-1.9-1.7-0.9-1.1-1.7-2.8-0.8-1.6-1.6-4.4c-1.4-6.2-2.8-13.6-4-22.3-1.1-8.7-1.8-17.9-2.1-27.5q-0.3-14.5 0.8-29.2c0.7-9.7 2-18.6 3.7-26.4q0.9-4.3 3.5-7.3c1.7-2 4.7-3.1 9.1-3.4q5.6-0.5 10.1-0.4 4.5 0.1 8.2 0.7 3.7 0.5 6.9 1.3 3.2 0.7 6.4 1.4 4.3 1.3 5.7 4 1.4 2.6 1.5 7 0.3 10.8 1.3 24.8 1 13.9 2.4 29 1.4 15.1 3.1 30.3 1.6 15.1 3.1 28.1 0.3 2.7-0.2 3.8-0.4 1.1-2.5 1.1-2 0-3.7-0.2-1.7-0.3-3.7-1.4-2.1-1.1-3.1-2.7-1.1-1.6-2.2-5.8-1.2-4.3-2.4-9.4-1.3-5.1-2.8-11.1-6.5 1.8-12.7 3.7zm-1.9-25.4q4.4-1.2 9-2-2.6-12.1-5.2-24.1-2.6-12-4.7-23.9c-1.9 7.6-3.5 15.9-4.9 24.9-1.3 9-2.3 18.3-2.8 27.7q4.2-1.5 8.6-2.6z"/>
		<path id="path53362" class="s6" d="m670.7 592.5c4-12.5 8.2-24 12.5-34.4q1.7-4.3 4.2-5.1 2.4-0.8 6.5 1 1.9 0.8 3.4 1.5 1.5 0.6 2.9 1.6 1.4 0.9 2.8 2.2 1.5 1.3 3.4 3.2c2.1 2.2 3 4.2 2.9 6q-0.3 2.8-2.3 6.4c-3.8 6.9-7.7 14.8-11.8 23.7q-6.1 13.4-11.7 27.5-5.5 14.1-10.1 27.8c-3.1 9.1-5.6 17.1-7.6 24.1-1 3.7-2.8 5-5.4 3.8q-3.4-1.3-6.9-3.9-3.2-2.6-4.3-9.2-0.8-4.7-1.7-10.9-0.9-6.3-2-13.5-1-7.3-2.3-15.1-1.2-7.9-2.5-15.8-1.4 9.4-2.6 18.9-1.3 9.4-2.3 18-1 8.6-1.6 16-0.7 7.4-1 12.9-0.3 2.6-1 3.3-0.7 0.6-2.7-0.4-1.9-0.9-3.9-1.9-2-1-4-3.1-1.9-1.7-2.7-3.9-0.8-2.2-1-6.1-0.2-4.1-0.5-11.7-0.2-7.5-0.3-17.2-0.1-9.6 0.1-20.7 0.2-11 0.7-22 0.6-10.9 1.5-21.2 0.9-10.2 2-18.2 0.7-4.6 3.1-5.8 2.4-1.2 6.7 0 5 1.6 9.7 3.4 4.6 1.7 9.5 4.6 4 2.1 5.5 5.2 1.5 3 1.8 8.8 0.3 4.4 0.7 11.3 0.4 6.9 0.8 14.9 0.4 8 0.8 16.4 0.3 8.4 0.5 16.2c2.8-13.1 6.2-26 10.2-38.6z"/>
		<path id="path53364" class="s6" d="m757.7 625.5q-1.4 0.6-3.9-0.2c-4.4-1.9-7.1-4.5-8.1-7.7-1-3.1-0.7-7 1.1-11.6q0.4-1.4 0.9-2.7 0.5-1.2 1.3-2.6 0.7-1.5 1.2-2.8 0.5-1.4 1.1-2.7 0.7-2.7 1-4.5 0.4-1.8-0.6-2.5c-1.4-1-3.6-0.7-6.7 0.8-3.1 1.5-6.6 3.9-10.3 7.3q-5.7 5.1-11.5 12.3-5.9 7.2-10.7 15.3c-2.8 4.4-5.1 8.9-7.2 13.6q-3.1 7.1-4.9 13.2-1.8 6.1-2.2 10.4-0.4 4.4 1.1 5.5 1.2 0.9 3.3-0.3 2.1-1.1 4.9-3.8 2.7-2.6 5.9-6.3 3.2-3.7 6.7-8c-3.9-0.2-6.4-1.4-7.6-3.9q-1.8-3.6-0.9-11.8 0.3-1.9 1.1-2.9 0.8-1 2.2-1.5 1.3-0.4 3.1-0.5 1.8-0.1 4-0.3 4.2-0.5 8.6-0.4 4.4 0.1 7.8 0 3.8 0.1 5.6 1.2 1.8 1.2 2.3 4.1 0.3 1.8 0.4 3.8 0 2 0 3.6 0 3.2-1.2 5.4-1.3 2.3-4 5.4c-6.7 7.1-12.7 13.2-18.1 18.2-5.4 5.1-10.2 9.1-14.5 11.9-2.7 1.8-5.2 2.9-7.5 3.5-2.3 0.6-4.4 0.6-6.5 0.1-3.6-1-6.8-3-9.8-6.1q-1.5-2.1-2.6-5.5-1.1-3.5-1.3-7.7c-0.4-4.4-0.3-9.6 0.4-15.6 0.7-5.9 1.9-12.2 3.8-18.9 1.8-6.6 4.2-13.3 7.2-20 3-6.8 6.6-13.2 10.8-19.3 4.2-6.1 9-11.6 14.4-16.5 5.4-4.8 11.3-8.7 17.6-11.4q3-1.5 6.2-1.9 3.2-0.5 6.3-0.2 3 0.3 5.8 1.1 2.8 0.7 5 1.8 3.3 1.3 6.4 3.3 3.1 2 5.8 4.2 2.6 2.2 4.7 4.7 2 2.5 3.2 5.2c1.5 3.1 2.1 6.2 1.6 9.2q-0.7 4.5-3.1 9.5-1.4 2.6-3.5 5.8-2 3.2-4.2 6.3-2.2 3.1-4.4 5.9-2.2 2.8-3.8 4.7-2.2 2.3-3.7 2.8z"/>
		<path id="path53366" class="s6" d="m840.9 602.5c-0.7 1.4-2.3 2.8-4.8 4.2q-10.4 5.8-20.5 12.4-10.2 6.6-19.6 13.6c-6.2 4.6-12.1 9.3-17.5 13.9-5.4 4.7-10.3 9.1-14.8 13.3q-2.3 2.2-3.6 2.6-1.4 0.4-2.9-0.5-2-0.9-3.5-2.1-1.5-1.2-2.6-2.8-1.1-1.7-0.6-3.5 0.4-1.9 3.2-5.2c3.5-4.5 7.8-9.8 13-15.7q7.7-8.9 16.5-17.9 8.7-9 17.8-17.4c6-5.6 11.6-10.4 16.7-14.5q3.7-3 6.3-2.9 2.6 0.1 5.7 3.2 3.2 2.7 6.2 6.5 3.1 3.7 4.6 7.1c1 2.3 1.1 4.2 0.4 5.7zm-104.3 66.5q2.3-2.2 4.8-3.5 2.5-1.4 5-1.5 2.5-0.1 4.5 1.2 1.8 1.1 2.1 2.8 0.2 1.6-0.5 3.5-0.7 1.8-2.1 3.5-1.4 1.8-2.7 3.1-1.1 0.9-2.8 2.3-1.8 1.3-3.7 2.5-1.8 1.1-3.8 2-2 0.8-3.6 0.8c-2.5 0.1-3.8-0.9-4.2-3-0.4-2.1 0.6-5.1 3.2-9q1.6-2.6 3.8-4.7z"/>
	</g>
</svg>