<svg version="1.2" xmlns="http://www.w3.org/2000/svg" viewBox="0 0 1000 665" width="553" height="368">
	<title>Comic Boom-ai</title>
	<style>
		.s0 { fill: #ed1b24 } 
		.s1 { fill: #17162b } 
		.s2 { fill: #ea5f59 } 
		.s3 { fill: #ffffff } 
		.s4 { fill: #aa051d } 
	</style>
	<g id="&lt;Group&gt;">
		<g id="&lt;Group&gt;">
			<g id="&lt;Group&gt;">
				<g id="&lt;Group&gt;">
					<g id="&lt;Group&gt;">
						<g id="&lt;Group&gt;">
							<g id="&lt;Group&gt;">
								<g id="&lt;Group&gt;">
									<g id="&lt;Group&gt;">
										<g id="&lt;Group&gt;">
											<g id="&lt;Group&gt;">
												<g id="&lt;Group&gt;">
													<g id="&lt;Group&gt;">
														<g id="&lt;Group&gt;">
															<g id="&lt;Group&gt;">
																<g id="&lt;Group&gt;">
																	<path id="&lt;Path&gt;" class="s0" d="m335.2 389.7c8.8-37.5 31.3-103.6 43.7-121 0 0 22.8-6.7 42.4-1.9 16-10.9 24-15.6 27.8-17.5 5.7-0.7 12.9 9.1 19.3 20.4 3.7 6.5 9.9 20.3 9.9 20.3 0 0 1.2 12.5 1.5 18.7 0.9 17.2 0.4 36.3-1.5 44.8 0 0 17.5 44.9 18.9 57.4 1 9.1-7 22.7-11.2 29.2-1.6 2.4-3.8 4.3-6.5 5.5-10.3 4.6-39.1 16.8-58 18.5-17.5-1.7-56.4-28.4-75.1-78.5 0 0-4.4 4.5-11.2 4.1z"/>
																</g>
															</g>
														</g>
													</g>
												</g>
											</g>
										</g>
									</g>
								</g>
							</g>
						</g>
					</g>
					<g id="&lt;Group&gt;">
						<g id="&lt;Group&gt;">
							<g id="&lt;Group&gt;">
								<g id="&lt;Group&gt;">
									<g id="&lt;Group&gt;">
										<g id="&lt;Group&gt;">
											<g id="&lt;Group&gt;">
												<g id="&lt;Group&gt;">
													<g id="&lt;Group&gt;">
														<g id="&lt;Group&gt;">
															<g id="&lt;Group&gt;">
																<g id="&lt;Group&gt;">
																	<path id="&lt;Compound Path&gt;" fill-rule="evenodd" class="s1" d="m333.7 390.7q0.3-1 0.5-1.8 0.1-0.4 0.3-0.8 0-0.2 0.1-0.4l0.1-0.1v-0.1q0.2-0.5 0.3-1l0.2-1 1-3.9 2-7.8 2.1-7.8 2.1-7.8q2.2-7.8 4.5-15.5 1.2-3.9 2.4-7.7 1.3-3.9 2.6-7.7c3.5-10.2 7.3-20.3 11.5-30.2q1.6-3.7 3.3-7.4 1.6-3.7 3.4-7.4 1.7-3.6 3.7-7.2c1.3-2.4 2.6-4.7 4.2-7l0.2-0.3 0.4-0.1c3.5-1 7-1.8 10.5-2.4q5.4-0.9 10.8-1.3 2.7-0.2 5.4-0.2 2.7-0.1 5.5 0.1c3.4 0.1 6.8 0.6 10.2 1.3q6.5-4.5 13.1-8.9 3.4-2.2 7-4.4c2.3-1.5 4.7-2.9 7.2-4.2l0.3-0.2h0.3c1.5-0.2 2.9 0.2 4 0.8 1.2 0.5 2.2 1.2 3.1 2 1.8 1.5 3.3 3.2 4.7 4.9 2.7 3.5 5 7.3 7.1 11q0.8 1.5 1.6 2.9l0.7 1.5 0.8 1.4c0.9 2 1.8 3.9 2.8 5.9q1.3 2.9 2.7 5.9 1.4 2.9 2.7 5.9v0.1l0.1 0.1q0.8 8 1.4 15.9c0.4 5.3 0.7 10.6 0.9 16q0.1 3.9 0.1 7.9 0.1 4 0 8.1 0 4-0.2 8l-0.1 2-0.2 2.1q-0.1 1-0.2 2-0.1 0.7-0.2 1.4c1.9 6.3 4.1 12.4 6.3 18.6 2.3 6.3 4.5 12.7 6.6 19.2 1 3.2 2.1 6.4 3 9.7q0.7 2.5 1.3 5c0.3 1.7 0.7 3.4 0.9 5.2 0.1 1.9 0 3.7-0.4 5.4-0.3 1.8-0.8 3.5-1.3 5.1-1.2 3.3-2.7 6.4-4.3 9.5q-2.4 4.5-5.2 8.8l-0.7 1q-0.4 0.6-0.8 1.1-0.9 1.1-1.9 2-1 0.9-2.1 1.7-0.6 0.4-1.2 0.7c-0.4 0.2-0.8 0.4-1.2 0.6-6.2 2.7-12.4 5.5-18.7 8q-4.7 1.9-9.5 3.7-4.8 1.7-9.7 3.3c-6.5 1.9-13.1 3.6-20.1 4.3h-0.2-0.2c-2.6-0.3-5-0.9-7.3-1.7-2.4-0.8-4.6-1.8-6.8-2.8q-3.2-1.6-6.3-3.5-3.1-1.9-6-4-5.9-4.2-11.1-9-5.3-4.9-10-10.2c-6.3-7.2-11.9-15-16.7-23.2-4.4-7.6-8.2-15.7-11.3-24q-0.5 0.4-1.1 0.8-1.4 0.9-3 1.6-1.5 0.6-3.2 1-0.9 0.1-1.7 0.2-0.4 0-0.9 0h-0.1c0 0 0 0-0.1 0h-0.1q-0.3 0-0.7-0.1c-0.4-0.1-0.9-0.3-1.2-0.6zm87.3-125.5q-0.3 0.2-0.6 0.3l1.2-0.2q-0.3 0-0.6-0.1zm59.7 88.1q-0.2-0.3-0.3-0.6l0.1 1.3q0.1-0.4 0.2-0.7zm-0.3-0.6q0 0 0 0zm-134.6 35.1q0.1-0.1 0.2-0.2 0.4-0.2 0.7-0.5c0.2-0.2 0.4-0.4 0.6-0.6l-2.1-0.5q0.3 0.9 0.6 1.8zm-9.2 0.7q0-0.1 0-0.2v-0.1-0.1-0.1q-0.3 0-0.6-0.1h-0.1q0.2 0 0.3 0.1c0.2 0.1 0.4 0.4 0.4 0.6q0 0.1 0-0.1zm-0.7-0.6q0 0 0 0c-0.1 0 0 0 0 0q0 0 0 0zm0.7 0.1q0.7 0 1.4-0.1 1.4-0.2 2.7-0.6 1.3-0.4 2.5-1.1 0.7-0.3 1.2-0.7 0.3-0.2 0.6-0.4c0.2-0.1 0.4-0.3 0.5-0.4l1.4-1.3 0.7 1.7c3.5 8.7 7.6 17 12.5 25q1.8 2.9 3.7 5.8 2 2.9 4.1 5.7 4.1 5.6 8.8 10.7c6.2 6.9 13.1 13.2 20.6 18.5 3.8 2.6 7.7 5.1 11.8 7 2 1 4.1 1.9 6.2 2.7 2.1 0.6 4.2 1.2 6.2 1.4 3.2-0.3 6.4-0.8 9.6-1.5 3.2-0.6 6.4-1.4 9.7-2.3q9.6-2.7 19.1-6 9.5-3.4 18.8-7.4c0.4-0.2 0.7-0.3 1.1-0.5q0.5-0.3 1-0.6 1-0.6 1.9-1.4 0.9-0.8 1.6-1.7 0.3-0.4 0.7-0.9l0.6-1.1c1.8-2.8 3.5-5.7 5-8.7 1.4-3 2.7-6 3.7-9.2 0.4-1.5 0.9-3.1 1.1-4.7 0.2-1.6 0.3-3.1 0.2-4.6-0.2-1.5-0.5-3.2-0.9-4.8q-0.6-2.4-1.3-4.8-1.4-4.8-3-9.6-3.1-9.6-6.6-19.1c-2.4-6.3-4.8-12.6-7.6-18.7l-0.3-0.8 0.2-0.5c0.6-2.4 1.1-5 1.4-7.6q0.5-3.9 0.8-7.8 0.6-7.9 0.6-15.8 0.1-4 0-7.9 0-2-0.1-4-0.1-2-0.2-4c-0.3-5.2-0.7-10.4-1.2-15.7q-1.2-2.8-2.6-5.7-1.3-2.9-2.8-5.8-1.4-2.9-2.9-5.8-0.8-1.4-1.6-2.7-0.8-1.4-1.7-2.8c-2.3-3.6-4.7-7.1-7.5-10.3-1.3-1.6-2.8-3.1-4.4-4.3-0.7-0.5-1.6-1.1-2.4-1.4q-1-0.4-1.9-0.4c-2.3 1.2-4.5 2.5-6.8 3.8q-3.5 2.1-6.9 4.3c-4.7 2.9-9.2 5.9-13.8 8.9l-0.6 0.4-0.6-0.1c-3.3-0.9-6.8-1.4-10.3-1.7q-2.6-0.2-5.3-0.2-2.6 0-5.2 0.1-5.3 0.3-10.6 1.1c-3.4 0.5-6.7 1.1-10 2-1.4 2-2.7 4.2-3.9 6.5-1.2 2.3-2.3 4.8-3.4 7.2-2.2 4.9-4.2 9.9-6.1 14.9q-2.9 7.5-5.6 15.1-2.7 7.5-5.3 15.1l-2.7 7.6-2.6 7.6q-2.6 7.6-5.1 15.3-1.2 3.8-2.4 7.7-1.2 3.8-2.3 7.7-1.1 3.9-2.1 7.8l-1 3.9-0.2 0.9q-0.2 0.5-0.2 1v0.1q0 0 0 0zm84.9 73.9q-0.1 0-0.2 0h0.4q-0.1 0-0.2 0zm55.9-171.7q0.1 0.1 0.1 0.2l-0.1-0.3q0 0.1 0 0.1zm-27.8-39.2q0.2-0.1 0.3-0.1l-0.6 0.1q0.2 0 0.3 0zm-70.1 18.6q0.1-0.2 0.2-0.3l-0.6 0.4q0.2-0.1 0.4-0.1z"/>
																</g>
															</g>
														</g>
													</g>
												</g>
											</g>
										</g>
									</g>
								</g>
							</g>
						</g>
					</g>
				</g>
				<g id="&lt;Group&gt;">
					<path id="&lt;Path&gt;" class="s2" d="m377.4 325.8l18.9-2.5 23.6 15.2c0 0-1.1-3.1 18.9 14.7 19.9 17.9 11.7 34.7 11.7 34.7 0 0-8.1 8.3-9.2 10-1.2 1.7-51.2 14.4-51.2 14.4-7.4-2.7-40.7-31.3-40.7-31.3z"/>
				</g>
				<g id="&lt;Group&gt;">
					<path id="&lt;Path&gt;" class="s3" d="m385.4 319.9l2.7-11.3 9.5-19.4c0 0 19.8-3 27.3 1.5 0 0 23.8-22.3 28.7-14.2 4.8 8.2 7.2 22.6 7.2 22.6l-35.2 18.6c0 0-36.4 8.1-40.2 2.2z"/>
				</g>
				<g id="&lt;Group&gt;">
					<path id="&lt;Path&gt;" class="s3" d="m390.1 412.3l53-14.5 6.6-8.1 3-16.7-5-11-6.6-8.7 23.4 10.5 5.9 7.9c0 0 4.3 25.3 1.9 33.4 0 0-31.8 21.5-56.3 20.3z"/>
				</g>
				<g id="&lt;Group&gt;">
					<g id="&lt;Group&gt;">
						<g id="&lt;Group&gt;">
							<g id="&lt;Group&gt;">
								<g id="&lt;Group&gt;">
									<g id="&lt;Group&gt;">
										<g id="&lt;Group&gt;">
											<g id="&lt;Group&gt;">
												<g id="&lt;Group&gt;">
													<g id="&lt;Group&gt;">
														<g id="&lt;Group&gt;">
															<g id="&lt;Group&gt;">
																<path id="&lt;Path&gt;" class="s1" d="m460.9 303.1c-14.9 9.9-15.9 12.8-15.9 12.8l7.9 24.3-14.1-23c0 0 11 33.2 10.8 32.8-0.2-0.4-13.3-22.3-13.3-22.3l4.9 19.9c0 0 7 2.1 10.4 7.3 0 0 10.6 2.2 12.6 3.8 0 0-6.1-19.7-6.6-24.8 3.1 6.6 7.5 20.9 7.5 20.9 0 0 3.9-13.4 4.2-25.9 1.5 9.5-0.6 20.4-1.1 24.5-0.1 1 6.6-15.4 7.7-25.5 0.3 11.9-1.4 26.5-1.4 26.5 0 0 4.4-9 4.2-22.3l2.2 4.1-2.6 17.3 0.4 4.3-7.9 10.1-0.4 3.9c0 0 0-3.6-4.7-7.1-4.7-3.5-12.1-8.7-19.5-10.1-7.3-1.3-6.9-2.7-6.9-2.7 0 0-10.5-12.5-21-13.1-7.3-0.5-18.8 7.3-21.7 12.6-3 5.3-6.7 0.7-6.7 0.7 0 0-10.6-8.2-22.2 0.5-11.7 8.6-0.4 0.2-0.4 0.2l-2.7 0.6 15.5-30.4 10.2-2.7c0 0 28.2-4.5 46.4-11.6 18.3-7 22.9-12 22.9-12z"/>
															</g>
														</g>
													</g>
												</g>
											</g>
										</g>
									</g>
								</g>
							</g>
						</g>
					</g>
				</g>
				<g id="&lt;Group&gt;">
					<g id="&lt;Group&gt;">
						<g id="&lt;Group&gt;">
							<g id="&lt;Group&gt;">
								<g id="&lt;Group&gt;">
									<g id="&lt;Group&gt;">
										<g id="&lt;Group&gt;">
											<g id="&lt;Group&gt;">
												<g id="&lt;Group&gt;">
													<g id="&lt;Group&gt;">
														<g id="&lt;Group&gt;">
															<g id="&lt;Group&gt;">
																<path id="&lt;Path&gt;" class="s1" d="m345.4 384.9c4.5-7.7 8.8-15.6 13-23.6q6.3-12 12.4-24.1c4-8 8-16.1 12-24.2 3.9-8.1 7.8-16.2 11.4-24.4l0.4-0.9 0.9-0.3c2.7-0.9 5.4-1.3 8-1.4q2-0.1 4 0 1.9 0 3.9 0.2 3.8 0.4 7.6 1.1 1.9 0.4 3.8 0.8c1.2 0.3 2.5 0.6 3.8 1l-2.3 0.6c0.8-0.8 1.5-1.5 2.3-2.3q1.1-1 2.3-2 2.3-2.1 4.8-4c3.3-2.6 6.7-4.9 10.4-7 0.9-0.5 1.9-0.9 2.8-1.4q1.5-0.7 2.9-1.3l1.5-0.6 0.8-0.2 0.4-0.2c0 0 0.2 0 0.3-0.1q0.2 0 0.5 0c1.2-0.2 2.4 0.4 3.1 1.3 0.4 0.4 0.7 1 0.8 1.5v0.2l0.1 0.2v0.1 0.4c0.6 4 1.3 8 2.1 11.9l2.2 12c0.8 4 1.5 8 2.3 12q1.1 6 2.1 12c0.6 4 1.3 8 1.8 12.1-1.2-3.9-2.3-7.8-3.4-11.7q-1.6-5.9-3.1-11.9c-2-7.8-3.9-15.7-5.6-23.7-0.9-4-1.7-8-2.4-12.1l-0.1-0.4v-0.1-0.1q0 0 0 0 0 0.1 0.1 0.2 0.1 0.2 0.4 0.2 0.1 0 0.1 0c0 0 0.1 0 0 0l-0.3 0.2-0.7 0.2-1.4 0.5q-1.3 0.6-2.6 1.2c-0.9 0.5-1.8 0.9-2.6 1.4-3.4 2-6.7 4.2-9.8 6.7q-2.3 1.8-4.6 3.8-1.1 1-2.2 2c-0.7 0.7-1.4 1.4-2.1 2.1l-0.9 0.9-1.3-0.3c-1.1-0.4-2.3-0.7-3.5-0.9q-1.8-0.4-3.6-0.8-3.6-0.7-7.3-1.1-1.8-0.1-3.6-0.2-1.8-0.1-3.6 0c-2.3 0.1-4.7 0.4-6.8 1.1l1.3-1.1c-3.8 8.2-7.7 16.3-11.8 24.4q-3 6.1-6.1 12.1l-3.1 6.1-3.1 6q-6.3 12-12.8 23.8-1.7 3-3.4 5.9-1.6 3-3.4 5.9-3.3 5.9-7 11.6z"/>
															</g>
														</g>
													</g>
												</g>
											</g>
										</g>
									</g>
								</g>
							</g>
						</g>
					</g>
				</g>
				<g id="&lt;Group&gt;">
					<g id="&lt;Group&gt;">
						<g id="&lt;Group&gt;">
							<g id="&lt;Group&gt;">
								<g id="&lt;Group&gt;">
									<g id="&lt;Group&gt;">
										<g id="&lt;Group&gt;">
											<g id="&lt;Group&gt;">
												<g id="&lt;Group&gt;">
													<g id="&lt;Group&gt;">
														<g id="&lt;Group&gt;">
															<g id="&lt;Group&gt;">
																<path id="&lt;Path&gt;" class="s1" d="m418.8 287.8c1-0.4 1.9-1.4 2.8-2.5 0.8-1.2 1.5-2.6 2.1-4q1-2.1 1.6-4.4 0.7-2.3 1.2-4.7 0.2 2.4 0.1 4.9 0 2.4-0.4 4.9c-0.2 1.7-0.6 3.3-1.2 5q-0.4 1.3-1.2 2.5c-0.5 0.9-1.1 1.7-2 2.4z"/>
															</g>
														</g>
													</g>
												</g>
											</g>
										</g>
									</g>
								</g>
							</g>
						</g>
					</g>
				</g>
				<g id="&lt;Group&gt;">
					<g id="&lt;Group&gt;">
						<g id="&lt;Group&gt;">
							<g id="&lt;Group&gt;">
								<g id="&lt;Group&gt;">
									<g id="&lt;Group&gt;">
										<g id="&lt;Group&gt;">
											<g id="&lt;Group&gt;">
												<g id="&lt;Group&gt;">
													<g id="&lt;Group&gt;">
														<g id="&lt;Group&gt;">
															<g id="&lt;Group&gt;">
																<path id="&lt;Path&gt;" class="s1" d="m413.5 317.5c-17.2 4.1-31.5 6.1-32.6 6.2l-0.5-3.5c0.5-0.1 53.9-7.2 78.4-24.1l2 3c-12.3 8.4-31.1 14.4-47.3 18.4z"/>
															</g>
														</g>
													</g>
												</g>
											</g>
										</g>
									</g>
								</g>
							</g>
						</g>
					</g>
				</g>
				<g id="&lt;Group&gt;">
					<g id="&lt;Group&gt;">
						<g id="&lt;Group&gt;">
							<g id="&lt;Group&gt;">
								<g id="&lt;Group&gt;">
									<g id="&lt;Group&gt;">
										<g id="&lt;Group&gt;">
											<g id="&lt;Group&gt;">
												<g id="&lt;Group&gt;">
													<g id="&lt;Group&gt;">
														<g id="&lt;Group&gt;">
															<g id="&lt;Group&gt;">
																<path id="&lt;Path&gt;" class="s1" d="m399.6 289.1c0.7 1.5 1 3.1 1.3 4.7q0.4 2.4 0.8 4.8 0.5 2.4 0.8 4.8 0.4 2.4 0.7 4.9-1-2.3-1.9-4.5-1-2.3-1.9-4.5-0.9-2.3-1.8-4.6c-0.6-1.5-1.1-3-1.4-4.6z"/>
															</g>
														</g>
													</g>
												</g>
											</g>
										</g>
									</g>
								</g>
							</g>
						</g>
					</g>
				</g>
				<g id="&lt;Group&gt;">
					<g id="&lt;Group&gt;">
						<g id="&lt;Group&gt;">
							<g id="&lt;Group&gt;">
								<g id="&lt;Group&gt;">
									<g id="&lt;Group&gt;">
										<g id="&lt;Group&gt;">
											<g id="&lt;Group&gt;">
												<g id="&lt;Group&gt;">
													<g id="&lt;Group&gt;">
														<g id="&lt;Group&gt;">
															<g id="&lt;Group&gt;">
																<path id="&lt;Path&gt;" class="s1" d="m433.1 310.5l-3.6 0.1c-0.2-9.7-5.1-18.4-5.1-18.5l3.1-1.8c0.2 0.4 5.4 9.6 5.6 20.2z"/>
															</g>
														</g>
													</g>
												</g>
											</g>
										</g>
									</g>
								</g>
							</g>
						</g>
					</g>
				</g>
				<g id="&lt;Group&gt;">
					<g id="&lt;Group&gt;">
						<g id="&lt;Group&gt;">
							<g id="&lt;Group&gt;">
								<g id="&lt;Group&gt;">
									<g id="&lt;Group&gt;">
										<g id="&lt;Group&gt;">
											<g id="&lt;Group&gt;">
												<g id="&lt;Group&gt;">
													<g id="&lt;Group&gt;">
														<g id="&lt;Group&gt;">
															<g id="&lt;Group&gt;">
																<path id="&lt;Path&gt;" class="s1" d="m405 317.9l-0.6-6.8 4 5.5z"/>
															</g>
														</g>
													</g>
												</g>
											</g>
										</g>
									</g>
								</g>
							</g>
						</g>
					</g>
				</g>
				<g id="&lt;Group&gt;">
					<g id="&lt;Group&gt;">
						<g id="&lt;Group&gt;">
							<g id="&lt;Group&gt;">
								<g id="&lt;Group&gt;">
									<g id="&lt;Group&gt;">
										<g id="&lt;Group&gt;">
											<g id="&lt;Group&gt;">
												<g id="&lt;Group&gt;">
													<g id="&lt;Group&gt;">
														<g id="&lt;Group&gt;">
															<g id="&lt;Group&gt;">
																<path id="&lt;Path&gt;" class="s1" d="m447.8 302.8c0.5-1 0.9-2.2 1.2-3.4 0.3-1.2 0.5-2.5 0.7-3.8q0.2-2 0.2-4 0.1-2 0-4 0.5 1.9 0.9 3.9 0.4 2 0.6 4.1c0.2 1.3 0.3 2.7 0.3 4.1-0.1 1.5-0.2 2.9-0.6 4.5z"/>
															</g>
														</g>
													</g>
												</g>
											</g>
										</g>
									</g>
								</g>
							</g>
						</g>
					</g>
				</g>
				<g id="&lt;Group&gt;">
					<g id="&lt;Group&gt;">
						<g id="&lt;Group&gt;">
							<g id="&lt;Group&gt;">
								<g id="&lt;Group&gt;">
									<g id="&lt;Group&gt;">
										<g id="&lt;Group&gt;">
											<g id="&lt;Group&gt;">
												<g id="&lt;Group&gt;">
													<g id="&lt;Group&gt;">
														<g id="&lt;Group&gt;">
															<g id="&lt;Group&gt;">
																<path id="&lt;Path&gt;" class="s1" d="m455.7 277c0.5 3.2 1.4 7.3 2.3 12-1 0.4-1.8 0.3-2-0.8-0.8-3.6-5.6-12.6-6.8-3.7-1.1-5.9-5.7-5.1-10.4-1.8l-1.1-1.6c3.7-2.6 7.9-5.3 12.3-7.2 2.5-1 5.2 0.5 5.7 3.1z"/>
															</g>
														</g>
													</g>
												</g>
											</g>
										</g>
									</g>
								</g>
							</g>
						</g>
					</g>
				</g>
				<g id="&lt;Group&gt;">
					<g id="&lt;Group&gt;">
						<g id="&lt;Group&gt;">
							<g id="&lt;Group&gt;">
								<g id="&lt;Group&gt;">
									<g id="&lt;Group&gt;">
										<g id="&lt;Group&gt;">
											<g id="&lt;Group&gt;">
												<g id="&lt;Group&gt;">
													<g id="&lt;Group&gt;">
														<g id="&lt;Group&gt;">
															<g id="&lt;Group&gt;">
																<path id="&lt;Path&gt;" class="s1" d="m391.5 302.6c-2 6.5-3.2 12.6-3.4 18.2l-7.7 1.6z"/>
															</g>
														</g>
													</g>
												</g>
											</g>
										</g>
									</g>
								</g>
							</g>
						</g>
					</g>
				</g>
				<g id="&lt;Group&gt;">
					<g id="&lt;Group&gt;">
						<g id="&lt;Group&gt;">
							<g id="&lt;Group&gt;">
								<g id="&lt;Group&gt;">
									<g id="&lt;Group&gt;">
										<g id="&lt;Group&gt;">
											<g id="&lt;Group&gt;">
												<g id="&lt;Group&gt;">
													<g id="&lt;Group&gt;">
														<g id="&lt;Group&gt;">
															<g id="&lt;Group&gt;">
																<path id="&lt;Path&gt;" class="s1" d="m386.6 316.2c-3.5 3.2-6.9 6.5-10.2 9.9q-5 5.1-9.8 10.3c-3.2 3.6-6.3 7.2-9.2 10.9q-2.2 2.9-4.2 5.8c-1.4 2-2.6 4-3.7 6.2 0.9-2.3 2-4.4 3.1-6.5q1.8-3.2 3.7-6.2c2.6-4 5.4-7.9 8.3-11.8q4.3-5.7 8.9-11.3c3.1-3.7 6.2-7.4 9.4-11z"/>
															</g>
														</g>
													</g>
												</g>
											</g>
										</g>
									</g>
								</g>
							</g>
						</g>
					</g>
				</g>
				<g id="&lt;Group&gt;">
					<g id="&lt;Group&gt;">
						<g id="&lt;Group&gt;">
							<g id="&lt;Group&gt;">
								<g id="&lt;Group&gt;">
									<g id="&lt;Group&gt;">
										<g id="&lt;Group&gt;">
											<g id="&lt;Group&gt;">
												<g id="&lt;Group&gt;">
													<g id="&lt;Group&gt;">
														<g id="&lt;Group&gt;">
															<g id="&lt;Group&gt;">
																<path id="&lt;Path&gt;" class="s1" d="m382.2 322.7q-8.4 11.4-16.7 22.9-4.1 5.8-8.2 11.6-2 2.9-4 5.8-2 2.9-3.9 5.9 1.6-3.1 3.3-6.2 1.8-3.2 3.5-6.2 3.6-6.2 7.2-12.3 7.2-12.2 14.5-24.4z"/>
															</g>
														</g>
													</g>
												</g>
											</g>
										</g>
									</g>
								</g>
							</g>
						</g>
					</g>
				</g>
				<g id="&lt;Group&gt;">
					<g id="&lt;Group&gt;">
						<g id="&lt;Group&gt;">
							<g id="&lt;Group&gt;">
								<g id="&lt;Group&gt;">
									<g id="&lt;Group&gt;">
										<g id="&lt;Group&gt;">
											<g id="&lt;Group&gt;">
												<g id="&lt;Group&gt;">
													<g id="&lt;Group&gt;">
														<g id="&lt;Group&gt;">
															<g id="&lt;Group&gt;">
																<path id="&lt;Path&gt;" class="s1" d="m351.8 377.7c1.1 1.3 2.2 2.5 3.4 3.7q1.7 1.9 3.4 3.7 3.6 3.5 7.3 6.9c4.9 4.5 10.1 8.8 15.5 12.7 5.5 3.9 11.1 7.6 16.9 10.7 5.9 3.2 12 5.9 18.4 8l-0.4-0.1c4.8 0.3 9.7-0.1 14.5-1.1 4.9-0.9 9.7-2.3 14.3-4 4.7-1.7 9.3-3.7 13.8-6 4.4-2.2 8.8-4.7 13-7.3l-0.3 0.5c0.2-2.9 0.2-5.9 0.1-8.8q-0.1-4.4-0.4-8.8-0.4-4.3-1.1-8.6-0.7-4.3-1.9-8.5l-0.2-0.7 0.5-0.7 9.4-13.7 3 2-9.5 13.7 0.3-1.4q0.9 4.4 1.4 8.9 0.4 4.4 0.5 8.9 0.1 4.5-0.1 8.9c-0.1 3-0.3 5.9-0.6 8.9v0.3l-0.3 0.2c-2 1.5-4.1 2.9-6.3 4.3q-3.2 2-6.5 3.8-6.7 3.7-13.8 6.6c-4.7 2-9.6 3.5-14.6 4.6-5 1.1-10.2 1.7-15.5 1.4h-0.2-0.2c-6.6-2.1-12.9-4.8-19-8-6.1-3.2-11.9-6.8-17.4-10.9-5.6-4-10.8-8.4-15.9-13q-3.8-3.5-7.3-7.1-1.8-1.9-3.5-3.8c-1.2-1.3-2.3-2.5-3.4-3.9z"/>
															</g>
														</g>
													</g>
												</g>
											</g>
										</g>
									</g>
								</g>
							</g>
						</g>
					</g>
				</g>
				<g id="&lt;Group&gt;">
					<g id="&lt;Group&gt;">
						<g id="&lt;Group&gt;">
							<g id="&lt;Group&gt;">
								<g id="&lt;Group&gt;">
									<g id="&lt;Group&gt;">
										<g id="&lt;Group&gt;">
											<g id="&lt;Group&gt;">
												<g id="&lt;Group&gt;">
													<g id="&lt;Group&gt;">
														<g id="&lt;Group&gt;">
															<g id="&lt;Group&gt;">
																<path id="&lt;Path&gt;" class="s1" d="m362.1 354.8c1.8-1.7 3.8-3.3 6-4.6l1.7-0.9q0.9-0.4 1.8-0.8c0.3-0.2 0.6-0.3 1-0.4l0.9-0.3c0.3-0.1 0.6-0.2 1-0.2l0.9-0.3c2.7-0.4 5.4-0.4 8 0.3 2.6 0.6 5 1.6 7.2 2.8l1.6 1q0.8 0.5 1.6 1l0.4 0.3 0.3 0.3 0.8 0.6q0.4 0.3 0.7 0.5l0.8 0.6c1.9 1.6 3.6 3.4 5.3 5.2q2.5 2.7 4.7 5.7c1.5 1.9 2.9 3.9 4.1 6.1q-2.6-2.6-5.2-5.1-2.6-2.5-5.3-4.9-2.7-2.4-5.6-4.5l-0.7-0.6-0.7-0.4-0.7-0.5-0.4-0.3-0.3-0.2q-0.8-0.5-1.5-0.9l-1.6-0.8c-2-1.1-4.2-1.9-6.3-2.4-0.6-0.1-1.1-0.2-1.6-0.3q-0.8 0-1.7-0.1c-0.5 0-1 0-1.6 0.1l-0.8 0.1c-0.3 0-0.5 0-0.8 0.1-2.1 0.4-4.2 1.2-6.2 2.3-2 1.1-3.9 2.5-5.8 3.9z"/>
															</g>
														</g>
													</g>
												</g>
											</g>
										</g>
									</g>
								</g>
							</g>
						</g>
					</g>
				</g>
				<g id="&lt;Group&gt;">
					<g id="&lt;Group&gt;">
						<g id="&lt;Group&gt;">
							<g id="&lt;Group&gt;">
								<g id="&lt;Group&gt;">
									<g id="&lt;Group&gt;">
										<g id="&lt;Group&gt;">
											<g id="&lt;Group&gt;">
												<g id="&lt;Group&gt;">
													<g id="&lt;Group&gt;">
														<g id="&lt;Group&gt;">
															<g id="&lt;Group&gt;">
																<path id="&lt;Path&gt;" class="s1" d="m448.9 396.4l-3.2-1.6c0.1-0.2 8.2-16.5 3.3-26.9-2.6-5.3-8.3-12.5-14.7-18.4-6.6-6-12.6-9.5-15.7-9-5 0.9-17.3 4-22.4 15.2l-3.3-1.5c5.9-12.7 19.5-16.2 25.1-17.2 5.8-0.9 14.2 5.8 18.7 9.9 6.7 6.1 12.8 13.8 15.5 19.4 5.7 12-2.9 29.4-3.3 30.1z"/>
															</g>
														</g>
													</g>
												</g>
											</g>
										</g>
									</g>
								</g>
							</g>
						</g>
					</g>
				</g>
				<g id="&lt;Group&gt;">
					<g id="&lt;Group&gt;">
						<g id="&lt;Group&gt;">
							<g id="&lt;Group&gt;">
								<g id="&lt;Group&gt;">
									<g id="&lt;Group&gt;">
										<g id="&lt;Group&gt;">
											<g id="&lt;Group&gt;">
												<g id="&lt;Group&gt;">
													<g id="&lt;Group&gt;">
														<g id="&lt;Group&gt;">
															<g id="&lt;Group&gt;">
																<path id="&lt;Path&gt;" class="s1" d="m410.1 362.1c1.6 1.2 2.8 2.7 3.9 4.3q1.6 2.4 2.7 5.1 1.1 2.7 1.7 5.6c0.4 1.9 0.6 3.8 0.5 5.7-0.9-1.7-1.6-3.4-2.3-5.2l-2.1-5.2q-1-2.6-2.1-5.1c-0.8-1.7-1.5-3.4-2.3-5.2z"/>
															</g>
														</g>
													</g>
												</g>
											</g>
										</g>
									</g>
								</g>
							</g>
						</g>
					</g>
				</g>
				<g id="&lt;Group&gt;">
					<g id="&lt;Group&gt;">
						<g id="&lt;Group&gt;">
							<g id="&lt;Group&gt;">
								<g id="&lt;Group&gt;">
									<g id="&lt;Group&gt;">
										<g id="&lt;Group&gt;">
											<g id="&lt;Group&gt;">
												<g id="&lt;Group&gt;">
													<g id="&lt;Group&gt;">
														<g id="&lt;Group&gt;">
															<g id="&lt;Group&gt;">
																<path id="&lt;Path&gt;" class="s1" d="m422.9 368.7c1.1 1.5 1.8 3.2 2.4 4.9q0.9 2.6 1.3 5.2 0.4 2.7 0.3 5.4c0 1.8-0.2 3.5-0.6 5.3-0.6-1.7-0.9-3.5-1.2-5.2q-0.5-2.6-0.9-5.1-0.4-2.6-0.7-5.2c-0.2-1.7-0.5-3.4-0.6-5.3z"/>
															</g>
														</g>
													</g>
												</g>
											</g>
										</g>
									</g>
								</g>
							</g>
						</g>
					</g>
				</g>
				<g id="&lt;Group&gt;">
					<g id="&lt;Group&gt;">
						<g id="&lt;Group&gt;">
							<g id="&lt;Group&gt;">
								<g id="&lt;Group&gt;">
									<g id="&lt;Group&gt;">
										<g id="&lt;Group&gt;">
											<g id="&lt;Group&gt;">
												<g id="&lt;Group&gt;">
													<g id="&lt;Group&gt;">
														<g id="&lt;Group&gt;">
															<g id="&lt;Group&gt;">
																<path id="&lt;Path&gt;" class="s4" d="m379.8 329.1c2.8-0.1 5.5 0.2 8.2 0.7 2.7 0.4 5.3 1.1 7.9 1.8q4 1.1 7.8 2.5c2.5 1 5 2 7.5 3.2-2.7-0.6-5.3-1.3-7.9-2l-7.8-2.2c-2.6-0.7-5.2-1.4-7.8-2.1-2.6-0.7-5.2-1.4-7.9-1.9z"/>
															</g>
														</g>
													</g>
												</g>
											</g>
										</g>
									</g>
								</g>
							</g>
						</g>
					</g>
				</g>
				<g id="&lt;Group&gt;">
					<g id="&lt;Group&gt;">
						<g id="&lt;Group&gt;">
							<g id="&lt;Group&gt;">
								<g id="&lt;Group&gt;">
									<g id="&lt;Group&gt;">
										<g id="&lt;Group&gt;">
											<g id="&lt;Group&gt;">
												<g id="&lt;Group&gt;">
													<g id="&lt;Group&gt;">
														<g id="&lt;Group&gt;">
															<g id="&lt;Group&gt;">
																<path id="&lt;Path&gt;" class="s4" d="m378.3 333.9c2.4-0.4 4.8-0.5 7.1-0.4 2.4 0.1 4.8 0.4 7.1 0.7q1.8 0.3 3.5 0.7c1.2 0.3 2.3 0.5 3.5 0.8 2.3 0.7 4.5 1.4 6.7 2.4q-3.5-0.8-6.9-1.5-1.7-0.3-3.5-0.6l-1.7-0.3-1.8-0.3-1.7-0.2-1.7-0.3q-1.8-0.2-3.5-0.4-3.5-0.4-7.1-0.6z"/>
															</g>
														</g>
													</g>
												</g>
											</g>
										</g>
									</g>
								</g>
							</g>
						</g>
					</g>
				</g>
				<g id="&lt;Group&gt;">
					<g id="&lt;Group&gt;">
						<g id="&lt;Group&gt;">
							<g id="&lt;Group&gt;">
								<g id="&lt;Group&gt;">
									<g id="&lt;Group&gt;">
										<g id="&lt;Group&gt;">
											<g id="&lt;Group&gt;">
												<g id="&lt;Group&gt;">
													<g id="&lt;Group&gt;">
														<g id="&lt;Group&gt;">
															<g id="&lt;Group&gt;">
																<path id="&lt;Path&gt;" class="s1" d="m468.4 371.1c-4.4-9.1-20-13.9-26.6-16q-1.5-0.4-2.4-0.7l1.2-3.4c0.5 0.2 1.3 0.4 2.2 0.7 7.1 2.2 23.7 7.3 28.8 17.8z"/>
															</g>
														</g>
													</g>
												</g>
											</g>
										</g>
									</g>
								</g>
							</g>
						</g>
					</g>
				</g>
				<g id="&lt;Group&gt;">
					<g id="&lt;Group&gt;">
						<g id="&lt;Group&gt;">
							<g id="&lt;Group&gt;">
								<g id="&lt;Group&gt;">
									<g id="&lt;Group&gt;">
										<g id="&lt;Group&gt;">
											<g id="&lt;Group&gt;">
												<g id="&lt;Group&gt;">
													<g id="&lt;Group&gt;">
														<g id="&lt;Group&gt;">
															<g id="&lt;Group&gt;">
																<path id="&lt;Path&gt;" class="s1" d="m455.9 348.8c-0.6-2.1-0.9-4.3-1.2-6.5q-0.5-3.2-0.7-6.5-0.2-3.3-0.2-6.6c0-2.2 0-4.4 0.3-6.6 0.5 2.2 0.9 4.3 1.2 6.5q0.5 3.3 0.7 6.6 0.2 3.2 0.2 6.5c0 2.2 0 4.4-0.3 6.6z"/>
															</g>
														</g>
													</g>
												</g>
											</g>
										</g>
									</g>
								</g>
							</g>
						</g>
					</g>
				</g>
				<g id="&lt;Group&gt;">
					<g id="&lt;Group&gt;">
						<g id="&lt;Group&gt;">
							<g id="&lt;Group&gt;">
								<g id="&lt;Group&gt;">
									<g id="&lt;Group&gt;">
										<g id="&lt;Group&gt;">
											<g id="&lt;Group&gt;">
												<g id="&lt;Group&gt;">
													<g id="&lt;Group&gt;">
														<g id="&lt;Group&gt;">
															<g id="&lt;Group&gt;">
																<path id="&lt;Path&gt;" class="s1" d="m422.5 289.1c1.4-1.3 2.8-2.8 3.9-4.4l0.5-0.6q0.2-0.3 0.4-0.6l0.8-1.3c0.4-0.9 0.9-1.8 1.3-2.8q1.2-2.8 1.9-5.9c0.5-2 0.8-4.1 0.8-6.2 0.4 2.1 0.5 4.2 0.5 6.4q-0.1 3.3-0.7 6.5c-0.2 1.1-0.6 2.2-0.9 3.2l-0.6 1.6q-0.1 0.4-0.3 0.8l-0.3 0.8c-0.9 2.1-2.1 4-3.5 5.9z"/>
															</g>
														</g>
													</g>
												</g>
											</g>
										</g>
									</g>
								</g>
							</g>
						</g>
					</g>
				</g>
				<g id="&lt;Group&gt;">
					<g id="&lt;Group&gt;">
						<g id="&lt;Group&gt;">
							<g id="&lt;Group&gt;">
								<g id="&lt;Group&gt;">
									<g id="&lt;Group&gt;">
										<g id="&lt;Group&gt;">
											<g id="&lt;Group&gt;">
												<g id="&lt;Group&gt;">
													<g id="&lt;Group&gt;">
														<g id="&lt;Group&gt;">
															<g id="&lt;Group&gt;">
																<path id="&lt;Path&gt;" class="s1" d="m429.3 283.9q2-1.5 3.5-3.7c1-1.4 1.7-3 2.3-4.8 0.7-1.7 1.1-3.5 1.5-5.4 0.3-1.9 0.6-3.8 1-5.7 0.1 1.9 0.2 3.9 0.3 5.8 0 1.9 0 3.9-0.2 5.9-0.3 2-0.7 4-1.5 6-0.8 2-1.9 3.9-3.3 5.6z"/>
															</g>
														</g>
													</g>
												</g>
											</g>
										</g>
									</g>
								</g>
							</g>
						</g>
					</g>
				</g>
				<g id="&lt;Group&gt;">
					<g id="&lt;Group&gt;">
						<g id="&lt;Group&gt;">
							<g id="&lt;Group&gt;">
								<g id="&lt;Group&gt;">
									<g id="&lt;Group&gt;">
										<g id="&lt;Group&gt;">
											<g id="&lt;Group&gt;">
												<g id="&lt;Group&gt;">
													<g id="&lt;Group&gt;">
														<g id="&lt;Group&gt;">
															<g id="&lt;Group&gt;">
																<g id="&lt;Group&gt;">
																	<path id="&lt;Path&gt;" class="s1" d="m444 259.1c0.2 1.8 0.4 3.6 0.5 5.5 0.1 1.9 0.1 3.8-0.1 5.8-0.2 1.9-0.7 3.9-1.4 5.9-0.8 1.9-1.9 3.8-3.1 5.5l-4-4c0.1-0.8 0.2-1.6 0.1-2.3q1.1-0.9 2.1-2.1 1.6-1.7 2.7-4c0.7-1.6 1.3-3.3 1.8-5 0.5-1.7 1-3.5 1.4-5.3z"/>
																</g>
															</g>
														</g>
													</g>
												</g>
											</g>
										</g>
									</g>
								</g>
							</g>
						</g>
					</g>
				</g>
				<g id="&lt;Group&gt;">
					<g id="&lt;Group&gt;">
						<g id="&lt;Group&gt;">
							<g id="&lt;Group&gt;">
								<g id="&lt;Group&gt;">
									<g id="&lt;Group&gt;">
										<g id="&lt;Group&gt;">
											<g id="&lt;Group&gt;">
												<g id="&lt;Group&gt;">
													<g id="&lt;Group&gt;">
														<g id="&lt;Group&gt;">
															<g id="&lt;Group&gt;">
																<path id="&lt;Path&gt;" class="s1" d="m439.7 276.2c0.2-0.2 0.6-0.4 0.9-0.6q0.4-0.3 0.9-0.7 0.9-0.7 1.7-1.4 1.8-1.6 3.3-3.4c1-1.2 1.8-2.5 2.6-3.9l0.5-1.1q0.2-0.5 0.4-1.1l0.2-0.6q0.1-0.3 0.2-0.6l0.3-1.1v1.2q0 0.3 0 0.6v0.6q-0.1 0.7-0.2 1.3l-0.2 1.2c-0.4 1.6-0.9 3.3-1.6 4.8q-1.1 2.4-2.5 4.6-0.7 1-1.5 2.1-0.4 0.5-0.8 1-0.3 0.3-0.5 0.5l-0.2 0.3q-0.1 0.1-0.3 0.3z"/>
															</g>
														</g>
													</g>
												</g>
											</g>
										</g>
									</g>
								</g>
							</g>
						</g>
					</g>
				</g>
				<g id="&lt;Group&gt;">
					<g id="&lt;Group&gt;">
						<g id="&lt;Group&gt;">
							<g id="&lt;Group&gt;">
								<g id="&lt;Group&gt;">
									<g id="&lt;Group&gt;">
										<g id="&lt;Group&gt;">
											<g id="&lt;Group&gt;">
												<g id="&lt;Group&gt;">
													<g id="&lt;Group&gt;">
														<g id="&lt;Group&gt;">
															<g id="&lt;Group&gt;">
																<path id="&lt;Path&gt;" class="s1" d="m350.4 380.4l29.6 34.2-33.6-30.4z"/>
															</g>
														</g>
													</g>
												</g>
											</g>
										</g>
									</g>
								</g>
							</g>
						</g>
					</g>
				</g>
				<g id="&lt;Group&gt;">
					<g id="&lt;Group&gt;">
						<g id="&lt;Group&gt;">
							<g id="&lt;Group&gt;">
								<g id="&lt;Group&gt;">
									<g id="&lt;Group&gt;">
										<g id="&lt;Group&gt;">
											<g id="&lt;Group&gt;">
												<g id="&lt;Group&gt;">
													<g id="&lt;Group&gt;">
														<g id="&lt;Group&gt;">
															<g id="&lt;Group&gt;">
																<path id="&lt;Path&gt;" class="s1" d="m351.4 394.1c0.7 1.3 1.8 2.6 3 3.8q0.4 0.5 0.9 0.9 0.4 0.5 0.9 1 0.9 0.9 1.8 1.8 3.9 3.5 7.9 7 4.1 3.4 8.2 6.7 4.1 3.3 8.3 6.6-4.6-2.6-9.1-5.4-4.5-2.9-8.9-6c-2.9-2.1-5.7-4.3-8.4-6.7q-1-0.9-2-1.9-1-0.9-1.9-1.9-0.4-0.5-0.9-1.1l-0.4-0.5-0.4-0.6q-0.9-1.2-1.5-2.5z"/>
															</g>
														</g>
													</g>
												</g>
											</g>
										</g>
									</g>
								</g>
							</g>
						</g>
					</g>
				</g>
				<g id="&lt;Group&gt;">
					<g id="&lt;Group&gt;">
						<g id="&lt;Group&gt;">
							<g id="&lt;Group&gt;">
								<g id="&lt;Group&gt;">
									<g id="&lt;Group&gt;">
										<g id="&lt;Group&gt;">
											<g id="&lt;Group&gt;">
												<g id="&lt;Group&gt;">
													<g id="&lt;Group&gt;">
														<g id="&lt;Group&gt;">
															<g id="&lt;Group&gt;">
																<path id="&lt;Path&gt;" class="s1" d="m355.4 401q0.4 0.6 0.8 1.2l0.9 1.2c0.3 0.5 0.6 0.8 0.9 1.2q0.5 0.6 1 1.2 1.1 1.2 2.1 2.4l1.1 1.1 1.1 1.2c3 3 6 6 9.2 8.9q1.2 1.1 2.4 2.1l2.4 2.1c1.6 1.4 3.2 2.8 4.9 4.1q5 4.1 10.3 7.8c-4-1.7-7.8-3.8-11.5-6.1-0.9-0.6-1.8-1.1-2.7-1.7l-2.7-1.9-2.7-1.9q-1.3-1-2.6-2-5.2-4-9.8-8.6l-1.2-1.2-1.1-1.2c-0.8-0.8-1.5-1.7-2.2-2.5-0.4-0.4-0.7-0.9-1-1.3l-0.5-0.7q-0.3-0.3-0.5-0.7l-1-1.4q-0.4-0.8-0.8-1.6z"/>
															</g>
														</g>
													</g>
												</g>
											</g>
										</g>
									</g>
								</g>
							</g>
						</g>
					</g>
				</g>
				<g id="&lt;Group&gt;">
					<g id="&lt;Group&gt;">
						<g id="&lt;Group&gt;">
							<g id="&lt;Group&gt;">
								<g id="&lt;Group&gt;">
									<g id="&lt;Group&gt;">
										<g id="&lt;Group&gt;">
											<g id="&lt;Group&gt;">
												<g id="&lt;Group&gt;">
													<g id="&lt;Group&gt;">
														<g id="&lt;Group&gt;">
															<g id="&lt;Group&gt;">
																<path id="&lt;Path&gt;" class="s1" d="m361.8 412.8q1.9 2.4 3.8 4.7c0.7 0.7 1.3 1.5 2 2.2l1.1 1.1 1 1.1q4.2 4.4 8.9 8.3c3.1 2.5 6.3 4.9 9.7 7q5.1 3.3 10.6 5.8c7.3 3.5 15.1 5.8 23.1 7.2q5.9 1.1 12.1 1.5c4 0.3 8.1 0.4 12.3 0.4q-1.5 0.3-3.1 0.6c-0.5 0.1-1 0.2-1.5 0.2l-1.6 0.2-1.5 0.2-0.8 0.1-0.8 0.1-3.1 0.2c-4.1 0.1-8.3 0-12.5-0.4l-3.1-0.4-3.1-0.6c-2.1-0.4-4.1-0.8-6.1-1.4q-6.1-1.7-11.9-4.2-5.8-2.6-11.2-5.9-5.4-3.4-10.2-7.4c-3.3-2.7-6.3-5.6-9.1-8.7q-4.3-4.7-7.9-9.8z"/>
															</g>
														</g>
													</g>
												</g>
											</g>
										</g>
									</g>
								</g>
							</g>
						</g>
					</g>
				</g>
				<g id="&lt;Group&gt;">
					<g id="&lt;Group&gt;">
						<g id="&lt;Group&gt;">
							<g id="&lt;Group&gt;">
								<g id="&lt;Group&gt;">
									<g id="&lt;Group&gt;">
										<g id="&lt;Group&gt;">
											<g id="&lt;Group&gt;">
												<g id="&lt;Group&gt;">
													<g id="&lt;Group&gt;">
														<g id="&lt;Group&gt;">
															<g id="&lt;Group&gt;">
																<path id="&lt;Path&gt;" class="s1" d="m370.4 424c4.1 4.2 8.2 8.3 12.6 12.1q3.3 2.8 6.8 5.4 1.8 1.3 3.6 2.5 1.8 1.2 3.6 2.2 1 0.6 1.9 1.1 1 0.5 1.9 1 1 0.5 2 1 0.9 0.5 1.9 0.9c2.7 1.2 5.4 2.3 8.1 3.2 5.5 1.8 11.3 3 17.2 3.7-3 0.3-6 0.3-8.9 0.1q-2.3-0.2-4.5-0.5l-2.2-0.4q-1.2-0.2-2.3-0.4c-2.9-0.7-5.8-1.5-8.6-2.6q-1.1-0.4-2.1-0.8-1.1-0.5-2.1-0.9-1.1-0.5-2.1-1-1-0.5-2-1.1-2-1-3.9-2.2-2-1.2-3.8-2.5-3.8-2.6-7.2-5.6c-4.6-3.9-8.7-8.2-12.5-12.8z"/>
															</g>
														</g>
													</g>
												</g>
											</g>
										</g>
									</g>
								</g>
							</g>
						</g>
					</g>
				</g>
				<g id="&lt;Group&gt;">
					<g id="&lt;Group&gt;">
						<g id="&lt;Group&gt;">
							<g id="&lt;Group&gt;">
								<g id="&lt;Group&gt;">
									<g id="&lt;Group&gt;">
										<g id="&lt;Group&gt;">
											<g id="&lt;Group&gt;">
												<g id="&lt;Group&gt;">
													<g id="&lt;Group&gt;">
														<g id="&lt;Group&gt;">
															<g id="&lt;Group&gt;">
																<path id="&lt;Path&gt;" class="s1" d="m405.2 440.3c5.4 1.3 10.7 2.5 16 3.4 5.4 0.8 10.7 1.3 16.1 1.3q8.1 0 16-1.4c5.4-0.9 10.7-2.2 16-3.7-4.8 2.9-9.9 5-15.4 6.5-5.4 1.4-11 2.2-16.6 2.2-5.6 0-11.2-0.8-16.7-2.2-5.4-1.4-10.6-3.5-15.4-6.1z"/>
															</g>
														</g>
													</g>
												</g>
											</g>
										</g>
									</g>
								</g>
							</g>
						</g>
					</g>
				</g>
				<g id="&lt;Group&gt;">
					<g id="&lt;Group&gt;">
						<g id="&lt;Group&gt;">
							<g id="&lt;Group&gt;">
								<g id="&lt;Group&gt;">
									<g id="&lt;Group&gt;">
										<g id="&lt;Group&gt;">
											<g id="&lt;Group&gt;">
												<g id="&lt;Group&gt;">
													<g id="&lt;Group&gt;">
														<g id="&lt;Group&gt;">
															<g id="&lt;Group&gt;">
																<path id="&lt;Path&gt;" class="s1" d="m436.8 440.9q5.9-0.6 11.7-1.5 5.9-0.8 11.6-2 5.8-1.2 11.5-2.6c3.7-1 7.5-2.2 11.2-3.6-3.2 2.3-6.9 4-10.7 5.3-3.7 1.4-7.6 2.4-11.5 3.2q-5.9 1.2-11.9 1.6c-4 0.2-8 0.2-11.9-0.4z"/>
															</g>
														</g>
													</g>
												</g>
											</g>
										</g>
									</g>
								</g>
							</g>
						</g>
					</g>
				</g>
				<g id="&lt;Group&gt;">
					<g id="&lt;Group&gt;">
						<g id="&lt;Group&gt;">
							<g id="&lt;Group&gt;">
								<g id="&lt;Group&gt;">
									<g id="&lt;Group&gt;">
										<g id="&lt;Group&gt;">
											<g id="&lt;Group&gt;">
												<g id="&lt;Group&gt;">
													<g id="&lt;Group&gt;">
														<g id="&lt;Group&gt;">
															<g id="&lt;Group&gt;">
																<path id="&lt;Path&gt;" class="s1" d="m389.1 411c6.5-1.4 13-3 19.5-4.7 6.5-1.7 13-3.5 19.4-5.4q2.5-0.8 4.8-1.5 2.5-0.8 4.8-1.6l4.8-1.6 4.7-1.7c6.3-2.3 12.5-4.9 18.6-7.7l1.1-0.3 0.4 0.5 5.6 6.4-0.2 0.2-7.2-4.5 1.5 0.2c-6.2 2.9-12.5 5.4-18.8 7.8l-4.8 1.7-4.8 1.6q-2.4 0.8-4.8 1.6-2.4 0.8-4.9 1.5c-6.4 2-12.9 3.8-19.5 5.5-6.5 1.7-13 3.3-19.7 4.7z"/>
															</g>
														</g>
													</g>
												</g>
											</g>
										</g>
									</g>
								</g>
							</g>
						</g>
					</g>
				</g>
				<g id="&lt;Group&gt;">
					<g id="&lt;Group&gt;">
						<g id="&lt;Group&gt;">
							<g id="&lt;Group&gt;">
								<g id="&lt;Group&gt;">
									<g id="&lt;Group&gt;">
										<g id="&lt;Group&gt;">
											<g id="&lt;Group&gt;">
												<g id="&lt;Group&gt;">
													<g id="&lt;Group&gt;">
														<g id="&lt;Group&gt;">
															<g id="&lt;Group&gt;">
																<path id="&lt;Path&gt;" class="s1" d="m419.6 404.6l4.8 16.2-8.1-14.9z"/>
															</g>
														</g>
													</g>
												</g>
											</g>
										</g>
									</g>
								</g>
							</g>
						</g>
					</g>
				</g>
				<g id="&lt;Group&gt;">
					<g id="&lt;Group&gt;">
						<g id="&lt;Group&gt;">
							<g id="&lt;Group&gt;">
								<g id="&lt;Group&gt;">
									<g id="&lt;Group&gt;">
										<g id="&lt;Group&gt;">
											<g id="&lt;Group&gt;">
												<g id="&lt;Group&gt;">
													<g id="&lt;Group&gt;">
														<g id="&lt;Group&gt;">
															<g id="&lt;Group&gt;">
																<path id="&lt;Path&gt;" class="s1" d="m446.7 395.8c0.1 0.3 0.1 0.5 0.2 0.7q0.1 0.2 0.2 0.5 0.2 0.6 0.4 1.1 0.3 1.2 0.6 2.3 0.5 2.2 0.9 4.4 0.4 2.3 0.6 4.5 0.1 1.1 0.2 2.3l0.1 2.2-0.6-2.2q-0.3-1-0.6-2.1-0.6-2.1-1.4-4.2-0.8-2.1-1.7-4-0.5-1-1-2-0.3-0.4-0.5-0.9-0.2-0.2-0.3-0.4c-0.1-0.2-0.2-0.4-0.2-0.4z"/>
															</g>
														</g>
													</g>
												</g>
											</g>
										</g>
									</g>
								</g>
							</g>
						</g>
					</g>
				</g>
				<g id="&lt;Group&gt;">
					<g id="&lt;Group&gt;">
						<g id="&lt;Group&gt;">
							<g id="&lt;Group&gt;">
								<g id="&lt;Group&gt;">
									<g id="&lt;Group&gt;">
										<g id="&lt;Group&gt;">
											<g id="&lt;Group&gt;">
												<g id="&lt;Group&gt;">
													<g id="&lt;Group&gt;">
														<g id="&lt;Group&gt;">
															<g id="&lt;Group&gt;">
																<path id="&lt;Path&gt;" class="s1" d="m461.5 390.1l5.5 14.1-8.7-12.4z"/>
															</g>
														</g>
													</g>
												</g>
											</g>
										</g>
									</g>
								</g>
							</g>
						</g>
					</g>
				</g>
				<g id="&lt;Group&gt;">
					<g id="&lt;Group&gt;">
						<g id="&lt;Group&gt;">
							<g id="&lt;Group&gt;">
								<g id="&lt;Group&gt;">
									<g id="&lt;Group&gt;">
										<g id="&lt;Group&gt;">
											<g id="&lt;Group&gt;">
												<g id="&lt;Group&gt;">
													<g id="&lt;Group&gt;">
														<g id="&lt;Group&gt;">
															<g id="&lt;Group&gt;">
																<path id="&lt;Path&gt;" class="s1" d="m450.7 394.7c0.3-0.4 0.5-0.9 0.7-1.4l0.6-1.4q0.7-1.4 1.5-2.7 0.8-1.4 1.9-2.6 0.5-0.6 1.1-1.1 0.7-0.5 1.3-0.9c1.9-1.2 3.8-2 5.7-2.8 2-0.7 3.9-1.4 6-2h1.8v1.2l0.1 7.1-3.1-6.4 1.8 1.2c-1.9 0.3-3.9 0.7-5.8 1.2-2 0.5-3.9 1.1-5.7 1.9-1.7 0.8-3.2 2.1-4.5 3.6q-0.9 1.2-1.7 2.5l-0.8 1.3c-0.3 0.5-0.6 0.9-0.9 1.3z"/>
															</g>
														</g>
													</g>
												</g>
											</g>
										</g>
									</g>
								</g>
							</g>
						</g>
					</g>
				</g>
				<g id="&lt;Group&gt;">
					<g id="&lt;Group&gt;">
						<g id="&lt;Group&gt;">
							<g id="&lt;Group&gt;">
								<g id="&lt;Group&gt;">
									<g id="&lt;Group&gt;">
										<g id="&lt;Group&gt;">
											<g id="&lt;Group&gt;">
												<g id="&lt;Group&gt;">
													<g id="&lt;Group&gt;">
														<g id="&lt;Group&gt;">
															<g id="&lt;Group&gt;">
																<path id="&lt;Path&gt;" class="s1" d="m453.4 377.7l-2.1-2.9c0.4-0.3 9.9-6.7 19.5-4.7l-0.8 3.5c-8.1-1.7-16.6 4.1-16.6 4.1z"/>
															</g>
														</g>
													</g>
												</g>
											</g>
										</g>
									</g>
								</g>
							</g>
						</g>
					</g>
				</g>
				<g id="&lt;Group&gt;">
					<g id="&lt;Group&gt;">
						<g id="&lt;Group&gt;">
							<g id="&lt;Group&gt;">
								<g id="&lt;Group&gt;">
									<g id="&lt;Group&gt;">
										<g id="&lt;Group&gt;">
											<g id="&lt;Group&gt;">
												<g id="&lt;Group&gt;">
													<g id="&lt;Group&gt;">
														<g id="&lt;Group&gt;">
															<g id="&lt;Group&gt;">
																<path id="&lt;Path&gt;" class="s1" d="m471.1 375.1c-0.9 0.1-1.9 0.3-2.8 0.6-1 0.3-2 0.8-3 1.2q-1.5 0.7-2.9 1.4-1.5 0.8-2.9 1.7 1.1-1.2 2.3-2.4 1.2-1.1 2.5-2.2c0.9-0.7 1.8-1.4 2.8-2.1 1-0.6 2-1.2 3.3-1.6z"/>
															</g>
														</g>
													</g>
												</g>
											</g>
										</g>
									</g>
								</g>
							</g>
						</g>
					</g>
				</g>
				<g id="&lt;Group&gt;">
					<g id="&lt;Group&gt;">
						<g id="&lt;Group&gt;">
							<g id="&lt;Group&gt;">
								<g id="&lt;Group&gt;">
									<g id="&lt;Group&gt;">
										<g id="&lt;Group&gt;">
											<g id="&lt;Group&gt;">
												<g id="&lt;Group&gt;">
													<g id="&lt;Group&gt;">
														<g id="&lt;Group&gt;">
															<g id="&lt;Group&gt;">
																<path id="&lt;Path&gt;" class="s1" d="m451.1 373.3q1.1-1.5 2.5-2.7 1.4-1.2 3-2c2.1-1.1 4.3-1.7 6.6-2.1-2.2 0.8-4.2 1.9-5.9 3.2-1.7 1.4-3 3.1-3.8 5z"/>
															</g>
														</g>
													</g>
												</g>
											</g>
										</g>
									</g>
								</g>
							</g>
						</g>
					</g>
				</g>
				<g id="&lt;Group&gt;">
					<g id="&lt;Group&gt;">
						<g id="&lt;Group&gt;">
							<g id="&lt;Group&gt;">
								<g id="&lt;Group&gt;">
									<g id="&lt;Group&gt;">
										<g id="&lt;Group&gt;">
											<g id="&lt;Group&gt;">
												<g id="&lt;Group&gt;">
													<g id="&lt;Group&gt;">
														<g id="&lt;Group&gt;">
															<g id="&lt;Group&gt;">
																<path id="&lt;Path&gt;" class="s1" d="m463 364.3c-0.7-0.2-1.5-0.2-2.2-0.2q-1.2 0-2.4 0.2-1.2 0.1-2.4 0.5-1.2 0.3-2.3 0.8 0.8-1 1.8-1.8 1-0.8 2.1-1.6 1.1-0.7 2.4-1.3c0.8-0.4 1.7-0.7 2.6-1z"/>
															</g>
														</g>
													</g>
												</g>
											</g>
										</g>
									</g>
								</g>
							</g>
						</g>
					</g>
				</g>
				<g id="&lt;Group&gt;">
					<g id="&lt;Group&gt;">
						<g id="&lt;Group&gt;">
							<g id="&lt;Group&gt;">
								<g id="&lt;Group&gt;">
									<g id="&lt;Group&gt;">
										<g id="&lt;Group&gt;">
											<g id="&lt;Group&gt;">
												<g id="&lt;Group&gt;">
													<g id="&lt;Group&gt;">
														<g id="&lt;Group&gt;">
															<g id="&lt;Group&gt;">
																<path id="&lt;Path&gt;" class="s1" d="m447.7 362l-1.5-1.8c2.9-2.5 7-3.4 9.8-3.1l-0.2 2.4c-2.3-0.3-5.8 0.6-8.1 2.5z"/>
															</g>
														</g>
													</g>
												</g>
											</g>
										</g>
									</g>
								</g>
							</g>
						</g>
					</g>
				</g>
				<g id="&lt;Group&gt;">
					<g id="&lt;Group&gt;">
						<g id="&lt;Group&gt;">
							<g id="&lt;Group&gt;">
								<g id="&lt;Group&gt;">
									<g id="&lt;Group&gt;">
										<g id="&lt;Group&gt;">
											<g id="&lt;Group&gt;">
												<g id="&lt;Group&gt;">
													<g id="&lt;Group&gt;">
														<g id="&lt;Group&gt;">
															<g id="&lt;Group&gt;">
																<path id="&lt;Path&gt;" class="s1" d="m469.7 376.5q0.9-1.6 1.9-3c0.7-1 1.4-1.9 2.3-2.7 0.8-0.9 1.8-1.6 2.8-2.1 1-0.6 2-1 3.1-1.4-0.9 0.7-1.8 1.3-2.6 2.1q-1.2 1.1-1.9 2.5c-1.1 1.8-1.7 3.8-2.2 5.9z"/>
															</g>
														</g>
													</g>
												</g>
											</g>
										</g>
									</g>
								</g>
							</g>
						</g>
					</g>
				</g>
				<g id="&lt;Group&gt;">
					<g id="&lt;Group&gt;">
						<g id="&lt;Group&gt;">
							<g id="&lt;Group&gt;">
								<g id="&lt;Group&gt;">
									<g id="&lt;Group&gt;">
										<g id="&lt;Group&gt;">
											<g id="&lt;Group&gt;">
												<g id="&lt;Group&gt;">
													<g id="&lt;Group&gt;">
														<g id="&lt;Group&gt;">
															<g id="&lt;Group&gt;">
																<path id="&lt;Path&gt;" class="s1" d="m353.3 375.1q4.8 3.8 9.8 7.5c3.3 2.5 6.7 5 10.1 7.4q2.6 1.9 5.2 3.6 2.7 1.8 5.3 3.5 5.3 3.5 10.8 6.8c-4.1-1.2-8.1-2.7-12.1-4.3q-1.5-0.7-2.9-1.3c-1-0.5-2-0.9-2.9-1.4q-3-1.3-5.8-2.8c-3.8-2-7.6-4.1-11.2-6.5-3.6-2.5-7-5.2-10-8.4z"/>
															</g>
														</g>
													</g>
												</g>
											</g>
										</g>
									</g>
								</g>
							</g>
						</g>
					</g>
				</g>
				<g id="&lt;Group&gt;">
					<g id="&lt;Group&gt;">
						<g id="&lt;Group&gt;">
							<g id="&lt;Group&gt;">
								<g id="&lt;Group&gt;">
									<g id="&lt;Group&gt;">
										<g id="&lt;Group&gt;">
											<g id="&lt;Group&gt;">
												<g id="&lt;Group&gt;">
													<g id="&lt;Group&gt;">
														<g id="&lt;Group&gt;">
															<g id="&lt;Group&gt;">
																<path id="&lt;Path&gt;" class="s1" d="m396.2 289.5l7.4-1.2-3 7.4z"/>
															</g>
														</g>
													</g>
												</g>
											</g>
										</g>
									</g>
								</g>
							</g>
						</g>
					</g>
				</g>
				<g id="&lt;Group&gt;">
					<g id="&lt;Group&gt;">
						<g id="&lt;Group&gt;">
							<g id="&lt;Group&gt;">
								<g id="&lt;Group&gt;">
									<g id="&lt;Group&gt;">
										<g id="&lt;Group&gt;">
											<g id="&lt;Group&gt;">
												<g id="&lt;Group&gt;">
													<g id="&lt;Group&gt;">
														<g id="&lt;Group&gt;">
															<g id="&lt;Group&gt;">
																<path id="&lt;Path&gt;" class="s1" d="m457.2 273.6c2.9 14.9 5.5 19.2 6 22.3 0.6 3 0.7 13.5 1.5 19 0.9 5.5-3.6-10.9-3.6-10.9l-4.3-21.1-1.6-8.1z"/>
															</g>
														</g>
													</g>
												</g>
											</g>
										</g>
									</g>
								</g>
							</g>
						</g>
					</g>
				</g>
				<g id="&lt;Group&gt;">
					<g id="&lt;Group&gt;">
						<g id="&lt;Group&gt;">
							<g id="&lt;Group&gt;">
								<g id="&lt;Group&gt;">
									<g id="&lt;Group&gt;">
										<g id="&lt;Group&gt;">
											<g id="&lt;Group&gt;">
												<g id="&lt;Group&gt;">
													<g id="&lt;Group&gt;">
														<g id="&lt;Group&gt;">
															<g id="&lt;Group&gt;">
																<path id="&lt;Path&gt;" class="s1" d="m375.4 402.5c0 0 22.9 7.9 29.4 6.2l-14.7 3.6z"/>
															</g>
														</g>
													</g>
												</g>
											</g>
										</g>
									</g>
								</g>
							</g>
						</g>
					</g>
				</g>
				<g id="&lt;Group&gt;">
					<g id="&lt;Group&gt;">
						<g id="&lt;Group&gt;">
							<g id="&lt;Group&gt;">
								<g id="&lt;Group&gt;">
									<g id="&lt;Group&gt;">
										<g id="&lt;Group&gt;">
											<g id="&lt;Group&gt;">
												<g id="&lt;Group&gt;">
													<g id="&lt;Group&gt;">
														<g id="&lt;Group&gt;">
															<g id="&lt;Group&gt;">
																<path id="&lt;Path&gt;" class="s1" d="m428.5 401.9c0 0 19.1-8.6 23-16.1l-4.8 10.4z"/>
															</g>
														</g>
													</g>
												</g>
											</g>
										</g>
									</g>
								</g>
							</g>
						</g>
					</g>
				</g>
				<g id="&lt;Group&gt;">
					<path id="&lt;Path&gt;" class="s3" d="m409.3 386.8c4 2.3 10.9 3.4 8.7 8.5-4.1 5-10.9 1.8-14.3-1.4-3.4-3.2-4.6-7.7-2.8-9.7 1.9-2 4.1 0.1 8.4 2.6z"/>
				</g>
				<g id="&lt;Group&gt;">
					<path id="&lt;Path&gt;" class="s3" d="m439.9 377.8c0.3 3-0.7 5.5-2.2 5.7-1.6 0.2-3.2-2.1-3.5-5-0.3-2.9 0.6-5.5 2.2-5.6 1.6-0.2 3.1 2 3.5 4.9z"/>
				</g>
				<g id="&lt;Group&gt;">
					<path id="&lt;Path&gt;" class="s3" d="m448.8 429c0.8 1.4-0.7 3.7-2.7 4.6-2 1-4.8 0.5-5.3-0.9-0.5-1.5 1.4-3.6 3.3-4.3 1.6-0.6 4-0.6 4.7 0.6z"/>
				</g>
				<g id="&lt;Group&gt;">
					<path id="&lt;Path&gt;" class="s3" d="m472.6 414.1c2.2-2.5 2.9-6.1 6.1-9.1 3-2.9 6.9-1.3 5.5 4.1-1.3 5.3-7.6 11.4-12 13.9-4.4 2.4-13.6 5.4-14.5 2.8-0.9-2.7 4.1-4.5 4.1-4.5 4.9-2.2 8.7-4.7 10.8-7.2z"/>
				</g>
				<g id="&lt;Group&gt;">
					<path id="&lt;Path&gt;" class="s3" d="m378.2 294.8c0 0-0.8-7.4 6.7-13.3 7.5-5.9 13.8-5 14.7-1.9 0.8 3-9.1 5.2-11.2 6.6-1.7 1.1-4.7 3.1-7.2 7.2-2.5 4-3 2.2-3 1.4z"/>
				</g>
				<g id="&lt;Group&gt;">
					<path id="&lt;Path&gt;" class="s3" d="m472 293.5c1.6 5.1 1.6 15.2 0.5 16.9-1.1 1.7-2.4 1.8-3.5-0.1-1.1-1.9-0.2-11.1-1-14.2-0.7-3.2-2.5-6.7-3.8-9.2-1.3-2.6-1.3-5.5-0.3-5.7 2.6-0.5 6.5 7.1 8.1 12.3z"/>
				</g>
			</g>
		</g>
		<g id="&lt;Group&gt;">
			<path id="&lt;Compound Path&gt;" fill-rule="evenodd" class="s1" d="m515.1 329.2q-2.9 2-4.9 3.7 0.5 1.6 1 2.9 0.4 1.3 0.9 2.5 0.3 0.7-0.1 1-0.5 0.3-1.7 0.5-0.8 0.1-1.7 0.3-0.9 0.1-1.9 0.2-0.8 0-1.3 0.1-0.6 0-1.1-0.1-0.5-0.1-1-0.5-0.4-0.3-0.9-1-1.3-2.4-2.7-5.9-1.5-3.5-3-7.5-1.4-4.1-2.7-8.3-1.2-4.3-1.9-8-0.3-1.3 0.2-2.6 0.4-1.3 2.6-2.6 1.9-1.2 3.4-2.1 1.6-0.8 3-1.5 1.3-0.6 2.6-1 1.2-0.5 2.4-1 1.7-0.5 2.7-0.1 1 0.4 1.9 1.5 2.1 2.8 5.1 6.2 3 3.5 6.3 7.2 3.4 3.6 6.8 7.3 3.4 3.7 6.4 6.8 0.6 0.6 0.5 1 0 0.4-1.2 0.9-1.1 0.5-2.1 0.9-1.1 0.4-2.3 0.6-1.3 0.2-2.1 0-0.8-0.1-2-1-1.1-0.9-2.5-2-1.3-1.1-2.8-2.4-3 2-5.9 4zm-3.7-6.7q1.8-1.3 3.7-2.5-2.9-2.7-5.7-5.4-2.8-2.7-5.5-5.5 0.8 3.6 1.7 7.8 1 4.1 2.2 8.2 1.8-1.3 3.6-2.6z"/>
			<path id="&lt;Compound Path&gt;" class="s1" d="m527.6 305.8q1.3-1.1 2.8-2.2 1.5-1.2 3.1-2.3 1.6-1.2 3.2-2.2 0.7-0.4 1.6-0.4 0.8 0 1.8 0.3 1.2 0.6 2 1.1 0.9 0.5 1.7 0.9 0.9 0.7 0.9 1 0 0.4-0.8 0.9-2.6 1.8-5.2 3.7-2.6 1.9-4.5 3.8-0.5 0.6-1.3 0.7-0.7 0.1-2-0.1-1.2-0.3-2.2-0.6-1.1-0.3-2.1-0.7-2.5-0.8-1.1-2 0.8-0.8 2.1-1.9z"/>
			<path id="&lt;Compound Path&gt;" fill-rule="evenodd" class="s1" d="m566 306.6q-2.9 2.2-4.9 4.1 0.5 2.3 1 4.2 0.5 1.9 1 3.6 0.2 1-0.2 1.3-0.4 0.4-1.7 0.5-0.7 0-1.7 0-0.9 0-1.8 0-0.8-0.1-1.4-0.2-0.6 0-1.1-0.3-0.5-0.2-1-0.8-0.4-0.5-0.9-1.6-1.3-3.5-2.8-8.6-1.5-5.1-3-10.8-1.4-5.8-2.7-11.7-1.3-5.9-2.1-10.8-0.3-1.8 0.2-3.4 0.5-1.6 2.7-2.8 1.8-1.2 3.4-2 1.5-0.8 2.9-1.3 1.4-0.5 2.6-0.8 1.2-0.4 2.4-0.8 1.8-0.3 2.8 0.4 1 0.7 1.8 2.3 2.2 4 5.2 9 3.1 5 6.4 10.4 3.4 5.4 6.9 10.8 3.4 5.3 6.4 9.9 0.7 1 0.6 1.5-0.1 0.5-1.3 1-1.1 0.5-2.1 0.9-1 0.3-2.3 0.4-1.3 0.1-2.1-0.3-0.8-0.3-2-1.7-1.1-1.4-2.5-3.1-1.3-1.7-2.8-3.7-3 2.2-5.9 4.4zm-3.8-9.6q1.8-1.4 3.7-2.7-2.9-4.1-5.7-8.2-2.9-4.1-5.6-8.2 0.8 4.9 1.8 10.5 1 5.6 2.2 11.4 1.8-1.5 3.6-2.8z"/>
			<path id="&lt;Compound Path&gt;" class="s1" d="m575.5 276.9q1.3-1.2 2.8-2.4 1.5-1.2 3.1-2.4 1.6-1.2 3.2-2.2 0.7-0.4 1.5-0.3 0.9 0.1 1.9 0.8 1.2 0.8 2 1.6 0.9 0.8 1.7 1.4 0.9 0.9 0.9 1.4 0 0.5-0.8 1-2.6 1.9-5.2 3.9-2.6 2-4.5 4.2-0.5 0.6-1.2 0.6-0.8 0.1-2-0.5-1.3-0.5-2.3-1.1-1.1-0.5-2.1-1.2-2.5-1.4-1.1-2.7 0.8-1 2.1-2.1z"/>
			<path id="&lt;Compound Path&gt;" fill-rule="evenodd" class="s1" d="m614.5 283.2q-3 2.4-4.9 4.6 0.4 2.9 1 5.4 0.5 2.4 1 4.7 0.2 1.3-0.2 1.7-0.4 0.4-1.7 0.4-0.7-0.1-1.6-0.2-1-0.1-1.9-0.3-0.8-0.2-1.4-0.4-0.6-0.1-1.1-0.5-0.5-0.4-1-1.2-0.4-0.7-0.9-2.1-1.3-4.8-2.9-11.4-1.5-6.7-3-14.1-1.5-7.4-2.8-15-1.4-7.5-2.2-13.8-0.2-2.2 0.2-4.1 0.5-1.8 2.7-3.1 1.8-1.1 3.4-1.8 1.6-0.7 2.9-1.1 1.4-0.4 2.6-0.6 1.2-0.3 2.5-0.5 1.7-0.2 2.7 0.8 1 1 1.9 3.1 2.2 5.2 5.3 11.8 3 6.6 6.4 13.7 3.4 7.1 6.9 14.1 3.5 7.1 6.5 13.2 0.7 1.2 0.6 1.9-0.1 0.6-1.2 1.1-1.2 0.5-2.2 0.9-1 0.3-2.3 0.2-1.3 0-2.1-0.6-0.8-0.5-2-2.3-1.2-1.9-2.5-4.2-1.3-2.3-2.9-5-2.9 2.4-5.8 4.7zm-3.9-12.5q1.8-1.5 3.7-2.8-2.9-5.5-5.8-11-2.9-5.5-5.6-11 0.8 6.1 1.8 13.3 1.1 7.1 2.3 14.5 1.8-1.6 3.6-3z"/>
			<path id="&lt;Compound Path&gt;" class="s1" d="m643 274.7q-0.2-1.7 0.1-3.1 0.4-1.5 1.4-2.3 1-0.9 2.7-0.8 1.4 0 2.7 0.7 1.2 0.8 2.1 2 0.9 1.2 1.5 2.5 0.6 1.4 0.8 2.5 0.2 0.8 0.3 2.1 0 1.2-0.1 2.4-0.2 1.1-0.7 2.1-0.5 1-1.5 1.4-2 1-4.4-0.5-2.4-1.5-4-5.5-0.7-1.7-0.9-3.5zm-8-72q0.9 1.4 1.5 4 1.5 7.4 3.1 14.8 1.6 7.5 3.2 14.6 1.6 7.1 3.2 13.5 1.6 6.5 3.1 11.9 0.5 1.9 0.2 2.6-0.3 0.7-1.5 0.7-1.4 0.2-2.7 0.1-1.3-0.1-2.7-0.5-1.4-0.5-2.2-1.5-0.9-1.1-1.7-3.6-1.7-5-3.8-11.9-2.1-6.9-4.3-14.4-2.1-7.5-4.1-14.9-2-7.4-3.5-13.3-0.8-2.9-0.4-4 0.5-1.1 2.3-1.2 1.6-0.3 3.6-0.1 2.1 0.2 3.9 0.9 1.8 0.8 2.8 2.3z"/>
			<path id="&lt;Compound Path&gt;" class="s1" d="m657 270q-0.1-1.4 0.3-2.5 0.5-1.1 1.4-1.5 0.9-0.5 2.4-0.1 1.2 0.3 2.1 1.2 1 0.9 1.7 2 0.7 1.1 1 2.3 0.4 1.2 0.5 2.1 0.1 0.7 0.1 1.7-0.1 0.9-0.3 1.8-0.3 0.8-0.8 1.5-0.5 0.7-1.4 0.8-1.8 0.4-3.7-1.3-1.9-1.6-2.9-5.1-0.4-1.5-0.4-2.9zm-0.8-58.5q0.7 1.3 0.9 3.5 0.7 6.2 1.5 12.4 0.7 6.2 1.5 12.2 0.8 5.9 1.6 11.3 0.8 5.4 1.5 10 0.3 1.6 0 2.1-0.3 0.4-1.3 0.2-1.2-0.2-2.3-0.5-1.1-0.4-2.2-1-1.2-0.7-1.8-1.7-0.6-1-1.1-3.2-1-4.3-2.2-10.2-1.2-6-2.3-12.4-1.2-6.4-2.3-12.7-1.1-6.4-1.9-11.5-0.4-2.4 0.1-3.2 0.4-0.8 1.9-0.4 1.4 0.2 3.1 0.9 1.7 0.7 3.2 1.7 1.4 1.1 2.1 2.5z"/>
		</g>
		<g id="&lt;Group&gt;">
			<path id="&lt;Compound Path&gt;" fill-rule="evenodd" class="s1" d="m524.3 377.7q-2.3 0.8-3.8 1.5-0.1 1.1 0 2 0.1 1 0.2 1.9 0 0.4-0.3 0.5-0.3 0.2-1.2 0.1-0.5-0.1-1.1-0.2-0.6 0-1.3-0.2-0.5-0.1-0.9-0.2-0.4-0.1-0.6-0.2-0.3-0.2-0.6-0.5-0.2-0.3-0.4-0.8-0.4-1.8-0.7-4.3-0.3-2.6-0.5-5.4-0.2-2.9-0.2-5.9 0-3 0.2-5.5 0.1-0.9 0.6-1.6 0.5-0.8 2.2-1.2 1.4-0.5 2.6-0.7 1.1-0.3 2.1-0.5 1-0.1 1.9-0.2 0.9 0 1.8-0.1 1.2-0.1 1.7 0.4 0.6 0.4 1 1.3 0.8 2.2 2.1 5 1.3 2.7 2.8 5.7 1.5 3 3 6 1.6 3 2.9 5.5 0.3 0.6 0.2 0.8-0.2 0.3-1 0.4-0.8 0.1-1.5 0.2-0.8 0-1.6-0.1-0.9-0.1-1.4-0.3-0.5-0.3-1.1-1.1-0.5-0.8-1.2-1.7-0.6-1-1.4-2.1-2.3 0.8-4.5 1.5zm-1.2-5q1.4-0.5 2.9-0.9-1.4-2.3-2.7-4.6-1.4-2.2-2.6-4.5-0.1 2.5-0.3 5.3-0.1 2.9-0.1 5.7 1.4-0.5 2.8-1z"/>
			<path id="&lt;Compound Path&gt;" class="s1" d="m536.6 364.9q1.1-0.5 2.2-0.9 1.2-0.5 2.5-0.9 1.2-0.5 2.4-0.8 0.6-0.2 1.1 0 0.6 0.1 1.2 0.5 0.6 0.6 1.1 1.1 0.4 0.5 0.8 0.9 0.5 0.6 0.5 0.8-0.1 0.3-0.7 0.4-2 0.7-4 1.5-2.1 0.7-3.7 1.6-0.4 0.3-0.9 0.2-0.5 0-1.3-0.4-0.7-0.4-1.3-0.8-0.6-0.4-1.2-0.8-1.5-1-0.4-1.5 0.7-0.4 1.7-0.9z"/>
			<path id="&lt;Compound Path&gt;" fill-rule="evenodd" class="s1" d="m561.3 372.5q-2.3 0.8-3.9 1.7-0.2 1.6-0.2 2.9 0 1.3 0 2.5 0 0.7-0.4 0.8-0.3 0.2-1.1 0-0.5-0.1-1.1-0.3-0.6-0.1-1.2-0.3-0.5-0.2-0.9-0.4-0.4-0.1-0.6-0.4-0.3-0.2-0.5-0.7-0.2-0.4-0.3-1.2-0.2-2.5-0.2-6.1-0.1-3.5 0-7.5 0.1-4 0.4-8 0.2-4.1 0.7-7.4 0.1-1.2 0.7-2.1 0.6-1 2.2-1.4 1.5-0.4 2.6-0.6 1.2-0.2 2.1-0.3 1-0.1 1.9-0.1 0.8 0 1.7 0 1.2 0.1 1.7 0.7 0.5 0.6 0.7 1.9 0.7 2.9 1.8 6.7 1 3.8 2.2 7.9 1.2 4.1 2.4 8.2 1.3 4.1 2.4 7.6 0.2 0.7 0 1.1-0.1 0.3-0.9 0.4-0.9 0.1-1.6 0.2-0.7 0-1.6-0.2-0.8-0.2-1.3-0.5-0.4-0.4-0.9-1.5-0.5-1.1-1.1-2.5-0.5-1.3-1.1-2.9-2.3 0.9-4.6 1.8zm-0.7-6.9q1.4-0.6 2.9-1.1-1.1-3.1-2.2-6.3-1.1-3.2-2.1-6.3-0.4 3.2-0.8 7.1-0.4 3.8-0.6 7.7 1.4-0.6 2.8-1.1z"/>
			<path id="&lt;Compound Path&gt;" class="s1" d="m572.9 355q1-0.5 2.2-1 1.2-0.5 2.4-1 1.3-0.5 2.5-0.8 0.6-0.2 1.1 0.1 0.5 0.2 1 0.8 0.6 0.8 1 1.4 0.4 0.7 0.8 1.3 0.5 0.7 0.4 1-0.1 0.3-0.7 0.5-2 0.7-4.1 1.6-2 0.8-3.7 1.9-0.4 0.3-0.9 0.2-0.5-0.2-1.2-0.7-0.7-0.6-1.3-1.2-0.5-0.5-1.1-1.1-1.3-1.4-0.2-2 0.7-0.5 1.8-1z"/>
			<path id="&lt;Compound Path&gt;" fill-rule="evenodd" class="s1" d="m596.8 366.3q-2.3 1-3.9 2-0.3 2-0.4 3.7-0.1 1.7-0.2 3.2-0.1 0.9-0.4 1.1-0.4 0.2-1.2-0.1-0.5-0.2-1-0.4-0.6-0.2-1.2-0.5-0.5-0.3-0.8-0.5-0.4-0.2-0.6-0.6-0.3-0.3-0.4-0.9-0.2-0.6-0.2-1.6 0-3.3 0.2-7.9 0.2-4.6 0.6-9.6 0.4-5.1 0.9-10.2 0.6-5.1 1.2-9.3 0.2-1.5 0.9-2.6 0.6-1.1 2.3-1.5 1.4-0.4 2.5-0.6 1.1-0.1 2.1-0.1 1-0.1 1.8 0 0.8 0.1 1.7 0.2 1.1 0.2 1.6 1 0.4 0.8 0.6 2.4 0.5 3.7 1.3 8.5 0.7 4.9 1.6 10.1 0.9 5.2 1.9 10.4 0.9 5.2 1.8 9.6 0.2 1 0 1.4-0.2 0.4-1 0.5-0.9 0.1-1.6 0.1-0.7 0-1.5-0.2-0.9-0.3-1.3-0.8-0.4-0.5-0.8-1.9-0.4-1.4-0.9-3.1-0.4-1.8-0.9-3.8-2.3 1-4.7 2zm-0.1-8.8q1.4-0.6 2.9-1.2-0.9-4-1.8-8.1-0.8-4.1-1.6-8.1-0.6 4.1-1.2 8.9-0.6 4.8-1.2 9.7 1.4-0.6 2.9-1.2z"/>
			<path id="&lt;Compound Path&gt;" fill-rule="evenodd" class="s1" d="m620.1 361.8q-2.3 1-4 2.2-0.3 2.2-0.5 4.1-0.1 1.8-0.3 3.6-0.1 1-0.4 1.2-0.4 0.2-1.2-0.1-0.4-0.2-1-0.5-0.6-0.3-1.2-0.6-0.4-0.4-0.8-0.6-0.3-0.2-0.5-0.6-0.3-0.4-0.4-1.1-0.1-0.6-0.2-1.7 0.2-3.8 0.5-8.9 0.4-5.2 1-10.8 0.5-5.7 1.2-11.4 0.7-5.7 1.4-10.3 0.3-1.7 1-2.9 0.6-1.2 2.3-1.6 1.4-0.4 2.5-0.5 1.1-0.2 2.1-0.1 0.9 0 1.8 0.1 0.8 0.1 1.6 0.2 1.2 0.3 1.6 1.2 0.4 1 0.6 2.7 0.3 4.2 0.9 9.6 0.6 5.3 1.4 11.1 0.7 5.8 1.5 11.7 0.8 5.8 1.5 10.7 0.2 1.1 0 1.5-0.2 0.5-1 0.6-0.9 0.1-1.6 0.1-0.7 0-1.5-0.3-0.8-0.3-1.2-0.9-0.4-0.5-0.8-2.1-0.4-1.6-0.8-3.5-0.3-1.9-0.8-4.2-2.3 1-4.7 2.1zm0.1-9.9q1.5-0.6 3-1.2-0.8-4.5-1.5-9.1-0.8-4.6-1.4-9.1-0.7 4.5-1.5 9.9-0.7 5.3-1.4 10.9 1.4-0.8 2.8-1.4z"/>
			<path id="&lt;Compound Path&gt;" class="s1" d="m639.1 361.4q0.2-1.1 0.7-2 0.5-0.8 1.3-1.2 0.8-0.4 1.9 0 0.9 0.2 1.5 0.9 0.7 0.8 1.1 1.7 0.3 0.9 0.5 1.9 0.1 1 0 1.8 0 0.5-0.2 1.4-0.2 0.8-0.5 1.5-0.3 0.7-0.8 1.2-0.5 0.6-1.2 0.7-1.5 0.2-2.8-1.2-1.2-1.4-1.5-4.2-0.2-1.3 0-2.5zm8.1-48q0.3 1.1 0.2 2.9-0.4 5.1-0.7 10.2-0.4 5.1-0.6 9.9-0.3 4.9-0.4 9.4-0.2 4.4-0.3 8.2 0 1.4-0.3 1.7-0.3 0.4-1.1 0.2-0.9-0.1-1.7-0.4-0.9-0.3-1.7-0.9-0.8-0.5-1.1-1.3-0.4-0.9-0.5-2.6-0.1-3.6-0.2-8.4-0.1-4.9-0.1-10.1-0.1-5.2 0-10.4 0.1-5.1 0.2-9.2 0-2 0.5-2.7 0.5-0.6 1.7-0.3 1 0.1 2.3 0.6 1.4 0.5 2.4 1.3 1 0.9 1.4 1.9z"/>
			<path id="&lt;Compound Path&gt;" class="s1" d="m649 360.9q0.2-0.9 0.7-1.5 0.5-0.6 1.1-0.7 0.7-0.2 1.6 0.4 0.7 0.4 1.2 1.1 0.4 0.8 0.7 1.6 0.2 0.9 0.2 1.7 0 0.8 0 1.4-0.1 0.5-0.3 1.1-0.2 0.6-0.6 1.1-0.3 0.6-0.7 0.9-0.5 0.3-1.1 0.3-1.2-0.1-2.1-1.5-0.9-1.5-0.9-3.9 0-1 0.2-2zm10.2-37.9q0.2 1 0 2.5-0.7 4.1-1.4 8.2-0.6 4.2-1.2 8.2-0.6 3.9-1.1 7.6-0.5 3.6-0.8 6.7-0.1 1.1-0.4 1.3-0.3 0.3-0.9-0.1-0.7-0.3-1.4-0.7-0.6-0.4-1.2-1-0.6-0.7-0.9-1.5-0.2-0.7-0.1-2.2 0.2-3 0.5-7 0.3-4.1 0.7-8.4 0.4-4.4 0.9-8.7 0.5-4.3 0.9-7.7 0.2-1.7 0.6-2.1 0.5-0.4 1.4 0.1 0.8 0.4 1.8 1.2 1 0.7 1.7 1.6 0.8 1 0.9 2z"/>
		</g>
	</g>
</svg>