<svg version="1.2" xmlns="http://www.w3.org/2000/svg" viewBox="0 0 1080 1080" width="1080" height="1080">
	<title>New Project</title>
	<defs>
		<clipPath clipPathUnits="userSpaceOnUse" id="cp1">
			<path d="m186 276.93h706.97v797.9h-706.97z"/>
		</clipPath>
	</defs>
	<style>
		.s0 { fill: #c0392b } 
		.s1 { fill: #8f2d1c } 
		.s2 { fill: #2880b8 } 
		.s3 { fill: #e74c3c } 
		.s4 { fill: #f1c40f } 
		.s5 { fill: #226590 } 
		.s6 { fill: #f39c12 } 
	</style>
	<g id="Clip-Path" clip-path="url(#cp1)">
		<g id="Layer">
			<path id="Layer" class="s0" d="m551.3 329.9l41.8-34.1 37.3 42.6 31.7 169.4 48 73.6 27.3 96.1 155.6 209-170.9 41.3-115.7 143.7-205.1-5.3-38-109.9-168.2-84.6 54.1-124.4-58.1-114.5 168-204.6 76.1-125.1 24-19.7z"/>
		</g>
	</g>
	<path id="Layer" class="s1" d="m645.8 489.5l64.3 91.9-34.4 19.1 165.7 269.9-131.3 26.3-118.1 132h-165.7l-40.1-104-112.2-69.3 43.3-138.4-37.3-126.1 97.3-127.9z"/>
	<path id="Layer" class="s2" d="m283.3 127.1l46.6-19.6 36.3 76.4-4.7 55 34.6 23.2 96.5 96.6 79.6 0.8 58.2-21.1 42.9 52.7-4.4 75.1 50.9 37.6 2.3 36-110.9-10.3 8.6 30.2 15.6 14.2 110.3 17 56 74.6-49.7 63.4-69.6-59.4-79.9-15.7 69.5 191.8 31.7 28.9 26.4 73.3 26.7 18.3 10 41.8-34.6-6.9-129.7-114.5-8.1-77.9-57.2-45.2-89.8-218.5-61.2-55.4c0 0-68.2-202.5-68.9-202.4-0.6 0.1-43.3-60-43.3-60z"/>
	<path id="Layer" class="s3" d="m672 750.6l7.7-32-30.1-19.4-3.8-36.9 36.6 7.2 48.8 45.2-18.9 22.2 1.2 71.7z"/>
	<path id="Layer" class="s3" d="m619.8 559.7l15.6 14.2-32.9 79.9-110.9-1.5-25.1-51.8z"/>
	<path id="Layer" class="s3" d="m466.5 431.3l37.2-47.3 94.4-8 33.9 36.2-59.2 86.1z"/>
	<path id="Layer" class="s0" d="m598.1 376l33.9 36.2-59.2 86.1-3.1-15-15.3-92.5-3.5-10.8z"/>
	<path id="Layer" class="s4" d="m482.7 428.5l26.7-33.9 84.3-7.1 24.2 25.8-48.2 70z"/>
	<path id="Layer" class="s3" d="m630.5 913.3l73.2-38.8 26.4 73.3 26.7 18.3 10 41.8 26.7 7.6 7.9 61.8-59.9-17.5-9.3-58.8z"/>
	<path id="Layer" class="s4" d="m722.1 539.8l-2.3-36 47-38 24.4 42-28.5 47.4z"/>
	<path id="Layer" class="s4" d="m254.2 61.4l35.1-61.4 64.5 6.7-23.9 100.8-46.6 19.6z"/>
	<path id="Layer" class="s4" d="m482.8 181.4l64.2 99.3-71.5 34.2-39.1-112.4z"/>
	<path id="Layer" class="s4" d="m510.7 358.7l-27.7-25.1 13.9-12.8-21.4-5.9 71.5-34.2 12.2 78z"/>
	<path id="Layer" class="s1" d="m593.1 295.8l37.3 42.6-58.2 21.1z"/>
	<path id="Layer" class="s1" d="m475.5 314.9l21.4 5.9-13.9 12.8 27.7 25.1h-18.1l-37.2-39 11.7-21.8z"/>
	<path id="Layer" class="s5" d="m475.5 314.9l71.5-34.2 12.2 78h-48.5l-27.7-25.1 13.9-12.8z"/>
	<path id="Layer" class="s5" d="m673.3 391.1l-4.4 75.1 50.9 37.6 2.3 36-110.9-10.3-1.5-10.5 36.1-94.9-15.4-85.7z"/>
	<path id="Layer" class="s5" d="m752 728.9l-69.6-59.4 65.7 9.6 53.6-13.6z"/>
	<path id="Layer" class="s5" d="m491.7 485.3l5.2 105.6-30.4 9.6-19.1-55.6-61.2-55.4-68.9-202.4 37.9 10.8 87.7 144.9z"/>
	<path id="Layer" class="s5" d="m602.5 653.8l69.5 191.8-38.1-32.8-64.8-155.5z"/>
	<path id="Layer" class="s5" d="m619.8 559.7l-28.7 7.6 18.6-48.3z"/>
	<path id="Layer" class="s6" d="m722.1 539.8l19.3-17.6 25.4-56.4 24.4 42-28.5 47.4z"/>
	<path id="Layer" class="s6" d="m353.8 6.7l-23.9 100.8-46.6 19.6 3.9-47.6z"/>
	<path id="Layer" class="s6" d="m482.8 181.4l64.2 99.3-36.1 17.2-51.7-105.9z"/>
	<path id="Layer" class="s0" d="m619.8 559.7l15.6 14.2-32.9 79.9-36.3-79.8z"/>
	<path id="Layer" class="s6" d="m593.7 387.5l24.2 25.8-48.2 70-15.3-92.5z"/>
	<path id="Layer" class="s2" d="m436.4 202.5l46.4-21.1 4.6 7.1c0 0-48.6 21-48.2 22.2z"/>
	<path id="Layer" class="s5" d="m450.6 243.4l24.9-2-21.3 12.3z"/>
	<path id="Layer" class="s5" d="m507.8 220.1l6.7 10.4-22.8 6.8z"/>
	<path id="Layer" class="s0" d="m703.7 874.5l26.4 73.3-47.7-62z"/>
	<path id="Layer" class="s0" d="m793.5 1015.5c0 0 7.1 55.7 7.9 61.8 0.8 6-34.6-69.4-34.6-69.4z"/>
	<path id="Layer" class="s0" d="m730.1 947.8l26.7 18.3 10 41.8z"/>
	<path id="Layer" class="s0" d="m731.2 714.7l-18.9 22.2-29.9-67.4z"/>
</svg>