<svg version="1.2" xmlns="http://www.w3.org/2000/svg" viewBox="0 0 1080 1080" width="1080" height="1080">
	<title>New Project</title>
	<style>
		.s0 { fill: #c0392b } 
		.s1 { fill: #2880b8 } 
		.s2 { fill: #e74c3c } 
		.s3 { fill: #226590 } 
		.s4 { fill: #8f2d1c } 
		.s5 { fill: #f1c40f } 
		.s6 { fill: #f39c12 } 
	</style>
	<path id="Layer" class="s0" d="m340.5 755.2l93.3-270.9 15.5-320.5 27.3-24.3 42.8 13.7 34.8 13.5 55.4-42.2 17.8 25.4 110 175.6 187.8 250.7 87.8 228.4-82.2 128.2-34.3-109.4-135.1 61.1-315.1-89.7-9.5 34.9z"/>
	<path id="Layer" class="s1" d="m377.3 385.8l13.5-16 18.9-77.3-2.4-32.9-69.4-40.8-29.3 8.9-106.6-37.9-5.6-25.6 106.4-12.9 14.1 27.9 52.6-21.7 28.5 17.2 107.8-22.4 48.4 14.4 73.2-16.8 25.6-2.3 20-7.9 35.4 16.4 74.7-16.3 13.6-41.9 28.7-21.7 49.3 108.3-19.9 23.7-14.2-0.9-66.3 41.7-94.9 8.3-60.9 70.6-51.7-2.4-35.3 81.2-2.8 63 70.9 98.7 10 108.6 21.3 40.8 42.1 9.4-11.1 59.9-78.8 9.6-5.7-40.8-10.8-43.1-34.6-7-58.6-84-39.6-100.7-200.6 152.5-3.9 22-37.9-26-0.2-92.8 79.6-108.9 89.3-42.3z"/>
	<path id="Layer" class="s2" d="m708.4 924.6l-125.3-127.9 78.8-9.6 11.1-59.9 28.9 69.5 20.7 80.8 53.6 51-26.1 38.8-31.9 111.9z"/>
	<path id="Layer" class="s2" d="m432.5 662.3l-62.5 7.3-140.7 26 3.9-22 100.2-76.1 37.9 21.4 34 0.9 25.2-19.8 92.3 117.8z"/>
	<path id="Layer" class="s2" d="m409.7 517.2l-49.6-91.6 17.2-39.8 91.7-1.5 62.5 22.4-2.8 63-94.9 51.4z"/>
	<path id="Layer" class="s3" d="m708.4 156.1l74.7-16.3-6.9 31.5 64.4 36-66.3 41.7-94.9 8.3-60.9 70.6-51.7-2.4-35.3 81.2-62.5-22.4 16.8-58.8 36.1-17.9 44.7-38.7-40.1-10.5 100.9-18.6-15.6-61.8 61.2-38.3z"/>
	<path id="Layer" class="s3" d="m202 189.8l193.8 20.2 11.5 49.6-69.4-40.8-29.3 8.9z"/>
	<path id="Layer" class="s3" d="m360.1 425.6l42.6 78.8-84.3-55.4z"/>
	<path id="Layer" class="s3" d="m191.2 576.8l17.7 84.4 24.3 12.4-3.9 22-37.9-26z"/>
	<path id="Layer" class="s0" d="m531.5 406.7l-2.8 63-87.9 50.3 35.8-73.5-7.6-62.2z"/>
	<path id="Layer" class="s3" d="m609.6 677l-110.6-190.3 29.7-17 70.9 98.7z"/>
	<path id="Layer" class="s3" d="m673 727.2l-11.1 59.9-31-69.3z"/>
	<path id="Layer" class="s0" d="m722.6 877.5l-60.7-90.4 11.1-59.9 28.9 69.5z"/>
	<path id="Layer" class="s4" d="m763.5 855.7l-48.4-7.6-13.2-51.4-28.9-69.5-42.1-9.4-21.3-40.8-10-108.6-70.9-98.7 2.8-63 35.3-81.2 51.7 2.4 43.8-45.2 188.7 262.9 50.1 247.2z"/>
	<path id="Layer" class="s4" d="m455.2 767.4c0.9-5.1 22.6-76.8 22.6-76.8l45 27.2-92.3-117.8 11.7-57.5 31.2 79.3 58.6 84 34.6 7 16.5 83.9z"/>
	<path id="Layer" class="s5" d="m825.4 76.2l-28.7 21.7-81.4-30.6 44.1-59.7z"/>
	<path id="Layer" class="s5" d="m196.4 164.2l5.6 25.6-8 23.6-51 0.8-5.5-9.4 14.8-6 0.1-12.2-86.2-0.4-0.2-10.9z"/>
	<path id="Layer" class="s3" d="m554.2 166.7l-53.4 2.4 10.9-32.5-39.6-26.5 10.4-109.1h78.8l28.3 138.8z"/>
	<path id="Layer" class="s5" d="m472.1 110.1l9.2-93.1 59.2-3.1 11.7 98.8z"/>
	<path id="Layer" class="s6" d="m715.3 67.3l80.7 4.7 0.7 25.9z"/>
	<path id="Layer" class="s2" d="m566.8 186.2l21.5 23.8-133.1 64.6-38.4-67.3 25.4-17z"/>
	<path id="Layer" class="s0" d="m455.2 274.6l47.4-86.3 64.2-2.1 21.5 23.8z"/>
	<path id="Layer" class="s5" d="m425.7 209.4l18.6-12.4 119.6-4 13.4 14.9-119.4 57.9z"/>
	<path id="Layer" class="s4" d="m432.5 662.3l45.3 28.3-8.8 27.2-38.5 44.8-36.5-25.9 22.8-72.5z"/>
	<path id="Layer" class="s3" d="m440.8 520l-107.4 77.5 76.3-80.3z"/>
	<path id="Layer" class="s6" d="m540.5 13.9l11.7 98.8-40-1.3v-96z"/>
	<path id="Layer" class="s0" d="m776.2 928.5l-26.1 38.8-0.5-64.1z"/>
	<path id="Layer" class="s6" d="m152.4 186.6l49.6 3.2-8 23.6-51 0.8-5.5-9.4 14.8-6z"/>
	<path id="Layer" class="s6" d="m457.9 265.8l41.1-70.6 64.9-2.2 13.4 14.9z"/>
	<path id="Layer" class="s3" d="m478.4 46.7l21.4 3.8-22.5 7z"/>
	<path id="Layer" class="s3" d="m514.8 52.9l22.2-8 1.4 11.1z"/>
</svg>